<?xml version="1.0" encoding="utf-8"?>
<!-- Generator: Adobe Illustrator 26.0.1, SVG Export Plug-In . SVG Version: 6.00 Build 0)  -->
<svg version="1.1" id="Layer_1" xmlns="http://www.w3.org/2000/svg" xmlns:xlink="http://www.w3.org/1999/xlink" x="0px" y="0px"
	 viewBox="0 0 156 52" style="enable-background:new 0 0 156 52;" xml:space="preserve">
<style type="text/css">
	.st0{fill:#86849B;}
</style>
<path class="st0" d="M130,1.07c-13.81,0-25,11.19-25,25c0,13.81,11.19,25,25,25c13.81,0,25-11.19,25-25
	C155,12.26,143.81,1.07,130,1.07z M142.26,20.54c-0.66,12-8.72,16.22-8.72,16.22c-10.22,6.56-18-0.56-18-0.56
	c5.53,0.84,7.62-2.25,7.62-2.25c-3.44-0.19-4.9-4.41-4.9-4.41c0.94,0.28,2.16-0.47,2.16-0.47c-4.41-0.84-4.07-5.62-4.07-5.62
	c1.65,0.84,1.82,0,1.82,0c-3.09-2.72-1.31-7.69-1.31-7.69c6.65,6.56,13.12,6.65,13.12,6.65c-1.5-3.19,2.06-6.56,2.06-6.56
	c4.22-3.47,8.81,0.47,8.81,0.47l3.56-1.22l-2.06,2.91l3-0.47L142.26,20.54z"/>
<g>
	<g>
		<path class="st0" d="M84.65,26.45c0,3.67-2.98,6.65-6.65,6.65c-3.67,0-6.65-2.98-6.65-6.65c0-1.1,0.27-2.13,0.74-3.04H67.2v10.98
			c0,1.47,1.2,2.67,2.67,2.67h16.26c1.47,0,2.67-1.2,2.67-2.67V23.41h-4.89C84.38,24.32,84.65,25.35,84.65,26.45z"/>
		<path class="st0" d="M78,30.62c2.3,0,4.18-1.87,4.18-4.18c0-1.2-0.51-2.28-1.32-3.04c-0.75-0.7-1.75-1.14-2.86-1.14
			c-1.11,0-2.11,0.44-2.86,1.14c-0.81,0.76-1.32,1.84-1.32,3.04C73.82,28.75,75.7,30.62,78,30.62z"/>
		<path class="st0" d="M78,1.07c-13.81,0-25,11.19-25,25c0,13.81,11.19,25,25,25c13.81,0,25-11.19,25-25
			C103,12.26,91.81,1.07,78,1.07z M91.27,34.39c0,2.83-2.31,5.14-5.14,5.14H69.87c-2.83,0-5.14-2.31-5.14-5.14V17.75
			c0-2.83,2.31-5.14,5.14-5.14h16.26c2.83,0,5.14,2.31,5.14,5.14V34.39z"/>
	</g>
	<circle class="st0" cx="86.73" cy="17.8" r="1.49"/>
</g>
<path class="st0" d="M26,1.07c-13.81,0-25,11.19-25,25c0,13.81,11.19,25,25,25c13.81,0,25-11.19,25-25C51,12.26,39.81,1.07,26,1.07z
	 M35.04,14.85h-4.15c0,0-2.87-0.1-2.67,2.77v4.05h5.93v5.73h-5.94v15.32H22.2V27.5h-5.24v-5.93h5.53v-6.82c0,0,0.49-4.96,5.05-5.34
	h7.5V14.85z"/>
</svg>
