<?xml version="1.0" encoding="utf-8"?>
<!-- Generator: Adobe Illustrator 23.1.0, SVG Export Plug-In . SVG Version: 6.00 Build 0)  -->
<svg version="1.1" id="Layer_1" xmlns="http://www.w3.org/2000/svg" xmlns:xlink="http://www.w3.org/1999/xlink" x="0px" y="0px"
	 viewBox="0 0 250 82" style="enable-background:new 0 0 250 82;" xml:space="preserve">
<style type="text/css">
	.st0{fill:#FFFFFF;}
	.st1{fill:none;stroke:#FFFFFF;stroke-width:0.9;stroke-miterlimit:10;}
	.st2{fill:none;stroke:#FFFFFF;stroke-width:0.8576;stroke-miterlimit:10;}
	.st3{fill:none;stroke:#FFFFFF;stroke-width:0.8152;stroke-miterlimit:10;}
	.st4{fill:none;stroke:#FFFFFF;stroke-width:0.7729;stroke-miterlimit:10;}
	.st5{fill:none;stroke:#FFFFFF;stroke-width:0.7305;stroke-miterlimit:10;}
	.st6{fill:none;stroke:#FFFFFF;stroke-width:0.6881;stroke-miterlimit:10;}
	.st7{fill:none;stroke:#FFFFFF;stroke-width:0.6457;stroke-miterlimit:10;}
	.st8{fill:none;stroke:#FFFFFF;stroke-width:0.6033;stroke-miterlimit:10;}
	.st9{fill:none;stroke:#FFFFFF;stroke-width:0.561;stroke-miterlimit:10;}
	.st10{fill:none;stroke:#FFFFFF;stroke-width:0.5186;stroke-miterlimit:10;}
	.st11{fill:none;stroke:#FFFFFF;stroke-width:0.4762;stroke-miterlimit:10;}
	.st12{fill:none;stroke:#FFFFFF;stroke-width:0.4338;stroke-miterlimit:10;}
	.st13{fill:none;stroke:#FFFFFF;stroke-width:0.3914;stroke-miterlimit:10;}
	.st14{fill:none;stroke:#FFFFFF;stroke-width:0.349;stroke-miterlimit:10;}
	.st15{fill:none;stroke:#FFFFFF;stroke-width:0.3067;stroke-miterlimit:10;}
	.st16{fill:none;stroke:#FFFFFF;stroke-width:0.2643;stroke-miterlimit:10;}
	.st17{fill:none;stroke:#FFFFFF;stroke-width:0.2219;stroke-miterlimit:10;}
	.st18{fill:none;stroke:#FFFFFF;stroke-width:0.1795;stroke-miterlimit:10;}
	.st19{fill:none;stroke:#FFFFFF;stroke-width:0.1371;stroke-miterlimit:10;}
	.st20{fill:none;stroke:#FFFFFF;stroke-width:9.480000e-02;stroke-miterlimit:10;}
	.st21{fill:none;stroke:#FFFFFF;stroke-width:5.240000e-02;stroke-miterlimit:10;}
	.st22{fill:none;stroke:#FFFFFF;stroke-width:1.000000e-02;stroke-miterlimit:10;}
	.st23{fill:none;}
	.st24{fill:#5C597A;}
	.st25{fill:#8888AE;}
</style>
<g>
	<polygon class="st0" points="115.2,67.7 126.7,67.7 126.7,0.8 96,0.8 83.4,14.4 70.9,0.8 40.2,0.8 35,19.9 49.6,19.9 51.7,13.5 
		67.6,13.5 75.3,22.1 83.4,22.1 91.5,22.1 99.3,13.5 115.2,13.5 	"/>
	<g>
		<path class="st1" d="M4.3,27.5c0,0,5.3-17.6,41.9-9c0,0,26.3,7.2,26.7,25"/>
		<path class="st2" d="M4.3,27.8c0,0,5.6-17.5,42-8.8c0,0,26,7.3,26.4,24.8"/>
		<path class="st3" d="M4.3,28.1c0,0,6-17.5,42.2-8.6c0,0,25.8,7.4,26.1,24.7"/>
		<path class="st4" d="M4.3,28.3c0,0,6.3-17.4,42.4-8.4c0,0,25.6,7.6,25.9,24.6"/>
		<path class="st5" d="M4.3,28.6c0,0,6.7-17.3,42.6-8.1c0,0,25.4,7.7,25.6,24.5"/>
		<path class="st6" d="M4.3,28.8c0,0,7-17.2,42.8-7.9c0,0,25.2,7.8,25.4,24.4"/>
		<path class="st7" d="M4.3,29.1c0,0,7.4-17.1,43-7.7c0,0,25,7.9,25.1,24.2"/>
		<path class="st8" d="M4.3,29.3c0,0,7.7-17,43.2-7.5c0,0,24.8,8,24.9,24.1"/>
		<path class="st9" d="M4.3,29.6c0,0,8.1-16.9,43.4-7.3c0,0,24.6,8.1,24.6,24"/>
		<path class="st10" d="M4.3,29.9c0,0,8.4-16.8,43.6-7.1c0,0,24.4,8.3,24.3,23.9"/>
		<path class="st11" d="M4.3,30.1c0,0,8.7-16.8,43.8-6.8c0,0,24.2,8.4,24.1,23.7"/>
		<path class="st12" d="M4.3,30.4c0,0,9.1-16.7,44-6.6c0,0,23.9,8.5,23.8,23.6"/>
		<path class="st13" d="M4.3,30.6c0,0,9.4-16.6,44.2-6.4c0,0,23.7,8.6,23.6,23.5"/>
		<path class="st14" d="M4.2,30.9c0,0,9.8-16.5,44.4-6.2c0,0,23.5,8.7,23.3,23.4"/>
		<path class="st15" d="M4.2,31.1c0,0,10.1-16.4,44.6-6c0,0,23.3,8.9,23,23.2"/>
		<path class="st16" d="M4.2,31.4c0,0,10.5-16.3,44.7-5.8c0,0,23.1,9,22.8,23.1"/>
		<path class="st17" d="M4.2,31.6c0,0,10.8-16.2,44.9-5.5c0,0,22.9,9.1,22.5,23"/>
		<path class="st18" d="M4.2,31.9c0,0,11.2-16.1,45.1-5.3c0,0,22.7,9.2,22.3,22.9"/>
		<path class="st19" d="M4.2,32.2c0,0,11.5-16,45.3-5.1c0,0,22.5,9.3,22,22.8"/>
		<path class="st20" d="M4.2,32.4c0,0,11.9-15.9,45.5-4.9c0,0,22.2,9.4,21.7,22.6"/>
		<path class="st21" d="M4.2,32.7c0,0,12.2-15.9,45.7-4.6c0,0,22,9.6,21.5,22.5"/>
		<path class="st22" d="M4.2,32.9c0,0,12.6-15.8,45.9-4.4c0,0,21.8,9.7,21.2,22.4"/>
	</g>
	<g>
		<path class="st1" d="M41.5,66.8c0,0,9.8,18.8,42.8,11c0,0,25.2-6.7,27.8-28"/>
		<path class="st2" d="M41.5,66.5c0,0,10,18.7,43,10.7c0,0,25.2-6.8,27.6-27.7"/>
		<path class="st3" d="M41.4,66.3c0,0,10.1,18.5,43.2,10.4c0,0,25.1-7,27.4-27.5"/>
		<path class="st4" d="M41.4,66.1c0,0,10.3,18.4,43.4,10.1c0,0,25.1-7.1,27.2-27.2"/>
		<path class="st5" d="M41.3,65.8c0,0,10.5,18.3,43.6,9.8c0,0,25-7.2,27-26.9"/>
		<path class="st6" d="M41.3,65.6c0,0,10.7,18.1,43.8,9.5c0,0,25-7.4,26.8-26.7"/>
		<path class="st7" d="M41.3,65.3c0,0,10.8,18,43.9,9.2c0,0,24.9-7.5,26.6-26.4"/>
		<path class="st8" d="M41.3,65.1c0,0,11,17.8,44.1,8.8c0,0,24.9-7.7,26.4-26.1"/>
		<path class="st9" d="M41.2,64.8c0,0,11.2,17.7,44.3,8.5c0,0,24.8-7.8,26.2-25.9"/>
		<path class="st10" d="M41.2,64.6c0,0,11.3,17.5,44.5,8.2c0,0,24.8-8,26-25.6"/>
		<path class="st11" d="M41.2,64.4c0,0,11.5,17.4,44.7,7.9c0,0,24.7-8.1,25.8-25.3"/>
		<path class="st12" d="M41.1,64.1c0,0,11.7,17.3,44.9,7.6c0,0,24.7-8.2,25.6-25.1"/>
		<path class="st13" d="M41.1,63.9c0,0,11.8,17.1,45,7.3c0,0,24.7-8.4,25.4-24.8"/>
		<path class="st14" d="M41.1,63.6c0,0,12,17,45.2,7c0,0,24.6-8.5,25.2-24.5"/>
		<path class="st15" d="M41,63.4c0,0,12.2,16.8,45.4,6.7c0,0,24.6-8.7,25-24.3"/>
		<path class="st16" d="M41,63.2c0,0,12.4,16.7,45.6,6.4c0,0,24.5-8.8,24.8-24"/>
		<path class="st17" d="M41,62.9c0,0,12.5,16.5,45.8,6.1c0,0,24.4-9,24.6-23.7"/>
		<path class="st18" d="M41,62.7c0,0,12.7,16.4,46,5.8c0,0,24.4-9.1,24.4-23.5"/>
		<path class="st19" d="M40.9,62.4c0,0,12.9,16.3,46.2,5.4c0,0,24.4-9.2,24.2-23.2"/>
		<path class="st20" d="M40.9,62.2c0,0,13,16.1,46.3,5.1c0,0,24.3-9.4,24-22.9"/>
		<path class="st21" d="M40.8,62c0,0,13.2,16,46.5,4.8c0,0,24.3-9.5,23.8-22.7"/>
		<path class="st22" d="M40.8,61.7c0,0,13.4,15.8,46.7,4.5c0,0,24.2-9.7,23.6-22.4"/>
	</g>
	<path class="st23" d="M78.7,69.1c-4.9,1.1-9.6,1.6-14.1,1.6c-6.4,0-12.2-1.1-16.7-3.1c-1.5,0.2-3,0.2-4.5,0.2c-0.3,0-0.7,0-1,0
		c4.4,7.3,14.4,11.8,26.7,11.8c3.7,0,7.5-0.4,11.3-1.3c18.7-4.2,32.2-17.4,31.1-30.1l-0.7-1C108,56.4,95.2,65.5,78.7,69.1z"/>
	<path class="st23" d="M43.6,56.7c1.5,0.1,3.1,0.2,4.6,0.2c10.4,0,18.5-3,22.2-8c-0.6-2.5-1.9-5-3.9-7.4
		C56.2,44.9,47.7,50.5,43.6,56.7z"/>
	<path class="st23" d="M86.9,38.1c-4.4,0-9,0.5-13.6,1.5c0.4,1.8,0.4,3.5,0.1,5.2c-0.2,0.9-0.5,1.7-0.9,2.5c0.1-0.1,0.1-0.2,0.2-0.3
		c0,1-0.2,2-0.4,2.9c-1.9,9.3-10.7,15.6-22.1,17.4c4,1.5,9,2.3,14.5,2.3c4.5,0,9.2-0.5,13.8-1.6c16.6-3.7,29.4-12.8,31.7-21.8
		C106.4,41.2,97.7,38.1,86.9,38.1z"/>
	<path class="st23" d="M57.7,34c-4.9-3.1-10.8-5.6-17.2-7.1c-4.6-1.1-9.2-1.7-13.7-1.7c-10.2,0-18.5,3-22.2,8c2,9,14.1,18.2,30,22
		c1.2,0.3,2.5,0.5,3.7,0.8C37.8,48,45.6,39.5,57.7,34z"/>
	<path class="st23" d="M71.2,47.8c0.6-1,1-2.1,1.3-3.2c0.3-1.6,0.3-3.2-0.1-4.8c-1.6,0.4-3.3,0.8-4.8,1.3
		C69.3,43.3,70.5,45.6,71.2,47.8z"/>
	<path class="st24" d="M22.9,15.1L22.9,15.1L22.9,15.1z"/>
	<path class="st24" d="M85.1,27.9L85.1,27.9L85.1,27.9z"/>
	<path class="st0" d="M71.3,30.5c-0.9,0.2-1.7,0.4-2.6,0.6c-0.3,0.1-0.7,0.2-1,0.3c-2.7,0.8-5.3,1.7-7.8,2.7
		c-0.4,0.2-0.8,0.3-1.1,0.5c-4.5,2-8.5,4.4-11.7,7.2c-5.5,4.7-8.2,9.7-7.8,14.3c1.1,0.2,2.2,0.3,3.3,0.4c4-6.4,12.5-12.3,23.3-15.9
		c0.3-0.1,0.7-0.2,1.1-0.3c1.7-0.5,3.5-1,5.3-1.5c0.3-0.1,0.5-0.1,0.7-0.2c0.1,0,0.1,0,0.2,0c4.8-1,9.5-1.5,13.8-1.5
		c10.6,0,19.3,2.9,23.6,7.9c0.2-1.2,0.2-2.4-0.1-3.6C109,34,98.8,29,85.1,29l0,0v-1v1C80.6,29,76,29.5,71.3,30.5z"/>
	<path class="st25" d="M110.2,46.3c0.1-0.5,0.2-0.9,0.3-1.3C110.4,45.5,110.3,45.9,110.2,46.3L110.2,46.3z"/>
	<path class="st0" d="M46.2,66.8c0.7,0,1.4-0.1,2-0.2c11.4-1.2,20.1-7,22.7-15.2l-0.2-1.2c-4.2,4.9-12.5,7.7-22.5,7.7
		c-1.7,0-3.5-0.1-5.2-0.3c-0.4,0-0.7-0.1-1.1-0.1c-0.8-0.1-1.7-0.2-2.5-0.3c-0.3,0-0.7-0.1-1-0.2c-1.3-0.2-2.7-0.5-4-0.8
		c-15.8-3.8-27.8-12.8-30.5-22l-0.7,1C2.5,41,4.8,47.2,9.7,52.6c5.5,6.1,13.5,10.7,22.7,12.9c2.8,0.7,5.6,1.1,8.4,1.3
		c0.4,0,0.8,0,1.1,0c0.5,0,1.1,0.1,1.6,0.1C44.5,66.8,45.3,66.8,46.2,66.8z"/>
	<path class="st25" d="M3.6,33L3.6,33L3.6,33z"/>
	<path class="st0" d="M111.6,43.6C111.6,43.6,111.6,43.6,111.6,43.6c0-0.7,0-1.5-0.2-2.3C109.8,33,99,27.9,85.1,27.9v1l0,0
		c13.7,0,23.9,5,25.3,12.5c0.2,1.2,0.2,2.4,0.1,3.6c-0.1,0.4-0.2,0.8-0.3,1.3l0,0c-2.3,9-15.1,18.1-31.7,21.8
		c-4.7,1-9.4,1.6-13.8,1.6c-5.5,0-10.5-0.8-14.5-2.3c11.4-1.8,20.2-8.2,22.1-17.4c0.2-1,0.3-1.9,0.4-2.9c-0.1,0.1-0.1,0.2-0.2,0.3
		c0.4-0.8,0.7-1.6,0.9-2.5c0.4-1.7,0.3-3.4-0.1-5.2c4.6-1,9.2-1.5,13.6-1.5c10.8,0,19.5,3.1,23.3,8.2c0.1-0.4,0.2-0.9,0.3-1.3
		c-4.3-5-13.1-7.9-23.6-7.9c-4.4,0-9,0.5-13.8,1.5c-0.1,0-0.1,0-0.2,0c-0.3,0.1-0.5,0.1-0.7,0.2c-1.8,0.4-3.6,0.9-5.3,1.5
		c-0.3,0.1-0.7,0.2-1.1,0.3C55,44.3,46.5,50.2,42.5,56.6c-1.1-0.1-2.2-0.3-3.3-0.4c-0.4-4.6,2.3-9.6,7.8-14.3
		c3.2-2.8,7.2-5.2,11.7-7.2c0.4-0.2,0.8-0.3,1.1-0.5c2.5-1,5.1-2,7.8-2.7c0.3-0.1,0.7-0.2,1-0.3c0.8-0.2,1.7-0.4,2.6-0.6
		c4.7-1,9.4-1.6,13.8-1.6v-1l0,0c-4.4,0-9.2,0.5-14.1,1.6C70,29.8,69,30,68,30.3c-5.5-5.9-14.6-11-25.4-13.5
		c-4.8-1.1-9.5-1.7-13.9-1.7v1c4.4,0,9,0.6,13.7,1.7c10.4,2.5,19.1,7.3,24.5,12.8c-2.8,0.8-5.5,1.8-8.1,2.9
		c-5-3.3-11.2-5.9-18.1-7.6c-4.8-1.1-9.5-1.7-13.9-1.7c-10,0-18.2,2.8-22.4,7.7c-0.1-1.2-0.1-2.4,0.1-3.5
		c1.6-7.5,11.1-12.3,24.2-12.3v-1l0,0C15.5,15.1,5.3,20,3.6,28.2c-0.2,0.8-0.2,1.6-0.2,2.4c0,0,0,0,0-0.1c-0.3,0.9-0.6,1.8-0.8,2.8
		C-0.4,47,12.9,61.9,32.2,66.5c3.1,0.7,6.2,1.2,9.2,1.3c4.5,8,15.2,12.9,27.9,12.9c3.7,0,7.6-0.4,11.5-1.3
		c20.1-4.5,34.3-19.2,31.6-33C112.2,45.4,111.9,44.5,111.6,43.6z M72.4,39.8c0.3,1.6,0.4,3.2,0.1,4.8c-0.2,1.1-0.7,2.2-1.3,3.2
		c-0.7-2.3-1.9-4.5-3.6-6.7C69.1,40.7,70.7,40.2,72.4,39.8z M66.5,41.5c2,2.4,3.3,4.9,3.9,7.4c-3.7,5-11.8,8-22.2,8
		c-1.5,0-3.1-0.1-4.6-0.2C47.7,50.5,56.2,44.9,66.5,41.5z M26.8,25.2c4.4,0,9,0.6,13.7,1.7c6.4,1.5,12.4,4,17.2,7.1
		c-12.1,5.6-19.9,14.1-19.4,22c-1.2-0.2-2.5-0.5-3.7-0.8c-15.8-3.8-27.9-13-30-22C8.4,28.2,16.6,25.2,26.8,25.2z M3.6,33L3.6,33
		L3.6,33L3.6,33z M40.8,66.8c-2.8-0.2-5.6-0.6-8.4-1.3c-9.1-2.2-17.2-6.8-22.7-12.9C4.8,47.1,2.5,41,3.2,35.2l0.7-1
		c2.6,9.1,14.7,18.2,30.5,22c1.4,0.3,2.7,0.6,4,0.8c0.3,0.1,0.7,0.1,1,0.2c0.9,0.1,1.7,0.3,2.5,0.3c0.4,0,0.7,0.1,1.1,0.1
		c1.8,0.2,3.5,0.3,5.2,0.3c10,0,18.3-2.8,22.4-7.7l0.2,1.2c-2.6,8.2-11.3,13.9-22.7,15.2c-0.7,0.1-1.3,0.1-2,0.2
		c-0.9,0.1-1.8,0.1-2.7,0.1c-0.5,0-1.1,0-1.6-0.1C41.6,66.8,41.2,66.8,40.8,66.8z M80.6,78.4c-3.8,0.8-7.6,1.3-11.3,1.3
		c-12.4,0-22.3-4.6-26.7-11.8c0.3,0,0.7,0,1,0c1.5,0,3-0.1,4.5-0.2c4.5,2,10.2,3.1,16.7,3.1c4.4,0,9.2-0.5,14.1-1.6
		C95.3,65.5,108,56.4,111,47.3l0.7,1C112.8,61,99.3,74.3,80.6,78.4z"/>
</g>
<g>
	<path class="st0" d="M141.3,50.4v-6.3h-4v-2.7h18.3v2.7h-4v6.3h-3.2v-6.3h-4.1v6.3H141.3z M148.3,29.5c1.1,0,2.2,0.2,2.9,0.4
		c0.9,0.2,1.4,0.5,2,1.1c0.5,0.5,0.9,1.1,1.3,1.6c0.2,0.5,0.4,1.3,0.4,2s-0.2,1.4-0.4,2c-0.2,0.5-0.7,1.1-1.3,1.6
		c-0.5,0.4-1.3,0.7-2,1.1c-0.9,0.2-1.8,0.4-2.9,0.4h-3.8c-1.1,0-2.2-0.2-2.9-0.4s-1.4-0.5-2-1.1c-0.5-0.4-0.9-1.1-1.3-1.6
		c-0.4-0.5-0.4-1.3-0.4-2s0.2-1.4,0.4-2c0.2-0.5,0.7-1.3,1.3-1.6c0.5-0.4,1.3-0.9,2-1.1s1.8-0.4,2.9-0.4
		C144.6,29.5,148.3,29.5,148.3,29.5z M148.3,37.2c1.3,0,2.2-0.2,2.7-0.7c0.5-0.5,0.9-1.1,0.9-1.8c0-0.7-0.2-1.4-0.9-1.8
		c-0.5-0.5-1.4-0.7-2.7-0.7h-3.8c-1.3,0-2.2,0.2-2.7,0.7c-0.5,0.5-0.9,1.1-0.9,1.8s0.2,1.4,0.9,1.8c0.5,0.5,1.4,0.7,2.7,0.7H148.3z"
		/>
	<path class="st0" d="M164.3,29.5c0.9,0,1.6,0.2,2.2,0.4c0.7,0.2,1.3,0.5,1.6,1.1c0.5,0.4,0.9,0.9,1.1,1.6c0.2,0.5,0.4,1.3,0.4,2
		v0.7c0,0.7-0.2,1.4-0.4,2c-0.2,0.5-0.5,1.1-1.1,1.6c-0.5,0.4-1.1,0.9-1.6,1.1c-0.7,0.2-1.4,0.4-2.2,0.4c-0.9,0-1.6-0.2-2.3-0.4
		c-0.7-0.2-1.3-0.5-1.6-1.1c-0.5-0.4-0.9-0.9-1.1-1.6c-0.2-0.5-0.4-1.3-0.4-2v-0.7c0-0.7,0.2-1.4,0.4-2c0.2-0.5,0.5-1.1,1.1-1.6
		c0.5-0.4,1.1-0.7,1.6-1.1C162.7,29.7,163.4,29.5,164.3,29.5z M171.5,41.7c0.9,0,1.8,0.2,2.5,0.4c0.7,0.2,1.3,0.5,1.8,0.9
		s0.9,0.9,1.1,1.4c0.2,0.5,0.4,1.1,0.4,1.8c0,0.7-0.2,1.3-0.4,1.8c-0.2,0.5-0.5,0.9-1.1,1.4c-0.5,0.4-1.1,0.7-1.8,0.9
		s-1.6,0.4-2.5,0.4h-5.4c-0.9,0-1.8-0.2-2.5-0.4c-0.7-0.2-1.3-0.5-1.8-0.9s-0.7-0.9-1.1-1.4c-0.2-0.5-0.4-1.1-0.4-1.8
		c0-0.7,0.2-1.3,0.4-1.8c0.2-0.5,0.5-0.9,1.1-1.4c0.5-0.4,1.1-0.7,1.8-0.9s1.6-0.4,2.5-0.4H171.5z M166.7,34.5
		c0-0.7-0.2-1.3-0.7-1.8c-0.4-0.5-1.1-0.7-1.8-0.7s-1.4,0.2-1.8,0.7c-0.4,0.5-0.5,1.1-0.5,1.8v0.7c0,0.7,0.2,1.3,0.5,1.8
		c0.4,0.5,1.1,0.7,1.8,0.7s1.3-0.2,1.8-0.7c0.4-0.5,0.7-1.1,0.7-1.8V34.5z M171.7,47.7c0.9,0,1.4-0.2,1.8-0.5
		c0.4-0.4,0.5-0.7,0.5-1.3s-0.2-0.9-0.5-1.3c-0.4-0.4-0.9-0.5-1.8-0.5h-5.9c-0.9,0-1.4,0.2-1.8,0.5c-0.4,0.4-0.5,0.7-0.5,1.3
		s0.2,0.9,0.5,1.3c0.4,0.4,0.9,0.5,1.8,0.5H171.7z M176.6,29.5V41h-2.9v-2.5h-3.1V36h3.1v-1.8h-3.1v-2.7h3.1v-2
		C173.7,29.5,176.6,29.5,176.6,29.5z"/>
	<path class="st0" d="M185.2,48.4c-0.2,0-0.5,0-0.7,0c-0.2,0-0.4,0-0.5-0.2c-0.2,0-0.4-0.2-0.4-0.2s-0.4-0.2-0.5-0.4l-1.3-1.3
		c-0.2-0.2-0.4-0.4-0.4-0.5s-0.2-0.4-0.2-0.4c0-0.2,0-0.4-0.2-0.5c0-0.2,0-0.4,0-0.7V31.3c0-0.5,0.4-0.9,0.9-0.9h9
		c0.5,0,0.9,0.4,0.9,0.9v16.4c0,0.5-0.4,0.9-0.9,0.9L185.2,48.4L185.2,48.4z M188.8,45.7V32.7h-4.7v11c0,0.2,0,0.2,0,0.4
		c0,0.2,0.2,0.2,0.2,0.4l0.9,0.9c0.2,0.2,0.2,0.2,0.4,0.2c0,0,0.2,0,0.4,0L188.8,45.7L188.8,45.7z M198.3,29.5V50h-3.1V29.5H198.3z"
		/>
	<path class="st0" d="M206.4,46.8v0.7v0.2l0,0h0.2h13.5V50h-14.6c-0.4,0-0.7,0-0.9-0.2c-0.2,0-0.4-0.2-0.5-0.5l-0.4-0.4
		c-0.2-0.2-0.4-0.4-0.5-0.7c0-0.2-0.2-0.5-0.2-0.9v-2.2c0-0.5,0.4-0.7,0.9-0.7h12.2c0.2,0,0.2,0,0.2-0.2v-0.9H203V41h6.7v-1.3h-7.7
		v-2.3h18.3v2.3h-7.6V41h5.8c0.5,0,0.9,0.4,0.9,0.9V45c0,0.5-0.2,0.9-0.4,1.3c-0.4,0.4-0.7,0.5-1.3,0.5H206.4L206.4,46.8z
		 M219.2,36.9c-1.3-0.4-2.3-0.9-3.6-1.4c-1.1-0.5-2.3-1.1-3.4-1.6c-0.2-0.2-0.4-0.4-0.5-0.5c0,0.2-0.2,0.4-0.5,0.5
		c-1.3,0.5-2.3,1.1-3.4,1.6c-1.1,0.5-2.3,0.9-3.6,1.4l-1.1-2.3c1.1-0.4,2.2-0.7,3.1-1.3c1.1-0.4,2-0.9,3.1-1.3
		c0.4-0.2,0.5-0.4,0.7-0.5c0.2-0.2,0.2-0.5,0.2-0.9v-1.3h3.1v1.3c0,0.4,0,0.7,0.2,0.9s0.4,0.4,0.7,0.5c1.1,0.5,2,0.9,3.1,1.3
		c1.1,0.4,2,0.7,3.2,1.3L219.2,36.9z"/>
	<path class="st0" d="M230.1,35.4v4.1h6.5v2.7h-13.3v-2.7h3.8v-4.1H230.1z M235.2,34.9c0,0.4,0,0.7,0,1.1c0,0.2,0,0.5-0.2,0.7
		c0,0.2-0.2,0.5-0.2,0.7c-0.2,0.4-0.4,0.7-0.5,1.1l-2.7-0.5c0.2-0.4,0.4-0.5,0.4-0.9c0-0.2,0.2-0.4,0.2-0.7c0-0.2,0-0.4,0-0.7
		c0-0.2,0-0.5,0-0.9v-2.3h-7.9v-2.7h10.2c0.5,0,0.9,0.4,0.9,0.9L235.2,34.9L235.2,34.9z M241.3,47.7v2.7h-13.1c-0.5,0-0.9,0-1.1-0.2
		c-0.2-0.2-0.5-0.4-0.7-0.5l-0.5-0.5c-0.2-0.2-0.2-0.2-0.4-0.4c0-0.2-0.2-0.2-0.2-0.4c0-0.2,0-0.4,0-0.5s0-0.4,0-0.7v-3.6h3.1v3.1
		c0,0.2,0,0.4,0.2,0.4l0.2,0.4c0.2,0,0.2,0.2,0.4,0.2C229,47.7,241.3,47.7,241.3,47.7z M240.9,29.5v5.6h2.7v2.5h-2.7v7.2h-3.1V29.7
		L240.9,29.5L240.9,29.5z"/>
</g>
<g>
	<path class="st0" d="M145.4,65.9H144v-6.3l-1.2,3.5h-1.4l-1.3-3.5v6.3h-1.4v-7.9c0-0.2,0.1-0.3,0.3-0.3h1.6l1.4,4l1.3-4h1.6
		c0.2,0,0.4,0.1,0.4,0.3L145.4,65.9L145.4,65.9z"/>
	<path class="st0" d="M148.2,60.1v3.4c0,0.4,0.1,0.8,0.3,1c0.2,0.2,0.4,0.4,0.8,0.4c0.3,0,0.6-0.1,0.8-0.4c0.2-0.3,0.3-0.6,0.3-1V60
		h1.4v5.8h-1.4v-0.5c-0.1,0.2-0.3,0.4-0.6,0.5c-0.2,0.1-0.5,0.2-0.9,0.2c-0.3,0-0.6,0-0.9-0.2c-0.3-0.1-0.5-0.3-0.7-0.5
		c-0.2-0.2-0.3-0.5-0.4-0.8c-0.1-0.3-0.2-0.7-0.2-1.1v-3.6L148.2,60.1L148.2,60.1z"/>
	<path class="st0" d="M154.2,64.2c0.1,0.5,0.4,0.8,1.1,0.8c0.2,0,0.4,0,0.5-0.1c0.1,0,0.2-0.1,0.3-0.1c0.1-0.1,0.1-0.1,0.1-0.2
		c0-0.1,0-0.1,0-0.2c0-0.1,0-0.2-0.1-0.2c0-0.1-0.1-0.1-0.2-0.2c-0.1-0.1-0.3-0.1-0.5-0.2s-0.5-0.2-0.8-0.2c-0.6-0.1-1-0.4-1.3-0.6
		c-0.3-0.3-0.4-0.6-0.4-1.1c0-0.2,0-0.5,0.1-0.7s0.2-0.4,0.4-0.5c0.2-0.2,0.4-0.3,0.7-0.4s0.6-0.1,1-0.1c0.7,0,1.2,0.2,1.6,0.5
		c0.4,0.3,0.6,0.8,0.7,1.3H156c0-0.2-0.1-0.4-0.3-0.5s-0.4-0.2-0.7-0.2s-0.5,0.1-0.6,0.2c-0.1,0.1-0.2,0.3-0.2,0.4
		c0,0.1,0,0.2,0.1,0.2c0,0.1,0.1,0.1,0.2,0.2c0.1,0.1,0.2,0.1,0.4,0.2c0.2,0.1,0.4,0.1,0.7,0.2c0.4,0.1,0.7,0.2,0.9,0.3
		c0.2,0.1,0.4,0.3,0.6,0.4c0.1,0.2,0.3,0.3,0.3,0.5c0.1,0.2,0.1,0.4,0.1,0.6s0,0.5-0.1,0.7c-0.1,0.2-0.2,0.4-0.4,0.6
		s-0.4,0.3-0.7,0.4c-0.3,0.1-0.6,0.1-1,0.1s-0.7,0-1-0.1s-0.6-0.2-0.8-0.3c-0.2-0.2-0.4-0.4-0.5-0.6s-0.2-0.5-0.2-0.8L154.2,64.2
		L154.2,64.2z"/>
	<path class="st0" d="M159.9,63.4c0,0.5,0.1,0.8,0.3,1.1s0.5,0.4,0.9,0.4c0.3,0,0.6-0.1,0.7-0.2c0.1-0.1,0.3-0.3,0.4-0.6h1.4
		c0,0.3-0.1,0.5-0.3,0.8c-0.2,0.3-0.3,0.4-0.5,0.6c-0.2,0.2-0.5,0.3-0.7,0.4c-0.3,0.1-0.6,0.1-0.9,0.1c-0.4,0-0.8-0.1-1.1-0.2
		s-0.6-0.3-0.8-0.5s-0.4-0.5-0.5-0.8s-0.2-0.7-0.2-1.1v-0.8c0-0.4,0.1-0.7,0.2-1c0.1-0.3,0.3-0.6,0.5-0.8c0.2-0.2,0.5-0.4,0.8-0.5
		s0.7-0.2,1.1-0.2c0.4,0,0.7,0.1,1,0.2c0.3,0.1,0.6,0.3,0.8,0.6c0.2,0.2,0.4,0.5,0.5,0.9c0.1,0.3,0.2,0.7,0.2,1.1v0.8L159.9,63.4
		L159.9,63.4z M161.1,61.1c-0.3,0-0.6,0.1-0.8,0.3s-0.3,0.5-0.3,0.9h2.3c0-0.2,0-0.3-0.1-0.5c-0.1-0.2-0.1-0.3-0.2-0.4
		c-0.1-0.1-0.2-0.2-0.3-0.3C161.4,61.1,161.3,61.1,161.1,61.1z"/>
	<path class="st0" d="M166.1,60.1v3.4c0,0.4,0.1,0.8,0.3,1s0.4,0.4,0.8,0.4s0.6-0.1,0.8-0.4c0.2-0.3,0.3-0.6,0.3-1V60h1.4v5.8h-1.4
		v-0.5c-0.1,0.2-0.3,0.4-0.6,0.5c-0.2,0.1-0.5,0.2-0.9,0.2c-0.3,0-0.6,0-0.9-0.2c-0.3-0.1-0.5-0.3-0.7-0.5c-0.2-0.2-0.3-0.5-0.4-0.8
		c-0.1-0.3-0.2-0.7-0.2-1.1v-3.6L166.1,60.1L166.1,60.1z"/>
	<path class="st0" d="M174.2,62.3c0-0.4-0.1-0.7-0.2-0.9c-0.1-0.2-0.3-0.3-0.6-0.3c-0.1,0-0.3,0-0.4,0.1c-0.1,0.1-0.2,0.2-0.3,0.3
		s-0.2,0.3-0.2,0.5c0,0.2-0.1,0.4-0.1,0.6v3.3H171v-5.8h1.4v0.5c0.1-0.2,0.3-0.4,0.5-0.5s0.5-0.2,0.9-0.2c0.4,0,0.7,0.1,0.9,0.3
		s0.4,0.4,0.5,0.6c0.2-0.2,0.4-0.4,0.6-0.6c0.3-0.2,0.6-0.3,1-0.3c0.3,0,0.6,0,0.9,0.2c0.2,0.1,0.5,0.2,0.6,0.4
		c0.2,0.2,0.3,0.4,0.3,0.7c0.1,0.3,0.1,0.5,0.1,0.9V66h-1.4v-3.6c0-0.4-0.1-0.6-0.2-0.8s-0.3-0.3-0.6-0.3c-0.2,0-0.3,0-0.4,0.1
		c-0.1,0.1-0.2,0.2-0.3,0.3s-0.2,0.3-0.2,0.4c0,0.2-0.1,0.3-0.1,0.5V66h-1.3V62.3L174.2,62.3z"/>
	<path class="st0" d="M187.3,63.5c0,0.4,0,0.7-0.2,1c-0.1,0.3-0.3,0.6-0.5,0.8s-0.5,0.4-0.8,0.5s-0.7,0.2-1.1,0.2
		c-0.4,0-0.8-0.1-1.1-0.2s-0.6-0.3-0.8-0.5s-0.4-0.5-0.5-0.8s-0.2-0.7-0.2-1v-1c0-0.4,0-0.7,0.2-1c0.1-0.3,0.3-0.6,0.5-0.8
		c0.2-0.2,0.5-0.4,0.8-0.5s0.7-0.2,1.1-0.2c0.4,0,0.8,0.1,1.1,0.2c0.3,0.1,0.6,0.3,0.8,0.5c0.2,0.2,0.4,0.5,0.5,0.8s0.2,0.7,0.2,1
		V63.5z M185.9,62.4c0-0.4-0.1-0.8-0.3-1s-0.5-0.4-0.8-0.4s-0.6,0.1-0.8,0.4c-0.2,0.2-0.3,0.6-0.3,1v1.1c0,0.4,0.1,0.8,0.3,1
		s0.5,0.4,0.8,0.4s0.6-0.1,0.8-0.4c0.2-0.2,0.3-0.6,0.3-1V62.4z"/>
	<path class="st0" d="M188,60.1h1.1v-0.7c0-0.7,0.2-1.2,0.5-1.5c0.3-0.3,0.9-0.5,1.6-0.5c0.2,0,0.5,0,0.7,0s0.5,0,0.7,0v1.1h-1.2
		c-0.3,0-0.6,0.1-0.7,0.2c-0.1,0.1-0.2,0.3-0.2,0.6V60h2v1.2h-2v4.7h-1.4v-4.7H188V60.1z"/>
	<path class="st0" d="M199.6,62.6v3.3h-1.4v-3.3l-2.3-5h1.4l1.3,3l0.2,0.7l0.3-0.7l1.4-3h1.4L199.6,62.6z"/>
	<path class="st0" d="M207.1,63.5c0,0.4,0,0.7-0.2,1c-0.1,0.3-0.3,0.6-0.5,0.8s-0.5,0.4-0.8,0.5s-0.7,0.2-1.1,0.2
		c-0.4,0-0.8-0.1-1.1-0.2s-0.6-0.3-0.8-0.5s-0.4-0.5-0.5-0.8s-0.2-0.7-0.2-1v-1c0-0.4,0-0.7,0.2-1c0.1-0.3,0.3-0.6,0.5-0.8
		c0.2-0.2,0.5-0.4,0.8-0.5s0.7-0.2,1.1-0.2c0.4,0,0.8,0.1,1.1,0.2c0.3,0.1,0.6,0.3,0.8,0.5c0.2,0.2,0.4,0.5,0.5,0.8s0.2,0.7,0.2,1
		V63.5z M205.7,62.4c0-0.4-0.1-0.8-0.3-1s-0.5-0.4-0.8-0.4s-0.6,0.1-0.8,0.4c-0.2,0.2-0.3,0.6-0.3,1v1.1c0,0.4,0.1,0.8,0.3,1
		s0.5,0.4,0.8,0.4s0.6-0.1,0.8-0.4c0.2-0.2,0.3-0.6,0.3-1V62.4z"/>
	<path class="st0" d="M209.5,60.1v3.4c0,0.4,0.1,0.8,0.3,1s0.4,0.4,0.8,0.4c0.3,0,0.6-0.1,0.8-0.4c0.2-0.3,0.3-0.6,0.3-1V60h1.4v5.8
		h-1.4v-0.5c-0.1,0.2-0.3,0.4-0.6,0.5c-0.2,0.1-0.5,0.2-0.9,0.2c-0.3,0-0.6,0-0.9-0.2c-0.3-0.1-0.5-0.3-0.7-0.5
		c-0.2-0.2-0.3-0.5-0.4-0.8c-0.1-0.3-0.2-0.7-0.2-1.1v-3.6L209.5,60.1L209.5,60.1z"/>
	<path class="st0" d="M217.9,62.6v3.3h-1.4v-3.3l-2.3-5h1.4l1.3,3l0.2,0.7l0.3-0.7l1.4-3h1.4L217.9,62.6z"/>
	<path class="st0" d="M225.3,63.5c0,0.4,0,0.7-0.2,1c-0.1,0.3-0.3,0.6-0.5,0.8s-0.5,0.4-0.8,0.5c-0.3,0.1-0.7,0.2-1.1,0.2
		c-0.4,0-0.8-0.1-1.1-0.2s-0.6-0.3-0.8-0.5s-0.4-0.5-0.5-0.8s-0.2-0.7-0.2-1v-1c0-0.4,0-0.7,0.2-1c0.1-0.3,0.3-0.6,0.5-0.8
		c0.2-0.2,0.5-0.4,0.8-0.5s0.7-0.2,1.1-0.2c0.4,0,0.8,0.1,1.1,0.2c0.3,0.1,0.6,0.3,0.8,0.5c0.2,0.2,0.4,0.5,0.5,0.8s0.2,0.7,0.2,1
		V63.5z M223.9,62.4c0-0.4-0.1-0.8-0.3-1c-0.2-0.2-0.5-0.4-0.8-0.4s-0.6,0.1-0.8,0.4c-0.2,0.2-0.3,0.6-0.3,1v1.1
		c0,0.4,0.1,0.8,0.3,1s0.5,0.4,0.8,0.4s0.6-0.1,0.8-0.4c0.2-0.2,0.3-0.6,0.3-1V62.4z"/>
	<path class="st0" d="M227.7,60.1v3.4c0,0.4,0.1,0.8,0.3,1s0.4,0.4,0.8,0.4c0.3,0,0.6-0.1,0.8-0.4c0.2-0.3,0.3-0.6,0.3-1V60h1.4v5.8
		H230v-0.5c-0.1,0.2-0.3,0.4-0.6,0.5c-0.2,0.1-0.5,0.2-0.9,0.2c-0.3,0-0.6,0-0.9-0.2c-0.3-0.1-0.5-0.3-0.7-0.5
		c-0.2-0.2-0.3-0.5-0.4-0.8c-0.1-0.3-0.2-0.7-0.2-1.1v-3.6L227.7,60.1L227.7,60.1z"/>
	<path class="st0" d="M236.1,65.9v-3.4c0-0.4-0.1-0.8-0.3-1s-0.4-0.4-0.8-0.4c-0.3,0-0.6,0.1-0.8,0.4c-0.2,0.3-0.3,0.6-0.3,1v3.4
		h-1.4v-5.8h1.4v0.4c0.1-0.2,0.3-0.3,0.6-0.4c0.2-0.1,0.5-0.2,0.9-0.2c0.6,0,1.1,0.2,1.5,0.6s0.5,1,0.5,1.8v3.5h-1.3L236.1,65.9
		L236.1,65.9z"/>
	<path class="st0" d="M242.2,65c-0.1,0.2-0.3,0.4-0.5,0.5c-0.2,0.1-0.5,0.2-0.9,0.2c-0.3,0-0.6-0.1-0.9-0.2
		c-0.3-0.1-0.5-0.3-0.7-0.5c-0.2-0.2-0.3-0.5-0.4-0.8c-0.1-0.3-0.2-0.7-0.2-1.1v-0.5c0-0.4,0-0.7,0.2-1c0.1-0.3,0.2-0.6,0.4-0.8
		c0.2-0.2,0.4-0.4,0.7-0.5s0.6-0.2,0.9-0.2c0.3,0,0.7,0.1,0.9,0.2c0.2,0.1,0.4,0.3,0.5,0.5v-0.5h1.4v5.3c0,0.3-0.1,0.6-0.2,0.9
		c-0.1,0.3-0.3,0.5-0.5,0.7c-0.2,0.2-0.5,0.4-0.8,0.5c-0.3,0.1-0.7,0.2-1,0.2h-1.6v-1.1h1.6c0.3,0,0.6-0.1,0.9-0.3
		c0.2-0.2,0.3-0.4,0.3-0.8L242.2,65L242.2,65z M242.2,62.5c0-0.4-0.1-0.8-0.3-1c-0.2-0.3-0.5-0.4-0.8-0.4s-0.6,0.1-0.8,0.4
		c-0.2,0.2-0.3,0.6-0.3,1v0.6c0,0.4,0.1,0.8,0.3,1c0.2,0.2,0.5,0.4,0.8,0.4c0.2,0,0.3,0,0.4-0.1c0.1-0.1,0.2-0.2,0.3-0.3
		s0.2-0.3,0.2-0.4c0-0.2,0.1-0.4,0.1-0.6L242.2,62.5L242.2,62.5z"/>
</g>
</svg>
