<?xml version="1.0" encoding="utf-8"?>
<!-- Generator: Adobe Illustrator 26.0.1, SVG Export Plug-In . SVG Version: 6.00 Build 0)  -->
<svg version="1.1" id="Layer_1" xmlns="http://www.w3.org/2000/svg" xmlns:xlink="http://www.w3.org/1999/xlink" x="0px" y="0px"
	 viewBox="0 0 28 28" style="enable-background:new 0 0 28 28;" xml:space="preserve">
<style type="text/css">
	.st0{fill:#333333;}
</style>
<path class="st0" d="M26.5,25.1l-6.8-6.8c1.5-1.8,2.4-4.1,2.4-6.6c0-5.7-4.6-10.3-10.3-10.3S1.5,6.1,1.5,11.8c0,2.7,1,5.1,2.7,6.9
	l1.3-1.5c-1.3-1.5-2-3.4-2-5.4c0-4.6,3.8-8.4,8.4-8.4s8.4,3.8,8.4,8.4s-3.8,8.4-8.4,8.4c-1.6,0-3.1-0.4-4.3-1.2l-1.3,1.5
	c1.6,1,3.5,1.7,5.6,1.7c2.5,0,4.8-0.9,6.5-2.3l6.8,6.8L26.5,25.1z"/>
</svg>
