<?xml version="1.0" encoding="utf-8"?>
<!-- Generator: Adobe Illustrator 23.1.0, SVG Export Plug-In . SVG Version: 6.00 Build 0)  -->
<svg version="1.1" id="Layer_1" xmlns="http://www.w3.org/2000/svg" xmlns:xlink="http://www.w3.org/1999/xlink" x="0px" y="0px"
	 viewBox="0 0 220 70" style="enable-background:new 0 0 220 70;" xml:space="preserve">
<style type="text/css">
	.st0{fill:#D3D2D2;}
	.st1{fill:none;}
	.st2{fill:#5C597A;}
	.st3{fill:#8888AE;}
	.st4{fill:#333333;}
</style>
<g>
	<polygon class="st0" points="98,58 107.8,58 107.8,1.2 81.7,1.3 71.1,12.8 60.4,1.3 34.3,1.2 30,17.5 42.4,17.4 44.1,12 57.6,12 
		64.2,19.3 71.1,19.3 77.9,19.3 84.5,12 98,12 	"/>
	<g>
		<path class="st1" d="M67.1,59.2c-4.1,0.9-8.2,1.3-11.9,1.3c-5.5,0-10.3-0.9-14.1-2.6c-1.2,0.1-2.5,0.2-3.8,0.2c-0.3,0-0.6,0-0.9,0
			c3.7,6.2,12.2,10,22.7,10c3.2,0,6.4-0.4,9.6-1.1C84.5,63.6,96,52.4,95,41.6l-0.6-0.9C91.9,48.5,81.1,56.1,67.1,59.2z"/>
		<path class="st1" d="M37.3,48.7c1.3,0.1,2.6,0.2,3.9,0.2c8.8,0,15.7-2.6,18.8-6.8c-0.5-2.1-1.6-4.3-3.3-6.3
			C47.9,38.7,40.7,43.5,37.3,48.7z"/>
		<path class="st1" d="M74,32.9c-3.7,0-7.6,0.4-11.5,1.3c0.3,1.5,0.4,3,0.1,4.4c-0.2,0.8-0.4,1.5-0.7,2.1c0-0.1,0.1-0.2,0.1-0.3
			c0,0.8-0.1,1.7-0.3,2.5c-1.6,7.8-9.1,13.3-18.8,14.8c3.4,1.3,7.6,2,12.3,2c3.8,0,7.8-0.5,11.8-1.3c14-3.1,24.8-10.9,26.8-18.5
			C90.5,35.5,83.2,32.9,74,32.9z"/>
		<path class="st1" d="M49.2,29.4c-4.1-2.6-9.2-4.7-14.6-6c-3.9-1-7.9-1.4-11.6-1.4c-8.7,0-15.7,2.5-18.9,6.8
			c1.7,7.6,12,15.4,25.5,18.6c1,0.3,2.1,0.5,3.1,0.7C32.3,41.3,38.9,34.1,49.2,29.4z"/>
		<path class="st1" d="M60.6,41.2c0.5-0.9,0.9-1.8,1.1-2.7c0.3-1.3,0.2-2.7,0-4c-1.4,0.3-2.8,0.7-4.1,1.1
			C59,37.3,60.1,39.2,60.6,41.2z"/>
		<path class="st2" d="M19.7,13.4L19.7,13.4L19.7,13.4z"/>
		<path class="st2" d="M72.5,24.3L72.5,24.3L72.5,24.3z"/>
		<path class="st3" d="M93.8,39.9c0.1-0.4,0.2-0.7,0.2-1.1C94,39.1,93.9,39.5,93.8,39.9L93.8,39.9z"/>
		<path class="st3" d="M3.2,28.5L3.2,28.5L3.2,28.5z"/>
		<path class="st2" d="M94.9,37.6L94.9,37.6c0-0.6,0-1.3-0.2-2c-1.4-7-10.5-11.3-22.3-11.3v0.9l0,0c11.6,0,20.3,4.3,21.5,10.6
			c0.2,1,0.2,2,0.1,3c-0.1,0.4-0.1,0.7-0.2,1.1l0,0c-2,7.6-12.8,15.4-26.9,18.5c-4,0.9-7.9,1.3-11.8,1.3c-4.7,0-8.9-0.7-12.3-2
			c9.7-1.5,17.1-6.9,18.8-14.8c0.2-0.8,0.3-1.7,0.3-2.5c0,0.1-0.1,0.2-0.1,0.3c0.3-0.7,0.6-1.4,0.7-2.1c0.3-1.4,0.3-2.9-0.1-4.4
			c3.9-0.8,7.8-1.3,11.5-1.3c9.2,0,16.5,2.6,19.8,7c0.1-0.4,0.2-0.7,0.2-1.1C90.4,34.5,82.9,32,74,32c-3.7,0-7.7,0.4-11.8,1.3
			c-0.1,0-0.1,0-0.2,0c-0.2,0-0.4,0.1-0.6,0.2c-1.5,0.4-3,0.8-4.5,1.2c-0.3,0.1-0.6,0.2-0.9,0.3c-9.2,3.1-16.4,8.1-19.8,13.5
			c-0.9-0.1-1.8-0.2-2.8-0.4c-0.3-3.9,2-8.2,6.6-12.1c2.8-2.3,6.1-4.4,9.9-6.1c0.3-0.1,0.6-0.3,1-0.4c2.1-0.9,4.3-1.7,6.7-2.3
			c0.3-0.1,0.6-0.2,0.9-0.2c0.7-0.2,1.4-0.4,2.2-0.5c4-0.9,7.9-1.3,11.8-1.3v-0.9l0,0c-3.8,0-7.8,0.4-11.9,1.4
			c-0.9,0.2-1.8,0.4-2.7,0.7c-4.7-5-12.4-9.3-21.5-11.5c-4.1-1-8.1-1.4-11.8-1.4v0.9c3.8,0,7.7,0.5,11.6,1.4
			c8.8,1.9,16.2,6,20.8,10.7c-2.4,0.7-4.7,1.5-6.8,2.5c-4.3-2.8-9.5-5.1-15.4-6.4c-4.1-1-8.1-1.4-11.8-1.4c-8.4,0-15.5,2.4-19,6.6
			c-0.1-1-0.1-2,0.1-3c1.3-6.3,9.4-10.4,20.5-10.4v-0.9l0,0c-11.2,0-19.9,4.2-21.3,11.1c-0.1,0.7-0.2,1.4-0.2,2l0,0
			c-0.3,0.8-0.5,1.6-0.7,2.4c-2.5,11.5,8.8,24.1,25.2,28c2.6,0.6,5.3,1,7.8,1.1c3.8,6.8,12.9,11,23.7,11c3.1,0,6.4-0.3,9.7-1.1
			c17.1-3.8,29.1-16.3,26.9-28C95.5,39.1,95.2,38.3,94.9,37.6z M61.7,34.4c0.3,1.4,0.3,2.7,0,4c-0.2,1-0.6,1.9-1.1,2.7
			c-0.6-1.9-1.6-3.8-3.1-5.7C58.9,35.1,60.3,34.7,61.7,34.4z M56.7,35.8c1.7,2,2.8,4.2,3.3,6.3c-3.2,4.2-10,6.8-18.8,6.8
			c-1.3,0-2.6-0.1-3.9-0.2C40.7,43.5,47.9,38.7,56.7,35.8z M23,22c3.8,0,7.7,0.5,11.6,1.4c5.5,1.3,10.5,3.4,14.6,6
			c-10.3,4.7-16.9,11.9-16.5,18.7c-1-0.2-2.1-0.4-3.1-0.7c-13.5-3.2-23.7-11-25.5-18.7C7.3,24.5,14.3,22,23,22z M3.2,28.5L3.2,28.5
			L3.2,28.5L3.2,28.5z M34.9,57.2c-2.4-0.1-4.8-0.5-7.1-1.1C20,54.3,13.1,50.4,8.5,45.2c-4.2-4.6-6.1-9.8-5.6-14.8l0.6-0.9
			C5.7,37.4,16,45.1,29.4,48.3c1.1,0.3,2.3,0.5,3.4,0.7c0.3,0,0.6,0.1,0.8,0.1c0.7,0.1,1.5,0.2,2.2,0.3c0.3,0,0.6,0,0.9,0.1
			c1.5,0.1,3,0.2,4.4,0.2c8.5,0,15.5-2.4,19.1-6.6l0.2,1c-2.2,7-9.6,11.8-19.3,12.9c-0.6,0.1-1.1,0.1-1.7,0.2
			c-0.7,0-1.5,0.1-2.3,0.1c-0.5,0-0.9,0-1.4,0C35.5,57.2,35.2,57.2,34.9,57.2z M68.6,67.1c-3.2,0.7-6.4,1.1-9.6,1.1
			c-10.5,0-19-3.9-22.7-10c0.3,0,0.6,0,0.9,0c1.3,0,2.6-0.1,3.8-0.2c3.8,1.7,8.7,2.6,14.1,2.6c3.8,0,7.8-0.4,11.9-1.3
			c14-3.1,24.8-10.8,27.3-18.5l0.6,0.9C96,52.4,84.5,63.6,68.6,67.1z"/>
		<path class="st1" d="M74.3,57.7c0.1,0,5.2-2,10.3-5.4c4.4-3,9.6-7.6,10-13.1c-0.2,2.2-1.2,4.4-2.9,6.6c-1.7,2.1-4,4.1-7,6.1
			c-5,3.4-10.2,5.4-10.3,5.4c-6.5,2.2-12.5,3.3-18.1,3.4c-0.2,0-0.3,0-0.5,0c-4.3,0-8.2-0.6-11.7-1.9c-1.4-0.5-2.6-1-3.7-1.6
			c-0.1,0-0.2,0-0.3,0c1.1,0.6,2.4,1.2,4,1.8C49.8,61,59.7,62.5,74.3,57.7z"/>
		<path class="st1" d="M73.6,60c0.2-0.1,13.7-4.9,19-13.7c-2.1,3.4-5.4,6.1-8.4,8.1c-5.2,3.5-10.4,5.3-10.4,5.4
			c-6.7,2.1-12.4,2.8-17.1,2.8c-5.6,0-9.8-1.1-12.9-2.3c-2.3-0.9-4.1-2-5.4-2.9l0,0c1.3,1,3.2,2.1,5.5,3C49.4,62.6,59,64.4,73.6,60z
			"/>
		<path class="st1" d="M59.3,65.2c-0.3,0-0.5,0-0.7,0C58.8,65.2,59,65.2,59.3,65.2z"/>
		<path class="st1" d="M94.3,41.2c0.1-0.2,0.1-0.4,0.2-0.7C94.4,40.8,94.3,41,94.3,41.2z"/>
		<path class="st1" d="M57.2,63.7c-5.9,0-10.4-1.2-13.5-2.5c-0.1,0-0.2-0.1-0.3-0.2c0.1,0.1,0.3,0.1,0.4,0.2
			c5.5,2.4,15,4.4,29.5,0.1c0.1,0,10.1-3.5,16.5-10.2c-6.4,6.5-16.1,9.9-16.3,10C67.1,63,61.7,63.7,57.2,63.7z"/>
		<path class="st1" d="M72.8,62.7c0.1,0,5.4-1.8,10.8-5.4c-5.3,3.5-10.5,5.2-10.6,5.3c-5.9,1.7-11,2.3-15.4,2.3
			c-1.8,0-3.5-0.1-5-0.3C57.8,65.2,64.4,65,72.8,62.7z"/>
		<path class="st1" d="M84.1,55.3c-5.2,3.5-10.5,5.3-10.5,5.3c-6.4,1.9-12,2.7-16.5,2.7c-5.8,0-10.2-1.2-13.3-2.5
			c-0.9-0.4-1.7-0.8-2.5-1.2c0.8,0.4,1.6,0.9,2.5,1.3c5.5,2.3,15.1,4.3,29.6,0c0.2,0,10.8-3.8,17.1-10.9
			C88.4,52.1,86.2,53.9,84.1,55.3z"/>
		<path class="st1" d="M84.1,54.8c-5.2,3.5-10.4,5.3-10.5,5.3c-6.6,2-12.2,2.8-16.8,2.8c-5.7,0-10-1.1-13.1-2.4
			c-1.7-0.7-3.1-1.5-4.3-2.2c1.2,0.8,2.6,1.6,4.3,2.3c5.5,2.3,15.2,4.1,29.7-0.2c0.2,0,12.2-4.3,18.1-12.3
			C89.5,50.8,86.7,53.1,84.1,54.8z"/>
		<path class="st1" d="M73.7,59.5c0.1,0,5.3-1.9,10.4-5.3c3.3-2.2,7.1-5.4,9.1-9.3c-2,3.8-5.7,6.8-8.9,9c-5.2,3.4-10.4,5.4-10.4,5.4
			c-6.8,2.2-12.6,2.9-17.4,2.9c-5.5,0-9.6-1-12.6-2.2c-2.1-0.8-3.8-1.8-5.1-2.7c0,0,0,0-0.1,0c1.3,0.9,3,1.9,5.2,2.8
			C49.4,62.3,59.2,64,73.7,59.5z"/>
		<path class="st1" d="M79.5,60.2c-0.2,0.1-0.3,0.2-0.5,0.2C79.2,60.3,79.4,60.2,79.5,60.2z"/>
		<path class="st1" d="M74,58.6c0.1,0,5.2-2,10.3-5.4c3.7-2.5,7.9-6.1,9.6-10.6c-0.5,1.3-1.3,2.7-2.4,4c-1.7,2.1-4.1,4.2-7.1,6.2
			c-5.1,3.4-10.3,5.4-10.3,5.4c-6.4,2.1-12.5,3.2-18,3.2l0,0c-4.4,0-8.5-0.7-12.2-2c-1.7-0.6-3.2-1.4-4.4-2.1c-0.1,0-0.1,0-0.2,0
			c1.3,0.8,2.8,1.6,4.6,2.3C49.6,61.7,59.4,63.3,74,58.6z"/>
		<path class="st1" d="M74.1,58.1c0.1,0,5.2-2,10.3-5.4c4-2.7,8.6-6.7,9.8-11.5c-0.5,1.7-1.4,3.3-2.7,4.9c-1.7,2.1-4,4.2-7,6.2
			c-5.1,3.4-10.2,5.4-10.3,5.4c-6.4,2.2-12.5,3.3-18,3.3c-0.1,0-0.2,0-0.3,0c-4.3,0-8.4-0.7-12-1.9c-1.6-0.6-2.9-1.2-4.1-1.8
			c-0.1,0-0.2,0-0.3,0c1.2,0.7,2.6,1.4,4.3,2C49.7,61.4,59.5,62.9,74.1,58.1z"/>
		<path class="st1" d="M68,64.6c-0.2,0.1-0.5,0.1-0.7,0.1C67.5,64.7,67.8,64.7,68,64.6z"/>
		<path class="st1" d="M84.4,53.3c-5.1,3.4-10.3,5.4-10.4,5.4c-6.3,2-12.3,3.1-17.8,3.1c-0.1,0-0.2,0-0.3,0c-4.4,0-8.5-0.7-12.1-2.1
			c-1.9-0.7-3.5-1.6-4.8-2.4h-0.1c1.3,0.9,2.9,1.8,4.9,2.5c5.6,2.2,15.4,3.8,30-0.8c0.1,0,5.2-1.9,10.4-5.4
			c3.6-2.4,7.7-5.9,9.5-10.3C91.9,47.6,87.9,51,84.4,53.3z"/>
		<path class="st1" d="M86.6,54.7L86.6,54.7L86.6,54.7z"/>
		<path class="st1" d="M94.2,42c-0.1,0.2-0.1,0.3-0.2,0.5C94.1,42.3,94.1,42.1,94.2,42z"/>
		<path class="st1" d="M57.3,64.1c-5,0-9-0.9-12-1.9c5.6,2.1,14.6,3.4,27.7-0.4c0.1,0,8.5-2.8,14.8-8.6c-6.3,5.5-14.5,8.3-14.6,8.4
			C67.1,63.4,61.8,64.1,57.3,64.1z"/>
		<path class="st1" d="M72.5,63.6c0,0,0.1,0,0.2,0c-0.4,0.1-0.9,0.2-1.3,0.3C71.8,63.8,72.1,63.7,72.5,63.6z"/>
		<path class="st1" d="M70.4,64.1c-0.4,0.1-0.7,0.2-1.1,0.2C69.7,64.3,70.1,64.2,70.4,64.1z"/>
		<path class="st1" d="M59.8,65.2c3.8-0.2,8-0.8,12.8-2.1c0.1,0,2.7-0.9,6.1-2.6C75.5,62.2,73,63,72.9,63C68,64.4,63.6,65,59.8,65.2
			z"/>
		<path class="st1" d="M72.9,62.2c0.1,0,6.9-2.3,13-7c-6,4.5-12.6,6.8-12.7,6.8c-6.1,1.7-11.3,2.4-15.7,2.4c-3.7,0-6.8-0.5-9.4-1.2
			C53.7,64.8,61.8,65.3,72.9,62.2z"/>
		<path class="st2" d="M95.6,42.8C93.4,60.4,72.2,66.3,72,66.4c-4.9,1.2-9.2,1.7-13,1.7c-16.6,0-22.9-9.4-23.7-10.8h-0.1
			c0.1,0.1,6,11.1,24,11.1c3.7,0,7.9-0.5,12.7-1.6C72.1,66.8,93.5,60.9,95.6,42.8L95.6,42.8z"/>
		<path class="st2" d="M58.8,67.7c-6.3,0-11.2-1.4-14.8-3.1c5.6,2.9,14.4,4.9,27.7,1.8c0.1,0,9.5-2.6,16.4-9.5
			c-6.8,6.5-15.8,9.1-16,9.1C67.1,67.2,62.7,67.7,58.8,67.7z"/>
		<path class="st2" d="M95.6,42.8c0-0.1,0-0.2,0-0.2h-0.1C95.6,42.7,95.5,42.8,95.6,42.8L95.6,42.8z"/>
		<path class="st2" d="M35.3,57.3L35.3,57.3C35.2,57.3,35.2,57.3,35.3,57.3L35.3,57.3L35.3,57.3z"/>
		<path class="st2" d="M59,68.1c3.8,0,8.1-0.5,13-1.7c0.2-0.1,21.4-6,23.6-23.5h-0.1c-0.8,5.9-3.8,10.5-7.4,13.9
			c-6.9,6.9-16.2,9.5-16.4,9.5c-13.2,3.1-22,1.1-27.7-1.8c-5.4-2.7-8-6.2-8.7-7.3h-0.1C36.1,58.7,42.4,68.1,59,68.1z"/>
		<path class="st2" d="M72.3,65.4c-5.1,1.3-9.7,1.8-13.6,1.8c-6.8,0-11.9-1.6-15.6-3.5c5.6,3.2,14.7,5.5,28.8,2.1
			C72,65.8,82.1,63,89,55.5C82.1,62.5,72.4,65.4,72.3,65.4z"/>
		<path class="st2" d="M95.6,42.6c0-0.1,0-0.2,0-0.2h-0.1C95.5,42.5,95.5,42.5,95.6,42.6L95.6,42.6z"/>
		<path class="st2" d="M95.4,42.8L95.4,42.8c0.1-0.1,0.1-0.1,0.1-0.2h-0.1C95.5,42.7,95.4,42.8,95.4,42.8z"/>
		<path class="st2" d="M89,55.5C82.1,63,72,65.8,71.9,65.8c-14.1,3.4-23.2,1-28.8-2.2c-1.9-1-3.4-2.1-4.6-3.1c1.3,1.3,3.1,2.7,5.5,4
			c3.6,1.8,8.4,3.1,14.8,3.1c3.9,0,8.3-0.5,13.3-1.8c0.1,0,9.1-2.6,16-9.1c1.6-1.6,3-3.4,4.2-5.4C91.3,52.9,90.2,54.2,89,55.5z"/>
		<path class="st2" d="M35.3,57.3L35.3,57.3L35.3,57.3z"/>
		<path class="st2" d="M35.5,57.3L35.5,57.3L35.5,57.3c0.6,1.1,3.2,4.6,8.6,7.2c-2.4-1.3-4.2-2.7-5.5-4C36.9,59.2,36,58,35.5,57.3z"
			/>
		<path class="st2" d="M92.3,51.4c-1.2,2-2.6,3.8-4.2,5.4c3.6-3.5,6.7-8,7.4-13.9h-0.1C95,46.1,93.8,48.9,92.3,51.4z"/>
		<path class="st2" d="M95.5,42.4c0-0.1,0-0.2,0-0.2h-0.1C95.4,42.2,95.4,42.3,95.5,42.4L95.5,42.4z"/>
		<path class="st2" d="M72.4,65c-5.3,1.3-9.9,1.9-13.9,1.9c-7.3,0-12.7-1.8-16.4-4c5.5,3.4,14.9,6.2,29.8,2.5
			c0.2,0,11-3.2,17.8-11.2C83,61.8,72.5,64.9,72.4,65z"/>
		<path class="st2" d="M89.8,54.2C83,62.3,72.1,65.4,72,65.4c-14.9,3.7-24.3,0.8-29.8-2.5c-1.7-1-3-2-4.1-2.9c1.2,1.2,2.8,2.5,5,3.8
			c3.7,2,8.7,3.5,15.6,3.5c3.9,0,8.4-0.5,13.6-1.8c0.1,0,9.9-2.9,16.7-10c1.3-1.5,2.5-3.1,3.5-4.9C91.7,51.9,90.8,53.1,89.8,54.2z"
			/>
		<path class="st2" d="M95.4,42.6L95.4,42.6c0.1-0.1,0.1-0.1,0.1-0.2h-0.1C95.4,42.4,95.4,42.5,95.4,42.6z"/>
		<path class="st2" d="M95.4,42.8c0-0.1,0-0.2,0-0.2h-0.1C95.4,42.7,95.4,42.8,95.4,42.8L95.4,42.8z"/>
		<path class="st2" d="M92.5,50.6c-1,1.8-2.2,3.5-3.5,4.9c1.2-1.2,2.3-2.6,3.3-4.1c0.5-0.9,1-1.9,1.4-3
			C93.3,49.2,92.9,49.9,92.5,50.6z"/>
		<path class="st2" d="M36.7,58.5c0.5,0.6,1.1,1.3,1.9,2.1c1.2,1,2.7,2.1,4.6,3.1c-2.2-1.2-3.8-2.6-5-3.8
			C37.5,59.4,37,58.9,36.7,58.5z"/>
		<path class="st2" d="M36.7,58.5c-0.4-0.5-0.8-0.9-1-1.2c0,0-0.1,0-0.2,0c0.5,0.7,1.5,1.9,3,3.3C37.7,59.8,37.1,59.1,36.7,58.5z"/>
		<path class="st2" d="M93.7,48.4c-0.4,1-0.9,2-1.4,3c1.6-2.5,2.7-5.3,3.2-8.5h-0.1C95.1,44.8,94.5,46.7,93.7,48.4z"/>
		<path class="st2" d="M72.5,64.5c-5.4,1.4-10.1,2-14.2,2c-7.9,0-13.4-2.1-17.1-4.4c5.4,3.6,15.1,6.9,30.9,2.9
			c0.2,0,11.4-3.3,18.1-11.6C83.5,61.1,72.7,64.4,72.5,64.5z"/>
		<path class="st2" d="M95.4,42.1c0-0.1,0-0.2,0-0.2h-0.1C95.4,42,95.4,42,95.4,42.1L95.4,42.1z"/>
		<path class="st2" d="M95.3,42.3L95.3,42.3c0.1-0.1,0.1-0.1,0.1-0.2h-0.1C95.3,42.2,95.3,42.3,95.3,42.3z"/>
		<path class="st2" d="M90.2,53.3c-6.7,8.3-17.9,11.6-18.1,11.6c-15.8,4-25.5,0.7-30.9-2.9c-1.5-0.9-2.7-1.9-3.6-2.8
			c1,1.1,2.5,2.4,4.5,3.6c3.7,2.1,9,4,16.4,4c4,0,8.6-0.6,13.9-1.9c0.2,0,10.6-3.2,17.4-10.8c1.2-1.4,2.3-3,3.1-4.7
			C92.2,50.9,91.2,52.2,90.2,53.3z"/>
		<path class="st2" d="M95.4,42.6c0-0.1,0-0.2,0-0.2h-0.1C95.3,42.4,95.3,42.5,95.4,42.6L95.4,42.6z"/>
		<path class="st2" d="M37.7,59.3c-0.5-0.5-0.9-0.9-1.3-1.3c0.4,0.5,1,1.2,1.7,2c1,0.9,2.4,2,4.1,2.9C40.2,61.7,38.7,60.4,37.7,59.3
			z"/>
		<path class="st2" d="M92.9,49.5c-0.9,1.7-1.9,3.3-3.1,4.7c1-1.1,1.9-2.3,2.7-3.6c0.5-0.9,0.9-1.9,1.3-2.9
			C93.6,48.3,93.3,48.9,92.9,49.5z"/>
		<path class="st2" d="M95.3,42.8L95.3,42.8c0.1-0.1,0.1-0.1,0.1-0.2h-0.1C95.3,42.7,95.3,42.7,95.3,42.8z"/>
		<path class="st2" d="M36.4,58c-0.2-0.2-0.4-0.5-0.5-0.7c0.1,0.2,0.4,0.7,0.8,1.2c0.4,0.4,0.9,0.9,1.4,1.4
			C37.3,59.2,36.8,58.5,36.4,58z"/>
		<path class="st2" d="M93.8,47.7c-0.4,1-0.8,2-1.3,2.9c0.4-0.7,0.8-1.4,1.2-2.2c0.3-0.7,0.5-1.4,0.7-2.2
			C94.2,46.7,94.1,47.2,93.8,47.7z"/>
		<path class="st2" d="M35.8,57.3c-0.1,0-0.1,0-0.2,0c0.3,0.3,0.6,0.7,1,1.2C36.2,58,36,57.6,35.8,57.3L35.8,57.3z"/>
		<path class="st2" d="M93.7,48.4c0.8-1.7,1.4-3.6,1.7-5.6h-0.1c-0.2,1.2-0.5,2.3-0.9,3.4C94.2,47,93.9,47.7,93.7,48.4z"/>
		<path class="st2" d="M72.3,64.5c0.2,0,12.2-3.6,18.7-12.5c-6.6,8.3-18.2,11.9-18.3,12c-5.5,1.5-10.3,2-14.5,2
			c-8.4,0-14.1-2.4-17.8-4.8C45.7,64.9,55.6,68.8,72.3,64.5z"/>
		<path class="st2" d="M95.4,41.9c0-0.1,0-0.2,0-0.2h-0.1C95.3,41.7,95.3,41.8,95.4,41.9L95.4,41.9z"/>
		<path class="st2" d="M90.9,52c-6.5,8.8-18.5,12.4-18.7,12.5c-16.7,4.3-26.5,0.4-31.8-3.3c-1.3-0.9-2.4-1.8-3.2-2.6
			c0.9,1,2.2,2.2,4,3.4c3.7,2.3,9.2,4.4,17.1,4.4c4.1,0,8.8-0.6,14.2-2c0.2-0.1,11-3.3,17.7-11.2c1.1-1.4,2.1-2.9,2.9-4.6
			C92.5,49.9,91.8,51,90.9,52z"/>
		<path class="st2" d="M95.3,42.1L95.3,42.1c0.1-0.1,0.1-0.2,0.1-0.2h-0.1C95.3,42,95.3,42,95.3,42.1z"/>
		<path class="st2" d="M93.1,48.7c-0.8,1.7-1.8,3.2-2.9,4.6c1-1.2,1.9-2.5,2.7-3.8c0.4-0.9,0.8-1.8,1.1-2.7
			C93.8,47.5,93.5,48.1,93.1,48.7z"/>
		<path class="st2" d="M95.3,42.3c0-0.1,0-0.2,0-0.2h-0.1C95.3,42.2,95.3,42.3,95.3,42.3L95.3,42.3z"/>
		<path class="st2" d="M37.2,58.6c-0.4-0.4-0.8-0.8-1.1-1.2c0.3,0.5,0.8,1.1,1.5,1.8c0.9,0.9,2.1,1.8,3.6,2.8
			C39.5,60.8,38.1,59.6,37.2,58.6z"/>
		<path class="st2" d="M92.9,49.5c0.3-0.6,0.6-1.2,0.9-1.8c0.3-0.7,0.5-1.4,0.7-2.1c-0.1,0.4-0.3,0.8-0.5,1.3
			C93.7,47.7,93.4,48.6,92.9,49.5z"/>
		<path class="st2" d="M95.2,42.6L95.2,42.6c0.1-0.1,0.1-0.2,0.1-0.2h-0.1C95.2,42.4,95.2,42.5,95.2,42.6z"/>
		<path class="st2" d="M37.7,59.3c-0.7-0.7-1.2-1.4-1.5-1.8l-0.1-0.1H36c0.1,0.2,0.3,0.4,0.5,0.7S37.2,58.8,37.7,59.3z"/>
		<path class="st2" d="M94.4,46.2c0.2-0.6,0.3-1.2,0.4-1.8c-0.1,0.4-0.2,0.8-0.3,1.2c-0.2,0.7-0.4,1.4-0.7,2.1
			C94.1,47.2,94.2,46.7,94.4,46.2z"/>
		<path class="st2" d="M35.8,57.3c0.2,0.2,0.3,0.4,0.5,0.7C36.2,57.7,36,57.5,35.8,57.3C35.9,57.3,35.8,57.3,35.8,57.3L35.8,57.3z"
			/>
		<path class="st2" d="M95.3,42.8c0-0.1,0-0.2,0-0.2h-0.1C95.2,42.7,95.2,42.7,95.3,42.8L95.3,42.8z"/>
		<path class="st2" d="M35.8,57.3L35.8,57.3L35.8,57.3L35.8,57.3z"/>
		<path class="st2" d="M94.8,44.4c-0.1,0.6-0.3,1.2-0.4,1.8c0.4-1.1,0.7-2.2,0.9-3.4h-0.1C95.1,43.3,95,43.9,94.8,44.4z"/>
		<path class="st2" d="M95.3,41.6c0-0.1,0-0.2,0-0.2h-0.1C95.3,41.5,95.3,41.5,95.3,41.6L95.3,41.6z"/>
		<path class="st2" d="M72.4,64c0.2,0,12.9-3.9,19.2-13.3c-6.4,8.8-18.7,12.7-18.9,12.8h-0.1c-0.1,0-0.1,0-0.2,0
			c-0.4,0.1-0.8,0.2-1.1,0.3C71,63.9,70.7,64,70.4,64c-0.4,0.1-0.7,0.2-1.1,0.2c-0.5,0.1-0.9,0.2-1.4,0.3c-0.2,0.1-0.5,0.1-0.7,0.1
			c-3.4,0.6-6.5,0.9-9.2,0.9c-8.9,0-14.8-2.7-18.4-5.3C44.8,64.2,54.9,68.6,72.4,64z"/>
		<path class="st2" d="M95.2,41.9L95.2,41.9c0.1-0.1,0.1-0.2,0.1-0.2h-0.1C95.3,41.7,95.2,41.8,95.2,41.9z"/>
		<path class="st2" d="M72.6,64c0.2,0,11.7-3.6,18.3-12c0.9-1.2,1.7-2.6,2.4-4c-0.5,1-1.1,1.9-1.7,2.8C85.3,60.1,72.5,64,72.4,64
			c-17.5,4.6-27.6,0.2-32.7-3.6c-1.2-0.9-2.2-1.7-2.9-2.4c0.8,0.9,2,2.1,3.7,3.2c3.7,2.4,9.4,4.8,17.8,4.8
			C62.3,66.1,67.1,65.5,72.6,64z"/>
		<path class="st2" d="M93.1,48.7c0.4-0.8,0.8-1.7,1-2.6c-0.3,0.7-0.5,1.3-0.8,1.9c-0.7,1.5-1.5,2.8-2.4,4
			C91.8,51,92.5,49.9,93.1,48.7z"/>
		<path class="st2" d="M95.3,42.1c0-0.1,0-0.2,0-0.2h-0.1C95.2,41.9,95.2,42,95.3,42.1L95.3,42.1z"/>
		<path class="st2" d="M40.5,61.2c-1.7-1.2-2.8-2.3-3.7-3.2c-0.2-0.2-0.4-0.5-0.6-0.7c0,0,0,0-0.1,0c0.3,0.3,0.6,0.8,1.1,1.3
			C38,59.4,39.1,60.3,40.5,61.2z"/>
		<path class="st2" d="M95.2,42.3L95.2,42.3c0.1-0.1,0.1-0.2,0.1-0.2h-0.1C95.2,42.2,95.2,42.3,95.2,42.3z"/>
		<path class="st2" d="M93.1,48.7c0.3-0.6,0.7-1.3,0.9-1.9c0.2-0.6,0.4-1.3,0.5-1.9c-0.1,0.4-0.3,0.8-0.4,1.2
			C93.9,47,93.5,47.9,93.1,48.7z"/>
		<path class="st2" d="M37.2,58.6c-0.5-0.5-0.8-1-1.1-1.3H36l0.1,0.1C36.4,57.8,36.8,58.2,37.2,58.6z"/>
		<path class="st2" d="M95.2,42.6c0-0.1,0-0.2,0-0.2h-0.1C95.2,42.4,95.2,42.5,95.2,42.6L95.2,42.6z"/>
		<path class="st2" d="M94.5,45.5c0.1-0.5,0.3-1.1,0.4-1.7c-0.1,0.3-0.2,0.7-0.3,1c-0.2,0.7-0.3,1.3-0.5,1.9
			C94.2,46.4,94.4,46,94.5,45.5z"/>
		<path class="st2" d="M36,57.3L36,57.3L36,57.3C36.1,57.4,36,57.3,36,57.3z"/>
		<path class="st2" d="M94.9,43.9c-0.1,0.6-0.2,1.1-0.4,1.7c0.1-0.4,0.2-0.8,0.3-1.2c0.1-0.5,0.2-1.1,0.3-1.6h0.1c0-0.1,0-0.2,0-0.2
			h-0.1C95.1,43,95,43.5,94.9,43.9z"/>
		<path class="st2" d="M95.1,42.8c-0.1,0.5-0.2,1.1-0.3,1.6C95,43.9,95.1,43.4,95.1,42.8L95.1,42.8z"/>
		<path class="st2" d="M95.3,41.4c0-0.1,0-0.2,0-0.2h-0.1C95.2,41.2,95.2,41.3,95.3,41.4L95.3,41.4z"/>
		<path class="st2" d="M67.3,64.8c0.2,0,0.5-0.1,0.7-0.1c0.4-0.1,0.9-0.2,1.4-0.3c0.4-0.1,0.7-0.2,1.1-0.2c0.3-0.1,0.6-0.2,0.9-0.2
			c0.4-0.1,0.8-0.2,1.3-0.3c1.4-0.5,13.5-4.6,19.3-13.6c-3.3,4.7-8.3,8.1-12.4,10.2c-0.2,0.1-0.3,0.2-0.5,0.2
			c-0.1,0-0.2,0.1-0.3,0.1c-3.4,1.7-6.1,2.6-6.1,2.6c-4.8,1.3-9.1,1.9-12.8,2.1c-0.2,0-0.4,0-0.5,0c-0.3,0-0.5,0-0.7,0s-0.5,0-0.7,0
			c-6.4,0-11.2-1.4-14.4-2.9C42.2,61.7,41,61,40,60.3C44.4,63.6,53,67.3,67.3,64.8z"/>
		<path class="st2" d="M67.3,64.8c-14.2,2.6-22.8-1.1-27.5-4.5c-1.4-1-2.5-1.9-3.2-2.7c0.7,0.8,1.7,1.8,3.1,2.9
			c3.6,2.6,9.5,5.3,18.3,5.3C60.8,65.7,63.9,65.4,67.3,64.8z"/>
		<path class="st2" d="M69.4,64.3c-0.5,0.1-0.9,0.2-1.4,0.3C68.4,64.5,68.9,64.4,69.4,64.3z"/>
		<path class="st2" d="M71.4,63.9c-0.3,0.1-0.6,0.2-0.9,0.2C70.7,64,71.1,63.9,71.4,63.9z"/>
		<path class="st2" d="M95.2,41.6L95.2,41.6c0.1-0.1,0.1-0.2,0.1-0.2h-0.1C95.2,41.5,95.2,41.5,95.2,41.6z"/>
		<path class="st2" d="M72.7,63.5L72.7,63.5c0.3-0.1,12.6-4,18.9-12.8c0.8-1.2,1.5-2.5,2-3.8c-0.5,1-1.1,2.1-1.7,3
			C86.1,58.9,74.1,63.1,72.7,63.5z"/>
		<path class="st2" d="M39.7,60.4c-1.4-1.1-2.4-2.1-3.1-2.9c-0.1-0.1-0.1-0.1-0.2-0.2h-0.1c0.2,0.2,0.3,0.4,0.5,0.7
			C37.5,58.7,38.5,59.5,39.7,60.4z"/>
		<path class="st2" d="M93.3,48c0.4-0.8,0.7-1.7,1-2.6c-0.2,0.5-0.4,1-0.6,1.5c-0.6,1.4-1.2,2.6-2,3.8C92.3,49.9,92.8,49,93.3,48z"
			/>
		<path class="st2" d="M95.2,41.9c0-0.1,0-0.2,0-0.2h-0.1C95.2,41.7,95.2,41.8,95.2,41.9L95.2,41.9z"/>
		<path class="st2" d="M93.3,48c0.3-0.6,0.6-1.2,0.8-1.9c0.2-0.6,0.4-1.3,0.5-1.9c-0.1,0.4-0.2,0.8-0.4,1.2
			C94,46.3,93.7,47.2,93.3,48z"/>
		<path class="st2" d="M95.1,42.1L95.1,42.1c0.1-0.1,0.1-0.2,0.1-0.2h-0.1C95.1,41.9,95.1,42,95.1,42.1z"/>
		<path class="st2" d="M36.8,58c-0.2-0.2-0.4-0.5-0.5-0.7c0,0,0,0-0.1,0C36.4,57.5,36.6,57.7,36.8,58z"/>
		<path class="st2" d="M95.2,42.3c0-0.1,0-0.2,0-0.2h-0.1C95.1,42.2,95.1,42.3,95.2,42.3L95.2,42.3z"/>
		<path class="st2" d="M94.6,44.9c0.1-0.5,0.2-1.1,0.3-1.7c-0.1,0.3-0.2,0.7-0.2,1c-0.1,0.7-0.3,1.3-0.5,1.9
			C94.3,45.7,94.5,45.3,94.6,44.9z"/>
		<path class="st2" d="M94.9,43.2c-0.1,0.6-0.2,1.1-0.3,1.7c0.1-0.3,0.2-0.7,0.3-1c0.1-0.4,0.2-0.9,0.2-1.3h0.1c0-0.1,0-0.2,0-0.2
			h-0.1C95.1,42.6,95,42.9,94.9,43.2z"/>
		<path class="st2" d="M95.1,42.5c-0.1,0.5-0.1,1-0.2,1.4C95,43.5,95.1,43,95.1,42.5L95.1,42.5z"/>
		<path class="st2" d="M59.8,65.2C63.6,65,68,64.4,72.9,63c0.1,0,2.6-0.8,5.9-2.5c0.1,0,0.2-0.1,0.3-0.1c0.2-0.1,0.3-0.2,0.5-0.2
			c4.4-2.3,9.9-6.1,13-11.5c-2.3,3.6-5.6,6.5-8.9,8.6c-5.4,3.6-10.7,5.3-10.8,5.4c-8.3,2.3-15,2.5-20.2,1.9
			c-3.8-0.5-6.9-1.5-9.2-2.5c-1.8-0.8-3.3-1.8-4.5-2.7c3.5,2.7,9.7,6,19.6,5.9c0.2,0,0.5,0,0.7,0C59.5,65.2,59.6,65.2,59.8,65.2z"/>
		<path class="st2" d="M95.2,41.2c0-0.1,0-0.2,0-0.2h-0.1C95.2,41,95.2,41.1,95.2,41.2L95.2,41.2z"/>
		<path class="st2" d="M95.1,41.4L95.1,41.4c0.1-0.1,0.1-0.2,0.1-0.2h-0.1C95.2,41.2,95.1,41.3,95.1,41.4z"/>
		<path class="st2" d="M79.5,60.2c4.1-2.1,9.1-5.5,12.4-10.2c0.8-1.2,1.4-2.4,1.9-3.7c-0.4,0.8-0.8,1.7-1.3,2.5
			C89.4,54.1,83.9,57.8,79.5,60.2z"/>
		<path class="st2" d="M59.8,65.2c-0.2,0-0.4,0-0.5,0C59.5,65.2,59.6,65.2,59.8,65.2z"/>
		<path class="st2" d="M79.1,60.4c-0.1,0-0.2,0.1-0.3,0.1C78.9,60.5,79,60.4,79.1,60.4z"/>
		<path class="st2" d="M39.8,60.2c1,0.7,2.2,1.4,3.6,2.1c3.3,1.5,8,2.9,14.4,2.9c0.2,0,0.5,0,0.7,0c-9.9,0.1-16.1-3.1-19.6-5.9
			c-1-0.7-1.8-1.4-2.4-2l0,0C37.3,58.1,38.3,59.2,39.8,60.2z"/>
		<path class="st2" d="M39.8,60.2c-1.5-1.1-2.5-2.1-3.3-2.9c0,0-0.1,0-0.2,0c0.1,0.1,0.1,0.1,0.2,0.2C37.3,58.3,38.4,59.3,39.8,60.2
			z"/>
		<path class="st2" d="M93.7,46.9c0.3-0.7,0.5-1.5,0.7-2.2c-0.2,0.5-0.4,1-0.6,1.5c-0.5,1.3-1.1,2.6-1.9,3.7
			C92.6,49,93.2,48,93.7,46.9z"/>
		<path class="st2" d="M95.2,41.6c0-0.1,0-0.2,0-0.2h-0.1C95.1,41.5,95.1,41.5,95.2,41.6L95.2,41.6z"/>
		<path class="st2" d="M95.1,41.8L95.1,41.8c0.1-0.1,0.1-0.2,0.1-0.2h-0.1C95.1,41.7,95.1,41.8,95.1,41.8z"/>
		<path class="st2" d="M36.6,57.5c-0.1-0.1-0.1-0.1-0.2-0.2l0,0C36.5,57.4,36.5,57.5,36.6,57.5z"/>
		<path class="st2" d="M93.7,46.9c0.2-0.5,0.4-1,0.6-1.5c0.2-0.6,0.3-1.2,0.5-1.9c-0.1,0.4-0.2,0.8-0.3,1.2
			C94.2,45.5,93.9,46.2,93.7,46.9z"/>
		<path class="st2" d="M95.1,42.1c0-0.1,0-0.2,0-0.2H95C95.1,41.9,95.1,42,95.1,42.1L95.1,42.1z"/>
		<path class="st2" d="M94.7,44.2c0.1-0.5,0.2-1.1,0.3-1.7c-0.1,0.3-0.1,0.7-0.2,1c-0.1,0.7-0.3,1.3-0.5,1.9
			C94.4,45,94.6,44.6,94.7,44.2z"/>
		<path class="st2" d="M95,42.5c-0.1,0.6-0.2,1.1-0.3,1.7c0.1-0.3,0.2-0.7,0.2-1c0.1-0.3,0.1-0.6,0.1-0.9h0.1c0-0.1,0-0.2,0-0.2H95
			C95,42.2,95,42.4,95,42.5z"/>
		<path class="st2" d="M95.1,42.3c0,0.3-0.1,0.6-0.1,0.9C95,42.9,95.1,42.6,95.1,42.3L95.1,42.3z"/>
		<path class="st2" d="M95.2,40.9c0-0.1,0-0.2,0-0.2h-0.1C95.1,40.7,95.1,40.8,95.2,40.9L95.2,40.9z"/>
		<path class="st2" d="M37.6,58c1.3,1.2,3.3,2.7,6,4c2.3,1.1,5.3,2.1,9.1,2.6c1.5,0.2,3.2,0.3,5,0.3c4.3,0,9.4-0.6,15.4-2.3
			c0.1,0,5.3-1.7,10.6-5.3c3.5-2.3,7-5.4,9.1-9.4c-1.6,2.7-3.8,4.9-6.2,6.8l0,0c-0.2,0.2-0.5,0.4-0.7,0.5c-6,4.7-12.8,6.9-13,7
			c-11.1,3.1-19.2,2.6-24.8,1.1c-1.8-0.5-3.3-1-4.6-1.6C40.9,60.5,39,59.2,37.6,58z"/>
		<path class="st2" d="M92.5,48.7c0.6-1.1,1.2-2.3,1.6-3.5c-0.4,1-0.8,1.9-1.3,2.7c-2.2,4-5.7,7.1-9.1,9.4
			C86.9,55.1,90.3,52.3,92.5,48.7z"/>
		<path class="st2" d="M95.1,41.1L95.1,41.1c0.1-0.1,0.1-0.2,0.1-0.2h-0.1C95.1,41,95.1,41.1,95.1,41.1z"/>
		<path class="st2" d="M39,59.3c1.2,0.9,2.7,1.8,4.5,2.7c2.3,1.1,5.3,2,9.2,2.5C48.8,64,45.8,63,43.6,62c-2.7-1.3-4.7-2.8-6-4
			c-0.3-0.2-0.5-0.5-0.7-0.7h-0.1C37.3,57.9,38,58.6,39,59.3z"/>
		<path class="st2" d="M95.1,41.4c0-0.1,0-0.2,0-0.2H95C95.1,41.2,95.1,41.3,95.1,41.4L95.1,41.4z"/>
		<path class="st2" d="M92.5,48.7c0.5-0.8,0.9-1.6,1.3-2.5c0.3-0.8,0.5-1.5,0.7-2.3c-0.1,0.4-0.3,0.9-0.4,1.3
			C93.7,46.4,93.2,47.6,92.5,48.7z"/>
		<path class="st2" d="M36.7,57.3L36.7,57.3c0.5,0.6,1.3,1.3,2.3,2C38,58.6,37.3,57.9,36.7,57.3z"/>
		<path class="st2" d="M95,41.6L95,41.6c0.1-0.1,0.1-0.2,0.1-0.2H95C95.1,41.5,95,41.5,95,41.6z"/>
		<path class="st2" d="M94.4,44.7c0.2-0.6,0.3-1.2,0.4-1.9c-0.1,0.3-0.2,0.7-0.3,1c-0.2,0.8-0.4,1.6-0.7,2.3
			C94,45.7,94.2,45.2,94.4,44.7z"/>
		<path class="st2" d="M94.8,43.5c0.1-0.5,0.2-1.1,0.2-1.7c-0.1,0.3-0.1,0.7-0.2,1c-0.1,0.6-0.2,1.3-0.4,1.9
			C94.5,44.3,94.7,43.9,94.8,43.5z"/>
		<path class="st2" d="M95.1,41.8c0-0.1,0-0.2,0-0.2H95C95,41.7,95,41.8,95.1,41.8L95.1,41.8z"/>
		<path class="st2" d="M95,41.9c-0.1,0.6-0.1,1.1-0.2,1.7c0.1-0.3,0.2-0.7,0.2-1c0-0.2,0.1-0.3,0.1-0.5l0,0
			C95.1,42,95.1,41.9,95,41.9L95,41.9C95,41.8,95,41.9,95,41.9z"/>
		<path class="st2" d="M95,42.1c0,0.2-0.1,0.3-0.1,0.5C95,42.4,95,42.2,95,42.1L95,42.1z"/>
		<path class="st2" d="M95.1,40.7c0-0.1,0-0.2,0-0.2H95C95.1,40.5,95,40.6,95.1,40.7L95.1,40.7z"/>
		<path class="st2" d="M43.6,61.7c1.3,0.6,2.8,1.1,4.5,1.6c2.6,0.7,5.7,1.2,9.4,1.2c4.4,0,9.6-0.7,15.7-2.4c0.1,0,6.8-2.3,12.7-6.8
			c0.2-0.2,0.5-0.3,0.7-0.5l0,0c2.7-2.2,5.1-4.9,6.7-8c-1.3,2.5-3.2,4.7-5.3,6.5c-6.3,5.7-14.7,8.5-14.8,8.6
			C60,65.5,51,64.2,45.4,62.1c-0.6-0.2-1.2-0.5-1.8-0.7c-2.9-1.3-5-2.8-6.4-4.1l0,0C38.4,58.6,40.5,60.3,43.6,61.7z"/>
		<path class="st2" d="M95,40.9L95,40.9c0.1-0.1,0.1-0.2,0.1-0.2H95C95.1,40.7,95,40.8,95,40.9z"/>
		<path class="st2" d="M43.5,61.7c1.3,0.6,2.8,1.1,4.6,1.6C46.4,62.8,44.9,62.3,43.5,61.7c-3-1.4-5.1-3.1-6.4-4.4
			c-0.1,0-0.1,0-0.2,0c0.2,0.2,0.4,0.4,0.7,0.7C39,59.2,40.9,60.5,43.5,61.7z"/>
		<path class="st2" d="M92.8,47.9c0.6-1.1,1.1-2.2,1.4-3.4c-0.3,0.8-0.6,1.5-1,2.2c-1.5,3.2-4,5.9-6.7,8
			C88.9,52.8,91.2,50.6,92.8,47.9z"/>
		<path class="st2" d="M85.9,55.3c0.2-0.2,0.5-0.4,0.7-0.5C86.3,54.9,86.1,55.1,85.9,55.3z"/>
		<path class="st2" d="M94.1,45.2c0.2-0.6,0.4-1.3,0.5-2c-0.1,0.4-0.3,0.8-0.4,1.3c-0.4,1.2-0.9,2.3-1.4,3.4
			C93.3,47,93.7,46.1,94.1,45.2z"/>
		<path class="st2" d="M95.1,41.1c0-0.1,0-0.2,0-0.2H95C95,41,95,41,95.1,41.1L95.1,41.1z"/>
		<path class="st2" d="M36.9,57.3L36.9,57.3c0.2,0.2,0.4,0.4,0.7,0.7C37.3,57.8,37.1,57.5,36.9,57.3z"/>
		<path class="st2" d="M94.5,43.9c0.1-0.5,0.2-1.1,0.3-1.7c-0.1,0.3-0.1,0.7-0.2,1c-0.1,0.7-0.3,1.3-0.5,2
			C94.3,44.7,94.4,44.3,94.5,43.9z"/>
		<path class="st2" d="M95,41.4L95,41.4c0.1-0.1,0.1-0.2,0.1-0.2H95C95,41.2,95,41.3,95,41.4z"/>
		<path class="st2" d="M94.5,43.9c0.1-0.3,0.2-0.7,0.3-1c0.1-0.4,0.1-0.8,0.2-1.3h0.1c0-0.1,0-0.2,0-0.2H95c0,0.3-0.1,0.6-0.2,0.8
			C94.8,42.8,94.7,43.3,94.5,43.9z"/>
		<path class="st2" d="M94.8,42.8c0.1-0.3,0.1-0.7,0.2-1l0,0l0,0c0-0.1,0-0.2,0-0.2h-0.1C94.9,42,94.9,42.4,94.8,42.8z"/>
		<path class="st2" d="M95,41.8C95,41.8,95,41.9,95,41.8C95,41.9,95,41.8,95,41.8L95,41.8z"/>
		<path class="st2" d="M45.3,62.1c3,1.1,7,1.9,12,1.9c4.5,0,9.8-0.7,16-2.5c0.1,0,8.3-2.8,14.6-8.4c2.4-2.2,4.5-4.8,5.8-7.8
			c-1,2.1-2.4,4-4,5.7c-6.4,6.7-16.3,10.2-16.5,10.2c-14.5,4.2-24,2.3-29.5-0.1c-0.2-0.1-0.3-0.1-0.4-0.2c-2.6-1.2-4.5-2.5-5.9-3.7
			h-0.1c1.3,1.3,3.4,2.8,6.3,4.1C44.2,61.7,44.8,61.9,45.3,62.1z"/>
		<path class="st2" d="M95.1,40.4c0-0.1,0-0.2,0-0.2H95C95,40.3,95,40.3,95.1,40.4L95.1,40.4z"/>
		<path class="st2" d="M87.9,53.2c2.1-1.9,4-4,5.3-6.5c0.4-0.9,0.8-1.9,1.1-2.8c-0.2,0.5-0.4,1.1-0.6,1.6
			C92.4,48.5,90.3,51,87.9,53.2z"/>
		<path class="st2" d="M95,40.7L95,40.7c0.1-0.1,0.1-0.2,0.1-0.2H95C95,40.5,95,40.6,95,40.7z"/>
		<path class="st2" d="M45.3,62.1c-0.6-0.2-1.2-0.5-1.7-0.7c-2.9-1.3-5-2.9-6.3-4.1c-0.1,0-0.1,0-0.2,0c1.4,1.3,3.5,2.8,6.4,4.1
			C44.1,61.7,44.7,61.9,45.3,62.1z"/>
		<path class="st2" d="M95,40.9c0-0.1,0-0.2,0-0.2l0,0C95,40.7,95,40.8,95,40.9L95,40.9z"/>
		<path class="st2" d="M94.2,44.5c0.2-0.6,0.3-1.3,0.5-1.9c-0.1,0.4-0.2,0.8-0.4,1.3c-0.3,1-0.6,1.9-1.1,2.8
			C93.6,46,93.9,45.3,94.2,44.5z"/>
		<path class="st2" d="M94.9,41.1L94.9,41.1C95,41,95,41,95,40.9h-0.1C94.9,41,94.9,41,94.9,41.1z"/>
		<path class="st2" d="M94.6,43.2c0.1-0.5,0.2-1.1,0.3-1.7c-0.1,0.3-0.1,0.7-0.2,1c-0.1,0.7-0.3,1.3-0.5,1.9
			C94.4,44.1,94.5,43.7,94.6,43.2z"/>
		<path class="st2" d="M94.6,43.2c0.1-0.3,0.2-0.7,0.2-1s0.1-0.6,0.1-0.8l0,0c0-0.1,0-0.2,0-0.2h-0.1c0,0.2-0.1,0.3-0.1,0.5
			C94.8,42.1,94.7,42.7,94.6,43.2z"/>
		<path class="st2" d="M94.8,42.2c0.1-0.3,0.1-0.5,0.2-0.8l0,0C94.9,41.7,94.9,41.9,94.8,42.2z"/>
		<path class="st2" d="M95,40.2c0-0.1,0-0.2,0-0.2l0,0C95,40,95,40.1,95,40.2L95,40.2z"/>
		<path class="st2" d="M43.6,61.1c3.1,1.3,7.6,2.5,13.5,2.5c4.5,0,9.9-0.7,16.3-2.6c0.1,0,9.9-3.4,16.3-10c1.8-1.8,3.2-4,4.1-6.3
			c-0.8,1.9-2,3.6-3.4,5.2c-6.3,7.1-16.9,10.9-17,10.9c-14.5,4.3-24.1,2.4-29.6,0c-0.9-0.4-1.8-0.8-2.5-1.3
			c-1.4-0.8-2.6-1.6-3.5-2.3c0,0-0.1,0-0.2,0c1.3,1.1,3.2,2.5,5.7,3.7C43.4,61,43.5,61.1,43.6,61.1z"/>
		<path class="st2" d="M94.9,40.4L94.9,40.4c0.1-0.1,0.1-0.2,0.1-0.2h-0.1C94.9,40.3,94.9,40.3,94.9,40.4z"/>
		<path class="st2" d="M89.7,51.1c1.6-1.7,3.1-3.6,4-5.7c0.3-0.8,0.6-1.7,0.8-2.6c-0.2,0.7-0.4,1.4-0.7,2
			C92.9,47.2,91.4,49.3,89.7,51.1z"/>
		<path class="st2" d="M37.5,57.3c0,0-0.1,0-0.2,0c1.3,1.1,3.3,2.5,5.9,3.7C40.7,59.8,38.8,58.5,37.5,57.3z"/>
		<path class="st2" d="M94.3,43.8c0.2-0.7,0.3-1.4,0.4-2.1c-0.1,0.4-0.2,0.7-0.3,1.1c-0.2,0.9-0.5,1.8-0.8,2.6
			C93.9,44.9,94.1,44.4,94.3,43.8z"/>
		<path class="st2" d="M95,40.7c0-0.1,0-0.2,0-0.2h-0.1C94.9,40.5,94.9,40.6,95,40.7L95,40.7z"/>
		<path class="st2" d="M94.8,41.7c-0.1,0.7-0.3,1.4-0.4,2.1c0.1-0.4,0.3-0.8,0.4-1.3s0.2-1.1,0.2-1.7h0.1c0-0.1,0-0.2,0-0.2H95
			C94.9,41,94.8,41.4,94.8,41.7z"/>
		<path class="st2" d="M94.9,41.1L94.9,41.1c0-0.1,0-0.2,0-0.2h-0.1c0,0.6-0.1,1.1-0.2,1.7c0.1-0.3,0.1-0.7,0.2-1
			C94.9,41.4,94.9,41.3,94.9,41.1z"/>
		<path class="st2" d="M94.9,41.6c0-0.2,0.1-0.3,0.1-0.5l0,0C94.9,41.3,94.9,41.4,94.9,41.6z"/>
		<path class="st2" d="M95,39.9c0-0.1,0-0.2,0-0.2h-0.1C94.9,39.8,94.9,39.8,95,39.9L95,39.9z"/>
		<path class="st2" d="M43.7,60.8c3.1,1.3,7.5,2.5,13.3,2.5c4.6,0,10.1-0.7,16.6-2.7c0.1,0,5.3-1.8,10.5-5.3
			c2.1-1.4,4.4-3.2,6.3-5.3c1.7-1.9,3-4,3.8-6.4c-0.6,1.7-1.5,3.2-2.6,4.6c-5.9,8-18,12.3-18.1,12.3C59,64.9,49.3,63,43.7,60.8
			c-1.6-0.8-3.1-1.6-4.2-2.4c-0.5-0.3-1-0.7-1.4-1c-0.1,0-0.2,0-0.2,0c0.9,0.7,2,1.5,3.4,2.3C41.9,60,42.8,60.5,43.7,60.8z"/>
		<path class="st2" d="M37.8,57.3C37.8,57.3,37.7,57.3,37.8,57.3c0.8,0.7,2,1.5,3.4,2.3C39.8,58.8,38.7,58,37.8,57.3z"/>
		<path class="st2" d="M94.9,40.2L94.9,40.2C95,40.1,95,40,95,39.9h-0.1C94.9,40,94.9,40.1,94.9,40.2z"/>
		<path class="st2" d="M90.4,50c1.4-1.5,2.6-3.3,3.4-5.2c0.3-0.8,0.6-1.7,0.8-2.6c-0.1,0.5-0.3,0.9-0.4,1.3
			C93.4,45.9,92,48.1,90.4,50z"/>
		<path class="st2" d="M94.5,42.8c0.1-0.5,0.2-1.1,0.3-1.7c-0.1,0.4-0.1,0.7-0.2,1.1c-0.2,0.9-0.4,1.8-0.8,2.6
			C94.1,44.2,94.3,43.5,94.5,42.8z"/>
		<path class="st2" d="M94.9,40.4c0-0.1,0-0.2,0-0.2h-0.1C94.9,40.3,94.9,40.3,94.9,40.4L94.9,40.4z"/>
		<path class="st2" d="M94.8,41.1c-0.1,0.6-0.2,1.1-0.3,1.7c0.1-0.4,0.2-0.7,0.3-1.1c0.1-0.3,0.1-0.7,0.1-1.1l0,0c0-0.1,0-0.2,0-0.2
			h-0.1C94.8,40.7,94.8,40.9,94.8,41.1z"/>
		<path class="st2" d="M94.9,40.6c0,0.4-0.1,0.7-0.1,1.1C94.8,41.4,94.9,41,94.9,40.6L94.9,40.6z"/>
		<path class="st2" d="M94.9,39.7c0-0.1,0-0.2,0-0.2h-0.1C94.9,39.5,94.9,39.6,94.9,39.7L94.9,39.7z"/>
		<path class="st2" d="M43.7,60.5c3.1,1.3,7.4,2.4,13.1,2.4c4.7,0,10.3-0.7,16.8-2.8c0.1,0,5.3-1.9,10.5-5.3
			c2.5-1.7,5.3-3.9,7.4-6.7c1.2-1.6,2.1-3.3,2.6-5.2c-0.4,1.2-0.9,2.3-1.6,3.3c-5.3,8.8-18.9,13.6-19,13.7
			c-14.5,4.4-24.2,2.7-29.8,0.4c-2.3-0.9-4.1-2-5.5-3c-0.1,0-0.2,0-0.3,0c0.4,0.3,0.9,0.7,1.4,1C40.6,59.1,42,59.8,43.7,60.5z"/>
		<path class="st2" d="M94.1,43.5c0.3-0.8,0.4-1.6,0.5-2.4c-0.1,0.6-0.3,1.2-0.5,1.8c-0.6,1.9-1.5,3.6-2.6,5.2
			C92.7,46.7,93.5,45.2,94.1,43.5z"/>
		<path class="st2" d="M38.1,57.3C38.1,57.3,38,57.3,38.1,57.3c0.4,0.3,0.9,0.7,1.4,1C38.9,58,38.5,57.6,38.1,57.3z"/>
		<path class="st2" d="M94.8,39.9L94.8,39.9c0.1-0.1,0.1-0.2,0.1-0.2h-0.1C94.8,39.8,94.8,39.8,94.8,39.9z"/>
		<path class="st2" d="M94.9,40.2c0-0.1,0-0.2,0-0.2h-0.1C94.8,40,94.8,40.1,94.9,40.2L94.9,40.2z"/>
		<path class="st2" d="M94.6,42.2c0.1-0.5,0.2-1.1,0.2-1.6c0,0.2-0.1,0.4-0.1,0.5c-0.1,0.8-0.3,1.6-0.5,2.4
			C94.3,43.1,94.4,42.7,94.6,42.2z"/>
		<path class="st2" d="M94.8,40.6c-0.1,0.6-0.1,1.1-0.2,1.6c0.1-0.3,0.2-0.7,0.2-1.1c0-0.2,0.1-0.5,0.1-0.7l0,0c0-0.1,0-0.2,0-0.2
			h-0.1C94.8,40.3,94.8,40.4,94.8,40.6z"/>
		<path class="st2" d="M94.8,40.4c0,0.3-0.1,0.5-0.1,0.7C94.8,40.9,94.8,40.7,94.8,40.4L94.8,40.4z"/>
		<path class="st2" d="M94.9,39.5c0-0.1,0-0.2,0-0.2h-0.1C94.8,39.3,94.8,39.4,94.9,39.5L94.9,39.5z"/>
		<path class="st2" d="M56.6,62.5c4.7,0,10.4-0.8,17.1-2.8c0.1,0,5.3-1.9,10.4-5.4c2.9-2,6.3-4.7,8.4-8.1c0.9-1.4,1.5-2.9,1.8-4.6
			c-0.3,1.1-0.7,2.1-1.2,3.1c-2,4-5.8,7.1-9.1,9.3c-5.2,3.4-10.4,5.3-10.4,5.3c-14.5,4.5-24.3,2.8-29.9,0.6
			c-2.2-0.9-3.9-1.8-5.2-2.8c-0.1,0-0.2,0-0.3,0c1.4,1,3.2,2,5.4,2.9C46.8,61.5,51.1,62.5,56.6,62.5z"/>
		<path class="st2" d="M94.2,42.9c0.2-0.8,0.4-1.5,0.5-2.4c-0.1,0.4-0.1,0.8-0.2,1.1c-0.3,1.6-1,3.1-1.8,4.6
			C93.3,45.2,93.8,44.1,94.2,42.9z"/>
		<path class="st2" d="M94.8,39.7L94.8,39.7c0.1-0.1,0.1-0.2,0.1-0.2h-0.1C94.8,39.5,94.8,39.6,94.8,39.7z"/>
		<path class="st2" d="M94.2,42.9c0.2-0.6,0.3-1.2,0.5-1.8c0.1-0.4,0.1-0.8,0.1-1.2l0,0c0-0.1,0-0.2,0-0.2h-0.1
			c0,0.3-0.1,0.6-0.1,0.9C94.6,41.4,94.4,42.2,94.2,42.9z"/>
		<path class="st2" d="M94.7,41.1c0-0.2,0.1-0.4,0.1-0.5s0-0.3,0-0.4l0,0c0-0.1,0-0.2,0-0.2l0,0C94.8,40.3,94.7,40.7,94.7,41.1z"/>
		<path class="st2" d="M94.8,40.2c0,0.1,0,0.3,0,0.4C94.8,40.4,94.8,40.3,94.8,40.2L94.8,40.2z"/>
		<path class="st2" d="M94.8,39.2c0-0.1,0-0.2,0-0.2h-0.1C94.8,39,94.8,39.1,94.8,39.2L94.8,39.2z"/>
		<path class="st2" d="M84.2,53.7C79.1,57.1,73.9,59,73.9,59c-14.6,4.6-24.3,3-30,0.8c-2-0.8-3.6-1.7-4.9-2.5c-0.1,0-0.2,0-0.2,0
			c1.3,0.9,3,1.8,5.1,2.7c3,1.2,7.2,2.2,12.6,2.2c4.8,0,10.6-0.8,17.4-2.9c0.1,0,5.3-1.9,10.4-5.4c3.2-2.2,6.9-5.2,8.9-9
			c0.6-1.2,1-2.4,1.3-3.7c-0.2,0.8-0.4,1.5-0.7,2.2C91.9,47.8,87.8,51.3,84.2,53.7z"/>
		<path class="st2" d="M94.5,41.7c0.1-0.5,0.2-1.1,0.2-1.7c-0.1,0.4-0.1,0.8-0.2,1.1c-0.2,1.3-0.7,2.5-1.3,3.7
			C93.8,43.8,94.2,42.8,94.5,41.7z"/>
		<path class="st2" d="M94.7,39.5L94.7,39.5c0.1-0.1,0.1-0.2,0.1-0.2h-0.1C94.8,39.3,94.7,39.4,94.7,39.5z"/>
		<path class="st2" d="M94.5,41.7c0.1-0.4,0.2-0.7,0.2-1.1c0-0.3,0.1-0.6,0.1-0.9l0,0c0-0.1,0-0.2,0-0.2h-0.1c0,0.2,0,0.4-0.1,0.6
			C94.7,40.6,94.6,41.1,94.5,41.7z"/>
		<path class="st2" d="M94.7,40.6c0-0.3,0.1-0.6,0.1-0.9l0,0C94.8,40,94.7,40.3,94.7,40.6z"/>
		<path class="st2" d="M43.9,59.7c3.6,1.4,7.7,2.1,12.1,2.1c0.1,0,0.2,0,0.3,0c5.4,0,11.4-1,17.7-3.1c0.1,0,5.3-2,10.4-5.4
			c3.5-2.3,7.5-5.8,9.4-9.9c0.4-1.1,0.8-2.2,0.9-3.4c-0.1,0.7-0.2,1.3-0.5,2c-0.1,0.2-0.1,0.3-0.2,0.5c0,0,0,0.1-0.1,0.2
			c-1.7,4.5-5.9,8.1-9.6,10.6C79.2,56.6,74,58.6,74,58.6C59.4,63.3,49.6,61.7,43.9,59.7c-1.8-0.8-3.3-1.6-4.6-2.4
			c-0.1,0-0.1,0-0.2,0C40.4,58.1,42,58.9,43.9,59.7z"/>
		<path class="st2" d="M94.8,39c0-0.1,0-0.2,0-0.2h-0.1C94.7,38.8,94.7,38.9,94.8,39L94.8,39z"/>
		<path class="st2" d="M94.6,39.9c-0.1,1.2-0.4,2.3-0.9,3.4c0.3-0.7,0.6-1.5,0.7-2.2c0.1-0.6,0.2-1.3,0.2-1.9l0,0c0-0.1,0-0.2,0-0.2
			h-0.1C94.7,39.3,94.7,39.6,94.6,39.9z"/>
		<path class="st2" d="M94.7,39.5L94.7,39.5c0-0.1,0-0.2,0-0.2l0,0c0,0.7-0.1,1.3-0.2,1.9c0.1-0.4,0.2-0.8,0.2-1.1
			C94.7,39.8,94.7,39.6,94.7,39.5z"/>
		<path class="st2" d="M94.7,40c0-0.2,0-0.4,0.1-0.6l0,0C94.7,39.6,94.7,39.8,94.7,40z"/>
		<path class="st2" d="M56.1,61.4L56.1,61.4c5.5,0,11.6-1.1,18.1-3.2c0.1,0,5.2-2,10.3-5.4c3-2,5.4-4.1,7.1-6.2
			c1.1-1.3,1.8-2.6,2.4-4c0,0,0-0.1,0.1-0.2c0.1-0.2,0.1-0.3,0.2-0.5c0.3-0.8,0.4-1.7,0.5-2.6c0,0.4-0.1,0.8-0.2,1.2
			c0,0.2-0.1,0.4-0.2,0.7l0,0c-1.3,4.9-5.9,8.9-9.8,11.5c-5.1,3.4-10.3,5.4-10.3,5.4c-14.6,4.7-24.5,3.2-30.2,1.1
			c-1.7-0.6-3.1-1.3-4.3-2c0,0-0.1,0-0.2,0c1.2,0.7,2.7,1.5,4.4,2.1C47.6,60.7,51.7,61.4,56.1,61.4z"/>
		<path class="st2" d="M94.7,38.7L94.7,38.7c0.1-0.1,0.1-0.2,0.1-0.2h-0.1c0,0.1,0,0.2,0,0.4C94.7,38.8,94.7,38.8,94.7,38.7z"/>
		<path class="st2" d="M94.7,38.8c0,0.2,0,0.3,0,0.5c-0.1,0.9-0.2,1.8-0.5,2.6c0.2-0.7,0.4-1.3,0.5-2C94.7,39.6,94.8,39.3,94.7,38.8
			L94.7,38.8C94.8,38.8,94.8,38.7,94.7,38.8L94.7,38.8C94.7,38.8,94.7,38.8,94.7,38.8z"/>
		<path class="st2" d="M94,42.5c0,0,0,0.1-0.1,0.2C93.9,42.6,94,42.5,94,42.5z"/>
		<path class="st2" d="M94.7,39c0,0.3,0,0.7-0.1,1C94.7,39.6,94.7,39.3,94.7,39L94.7,39z"/>
		<path class="st2" d="M84.5,52.3c-5.1,3.4-10.2,5.4-10.3,5.4C59.7,62.5,49.8,61.1,44,59c-1.5-0.5-2.8-1.2-4-1.8h-0.1
			c1.1,0.6,2.5,1.3,4.1,1.8c3.6,1.3,7.6,1.9,12,1.9c0.1,0,0.2,0,0.3,0c5.5,0,11.6-1.1,18.1-3.3C74.3,57.7,79.5,55.7,84.5,52.3
			c3-1.9,5.4-4,7-6.1c1.3-1.6,2.2-3.3,2.7-4.9l0,0c0.1-0.2,0.1-0.4,0.2-0.7c0.1-0.7,0.2-1.3,0.2-2l0,0c0-0.1,0-0.2,0-0.2h-0.1
			c0,0.3,0,0.6,0,0.9C94.2,44.7,89,49.3,84.5,52.3z"/>
		<path class="st2" d="M94.4,40.5c0.1-0.4,0.2-0.8,0.2-1.2c0-0.2,0-0.3,0-0.5c0-0.1,0-0.2,0-0.4l0,0C94.6,39.2,94.6,39.9,94.4,40.5z
			"/>
		<path class="st2" d="M94.3,41.2L94.3,41.2L94.3,41.2z"/>
		<path class="st2" d="M94.6,39.4c0-0.2,0-0.3,0-0.5C94.7,39,94.6,39.2,94.6,39.4z"/>
		<path class="st2" d="M44,58.8c3.5,1.2,7.5,1.9,11.7,1.9c0.2,0,0.3,0,0.5,0c5.6-0.1,11.7-1.2,18.1-3.4c0.1,0,5.2-2.1,10.3-5.4
			c3-2,5.3-4,7-6.1c1.8-2.2,2.8-4.4,2.9-6.6c0-0.3,0-0.6,0-0.9l0,0c0-0.1,0-0.2,0-0.2l0,0c0.2,5.8-5.3,10.7-9.9,13.8
			c-5,3.4-10.2,5.4-10.3,5.4C59.8,62.1,49.8,60.7,44,58.8c-1.4-0.5-2.6-1-3.6-1.6c0,0,0,0-0.1,0C41.4,57.7,42.6,58.3,44,58.8z"/>
		<path class="st2" d="M94.6,39.2c0-0.3,0-0.6,0-0.9l0,0C94.6,38.5,94.6,38.8,94.6,39.2z"/>
		<path class="st2" d="M44.1,58.5c3.5,1.2,7.3,1.8,11.5,1.8c0.3,0,0.5,0,0.8,0c5.6-0.1,11.7-1.3,18.1-3.5c0.1,0,5.2-2.1,10.2-5.5
			c2.9-2,5.3-4,6.9-6c2.1-2.5,3-5.1,2.9-7.5l0,0c0.1,2.5-0.9,5-2.9,7.5c-1.6,2-4,4-6.9,6c-5,3.4-10.2,5.4-10.2,5.5
			C59.9,61.7,49.9,60.4,44.1,58.5c-1.2-0.4-2.3-0.9-3.2-1.3l0,0C41.8,57.6,42.9,58,44.1,58.5z"/>
		<path class="st2" d="M35.3,57.3L35.3,57.3C35.5,57.3,35.5,57.2,35.3,57.3L35.3,57.3z"/>
		<path class="st1" d="M51.6,28.1c-4.8-3.4-9.6-5.3-9.7-5.3C27,18.1,17.4,19.6,12,21.7s-7.8,5.2-8.1,5.7c0.6-0.8,3.1-3.6,8.2-5.5
			c3.5-1.3,7.4-2,11.8-2c0,0,0,0,0.1,0c5.5,0,11.6,1.1,18.2,3.2c0,0,4.9,2,9.6,5.4c0.2,0.2,0.5,0.4,0.7,0.5c0.1,0,0.1,0,0.2-0.1
			C52.3,28.6,51.9,28.4,51.6,28.1z"/>
		<path class="st1" d="M49.3,24.1c-0.1-0.1-0.2-0.1-0.4-0.2C49.1,24,49.2,24.1,49.3,24.1z"/>
		<path class="st1" d="M50.2,24.7c-0.1,0-0.1-0.1-0.2-0.1C50.1,24.6,50.2,24.6,50.2,24.7z"/>
		<path class="st1" d="M48.4,23.6c-0.1-0.1-0.3-0.2-0.4-0.2C48.1,23.5,48.3,23.5,48.4,23.6z"/>
		<path class="st1" d="M41.4,21.6c-15.1-4.5-24.5-2.8-29.7-0.7c-2.5,1-4.3,2.3-5.5,3.3c1.3-1.1,3.1-2.3,5.5-3.3
			c5.3-2.2,14.8-3.8,29.9,0.8c0.1,0,5,1.9,9.9,5.3c0.6,0.4,1.3,0.9,1.9,1.4c0,0,0,0,0.1,0C48.1,24.1,41.5,21.7,41.4,21.6z"/>
		<path class="st1" d="M51.5,27.7c-4.8-3.4-9.7-5.3-9.8-5.3c-15-4.6-24.5-3-29.8-0.9c-4.1,1.6-6.4,3.8-7.4,5
			c1.1-1.2,3.5-3.3,7.5-4.9c5.4-2.1,15-3.6,30,1c0,0,4.9,2,9.7,5.3c0.4,0.3,0.8,0.5,1.1,0.8c0,0,0.1,0,0.2-0.1
			C52.5,28.4,52,28,51.5,27.7z"/>
		<path class="st1" d="M41.6,22c-15-4.6-24.5-3-29.8-0.8c-3.2,1.3-5.3,3-6.6,4.2c1.3-1.2,3.4-2.8,6.6-4.1c5.4-2.1,14.9-3.7,30,0.9
			c0,0,5,2,9.8,5.3c0.5,0.4,1,0.7,1.5,1.1h0.1C47.9,24.4,41.7,22,41.6,22z"/>
		<path class="st1" d="M58.9,34.2c0.2,0.3,0.3,0.5,0.5,0.8C59.2,34.7,59.1,34.4,58.9,34.2L58.9,34.2z"/>
		<path class="st1" d="M41.2,20.6c0.1,0,7.5,2.7,13.3,7.6l0,0c-5.9-5-13.5-7.7-13.6-7.7c-15.1-4.3-24.2-2.6-29.4-0.4
			C16.8,17.9,26.1,16.2,41.2,20.6z"/>
		<path class="st1" d="M47.5,23.1c-0.1-0.1-0.3-0.1-0.4-0.2C47.2,23,47.4,23,47.5,23.1z"/>
		<path class="st1" d="M16.8,18.2c0.2,0,0.3-0.1,0.5-0.1C17.1,18.1,17,18.1,16.8,18.2z"/>
		<path class="st1" d="M58.6,34.3c0.5,0.7,0.9,1.4,1.3,2.2C59.6,35.7,59.2,35,58.6,34.3C58.7,34.3,58.7,34.3,58.6,34.3z"/>
		<path class="st1" d="M46.6,22.6c-0.1,0-0.2-0.1-0.3-0.1C46.4,22.5,46.5,22.6,46.6,22.6z"/>
		<path class="st1" d="M17.5,18c5.4-1,13.1-0.8,23.5,2.1c-0.1,0-0.2-0.1-0.2-0.1C30.4,17.2,22.8,17.1,17.5,18z"/>
		<path class="st1" d="M41.3,21c0.1,0,7.1,2.6,12.8,7.3l0,0c-5.8-4.8-13-7.4-13.1-7.5c-15.2-4.4-24.5-2.6-29.6-0.4
			c-0.8,0.4-1.6,0.8-2.2,1.1c0.7-0.4,1.4-0.8,2.2-1.1C16.7,18.2,26.1,16.5,41.3,21z"/>
		<path class="st1" d="M45.7,22.2L45.7,22.2C45.6,22.1,45.7,22.1,45.7,22.2z"/>
		<path class="st1" d="M58.4,34.3c0.8,1.1,1.5,2.2,1.9,3.5C59.9,36.6,59.2,35.4,58.4,34.3L58.4,34.3z"/>
		<path class="st1" d="M58.2,35.4c1.6,2.2,2.5,4.4,2.7,6.6c-0.2-2.7-1.4-5.3-3.1-7.4c-0.1,0-0.1,0-0.2,0
			C57.8,34.8,58,35.1,58.2,35.4z"/>
		<path class="st1" d="M58.1,34.4c1.1,1.5,2,3.1,2.5,4.8C60.1,37.5,59.3,35.9,58.1,34.4C58.2,34.4,58.2,34.4,58.1,34.4z"/>
		<path class="st1" d="M58.2,35c1.4,1.9,2.2,3.8,2.6,5.6c-0.4-2.2-1.4-4.3-2.8-6.2h-0.1C58,34.7,58.1,34.8,58.2,35z"/>
		<path class="st1" d="M41.3,21.2c-15.2-4.4-24.5-2.7-29.7-0.5c-1.6,0.7-3,1.5-4,2.3c1.1-0.8,2.4-1.5,4-2.2
			c5.3-2.2,14.7-3.9,29.9,0.6c0.1,0,5.1,1.9,10,5.3c0.8,0.5,1.6,1.1,2.3,1.8l0,0C48.3,23.8,41.4,21.3,41.3,21.2z"/>
		<path class="st2" d="M39.6,16.4c0.2,0,11.6,3.4,18.2,10.8c0.1,0,0.2,0,0.3-0.1C51.5,19.4,39.7,16,39.5,16
			c-31-7.3-35.9,7.7-35.9,7.9h0.1C4.4,22.1,10.7,9.5,39.6,16.4z"/>
		<path class="st2" d="M61.7,33.5c0,0-0.1,0-0.2,0c0.4,1.3,0.7,2.6,0.7,4h0.1C62.3,36.1,62.1,34.7,61.7,33.5z"/>
		<path class="st2" d="M39.8,16.8c0.2,0,10.5,3.1,17,9.7c-6.6-6.9-17.3-9.9-17.5-10C22,12.4,13.1,15.3,8.5,18.6
			C13.4,15.4,22.6,12.6,39.8,16.8z"/>
		<path class="st2" d="M3.7,23.9c0,0.1-0.1,0.2-0.1,0.2h0.1C3.7,24.1,3.7,24,3.7,23.9L3.7,23.9z"/>
		<path class="st2" d="M62.2,37.8L62.2,37.8c0.1-0.1,0.1-0.2,0.1-0.3h-0.1C62.2,37.6,62.2,37.7,62.2,37.8z"/>
		<path class="st2" d="M8.5,18.7c4.6-3.3,13.5-6.2,30.8-2.1c0.2,0,10.9,3.1,17.5,10c0.2,0.2,0.4,0.5,0.7,0.7c0.1,0,0.2-0.1,0.3-0.1
			c-6.5-7.4-18-10.7-18.2-10.8c-28.9-6.9-35.2,5.8-36,7.5h0.1C4.2,23,5.5,20.8,8.5,18.7z"/>
		<path class="st2" d="M61.4,33.5c0.4,1.2,0.7,2.5,0.8,3.9h0.1c-0.1-1.4-0.3-2.7-0.7-4C61.5,33.5,61.4,33.5,61.4,33.5z"/>
		<path class="st2" d="M3.7,24.1c0,0.1-0.1,0.2-0.1,0.2h0.1C3.7,24.3,3.7,24.2,3.7,24.1L3.7,24.1z"/>
		<path class="st2" d="M39.9,17.2c0.2,0,10.7,3.3,17.2,10.1l0,0C50.7,20.2,39.6,17,39.5,16.9c-17.8-4.3-26.9-1-31.4,2.4
			C12.9,15.9,22.3,12.8,39.9,17.2z"/>
		<path class="st2" d="M62.1,38.1L62.1,38.1c0.1-0.1,0.1-0.2,0.1-0.3h-0.1C62.1,37.9,62.1,38,62.1,38.1z"/>
		<path class="st2" d="M62.1,37.5c0,0.1,0,0.2,0,0.3h0.1C62.2,37.7,62.2,37.6,62.1,37.5L62.1,37.5z"/>
		<path class="st2" d="M3.9,23.9L3.9,23.9C3.8,24,3.7,24,3.7,24.1h0.1C3.8,24.1,3.8,24,3.9,23.9z"/>
		<path class="st2" d="M5.3,21.9c0.7-0.8,1.6-1.7,2.8-2.5c4.5-3.4,13.5-6.6,31.3-2.4c0.2,0,11.3,3.3,17.7,10.4c0.1,0,0.2,0,0.3-0.1
			c-0.2-0.2-0.4-0.5-0.6-0.7c-6.6-6.6-16.9-9.7-17-9.7c-17.1-4.2-26.4-1.4-31.2,1.9C7,19.8,6,20.9,5.3,21.9z"/>
		<path class="st2" d="M62.1,37.5L62.1,37.5c0-1.4-0.3-2.7-0.7-3.9c0,0-0.1,0-0.2,0C61.7,34.8,62,36.1,62.1,37.5z"/>
		<path class="st2" d="M8.5,18.7c-3.1,2.1-4.4,4.3-4.8,5.2h0.1c0.3-0.5,0.7-1.2,1.5-2.1C6,20.9,7,19.8,8.5,18.7z"/>
		<path class="st2" d="M57.5,27.2c-0.2-0.2-0.4-0.5-0.7-0.7C57,26.8,57.3,27,57.5,27.2L57.5,27.2z"/>
		<path class="st2" d="M39.6,17.3C21.1,12.8,12,16.5,7.6,20c4.6-3.5,14.1-7,32.5-2.4c0.2,0,10.3,3.2,16.8,9.8c0,0,0,0,0.1,0
			C50.5,20.5,39.8,17.4,39.6,17.3z"/>
		<path class="st2" d="M3.7,24.3c0,0.1-0.1,0.2-0.1,0.2h0.1C3.7,24.5,3.8,24.4,3.7,24.3L3.7,24.3z"/>
		<path class="st2" d="M62,38.4L62,38.4c0.1-0.1,0.1-0.2,0.1-0.3H62C62,38.2,62,38.3,62,38.4z"/>
		<path class="st2" d="M5.2,22.3c0.6-0.7,1.4-1.5,2.5-2.3c4.3-3.5,13.5-7.2,32-2.7c0.2,0,10.8,3.2,17.3,10.1c0.1,0,0.2,0,0.3-0.1
			c-6.5-6.8-17.1-10-17.2-10.1c-17.7-4.4-27-1.3-31.8,2.1C6.7,20.4,5.8,21.5,5.2,22.3z"/>
		<path class="st2" d="M62,37.8c0,0.1,0,0.2,0,0.3h0.1C62.1,38,62.1,37.9,62,37.8L62,37.8z"/>
		<path class="st2" d="M3.9,24.2L3.9,24.2c-0.1,0.1-0.2,0.1-0.2,0.2h0.1C3.8,24.3,3.9,24.2,3.9,24.2z"/>
		<path class="st2" d="M61.4,34.7c-0.1-0.4-0.2-0.7-0.3-1.1H61C61.2,34,61.3,34.3,61.4,34.7z"/>
		<path class="st2" d="M3.9,23.9c0,0.1-0.1,0.1-0.1,0.2h0.1c0,0,0.1,0,0.1-0.1L3.9,23.9z"/>
		<path class="st2" d="M62,37.8L62,37.8c0.1-0.1,0.1-0.2,0.1-0.3H62C62,37.6,62,37.7,62,37.8z"/>
		<path class="st2" d="M8.1,19.3c-1.2,0.9-2.1,1.8-2.8,2.5c-0.4,0.5-0.7,1-0.8,1.4c0.2-0.3,0.4-0.6,0.7-0.9
			C5.8,21.5,6.7,20.4,8.1,19.3z"/>
		<path class="st2" d="M4.5,23.2c0.2-0.4,0.5-0.9,0.8-1.4c-0.7,0.9-1.2,1.6-1.5,2.1L4,24C4.1,23.8,4.3,23.5,4.5,23.2z"/>
		<path class="st2" d="M61.1,33.6c0.1,0.3,0.2,0.7,0.3,1.1c0.3,0.9,0.5,1.8,0.6,2.8h0.1C62,36.1,61.7,34.8,61.1,33.6
			C61.2,33.6,61.2,33.6,61.1,33.6z"/>
		<path class="st2" d="M3.7,24.5c0,0.1-0.1,0.2-0.1,0.2h0.1C3.7,24.7,3.8,24.6,3.7,24.5L3.7,24.5z"/>
		<path class="st2" d="M62,38.7L62,38.7c0.1-0.1,0.1-0.2,0.1-0.3H62C61.9,38.5,62,38.6,62,38.7z"/>
		<path class="st2" d="M39.8,17.7c-18-4.5-27.2-1.2-31.7,2.3c0.7-0.5,1.5-1,2.4-1.5c4.9-2.5,14-4.5,29.7-0.4c0.2,0,9.9,3.1,16.3,9.4
			h0.1C50.2,20.9,40,17.8,39.8,17.7z"/>
		<path class="st2" d="M60.9,33.7L60.9,33.7L60.9,33.7C60.8,33.7,60.9,33.7,60.9,33.7z"/>
		<path class="st2" d="M61.9,38.1c0,0.1,0,0.2,0,0.3H62C62,38.3,62,38.2,61.9,38.1L61.9,38.1z"/>
		<path class="st2" d="M8.1,20c4.5-3.4,13.7-6.7,31.7-2.3c0.2,0,10.4,3.2,16.8,9.8c0.1,0,0.2,0,0.2-0.1c-6.4-6.6-16.6-9.7-16.8-9.8
			C21.7,13,12.3,16.5,7.6,20c-1.1,0.9-1.9,1.8-2.4,2.5C5.9,21.7,6.8,20.9,8.1,20z"/>
		<path class="st2" d="M3.9,24.4L3.9,24.4c-0.1,0.1-0.2,0.1-0.2,0.2h0.1C3.8,24.5,3.9,24.5,3.9,24.4z"/>
		<path class="st2" d="M3.9,24.2c0,0.1-0.1,0.1-0.1,0.2h0.1C3.9,24.3,4,24.3,3.9,24.2L3.9,24.2z"/>
		<path class="st2" d="M60.9,33.7c0.2,0.5,0.4,1,0.6,1.6c-0.1-0.6-0.3-1.1-0.4-1.6C61,33.7,60.9,33.7,60.9,33.7
			C60.8,33.7,60.9,33.7,60.9,33.7z"/>
		<path class="st2" d="M7.7,20c-1.1,0.8-1.9,1.6-2.5,2.3c-0.3,0.5-0.6,0.9-0.7,1.2c0.2-0.3,0.5-0.6,0.8-1C5.8,21.8,6.6,20.9,7.7,20z
			"/>
		<path class="st2" d="M61.9,38.1L61.9,38.1C62,38,62,37.9,62,37.8h-0.1C61.9,37.9,61.9,38,61.9,38.1z"/>
		<path class="st2" d="M4.1,24L4.1,24c-0.1,0.1-0.2,0.1-0.2,0.2H4C4.1,24.1,4.1,24.1,4.1,24z"/>
		<path class="st2" d="M61.9,37.5c0,0.1,0,0.2,0,0.3H62C62,37.7,62,37.6,61.9,37.5L61.9,37.5z"/>
		<path class="st2" d="M4.5,23.2c-0.2,0.3-0.3,0.6-0.3,0.7c0.1-0.1,0.2-0.3,0.3-0.4c0.2-0.3,0.4-0.7,0.7-1.2
			C4.9,22.7,4.7,23,4.5,23.2z"/>
		<path class="st2" d="M61,33.7c0.2,0.5,0.3,1.1,0.4,1.6c0.1,0.3,0.2,0.6,0.2,1c-0.1-0.5-0.2-1.1-0.3-1.6C61.3,34.3,61.2,34,61,33.7
			C61,33.6,61,33.6,61,33.7z"/>
		<path class="st2" d="M4.5,23.2C4.3,23.5,4.1,23.8,4,24h0.1c0,0,0,0,0-0.1C4.2,23.8,4.3,23.6,4.5,23.2z"/>
		<path class="st2" d="M61.9,37.5L61.9,37.5c0-1-0.2-1.9-0.5-2.8c0.1,0.5,0.2,1,0.3,1.6C61.8,36.7,61.8,37.1,61.9,37.5z"/>
		<path class="st2" d="M40,18.1c-18.7-4.8-28.1-1-32.4,2.6c0.9-0.6,1.9-1.3,3.1-1.9c4.9-2.4,14.1-4.4,29.8-0.3
			c0.2,0,9.5,3.1,15.8,9.1h0.1C50,21.2,40.1,18.2,40,18.1z"/>
		<path class="st2" d="M61.9,39L61.9,39c0.1-0.1,0.1-0.2,0.1-0.3h-0.1C61.9,38.8,61.9,38.9,61.9,39z"/>
		<path class="st2" d="M3.7,24.8c0,0.1-0.1,0.2-0.1,0.2h0.1C3.7,25,3.8,24.9,3.7,24.8L3.7,24.8z"/>
		<path class="st2" d="M3.9,24.6L3.9,24.6c-0.1,0.1-0.2,0.1-0.2,0.2h0.1C3.8,24.7,3.9,24.7,3.9,24.6z"/>
		<path class="st2" d="M61,34.4c-0.1-0.2-0.2-0.5-0.2-0.7l0,0C60.8,34,60.9,34.2,61,34.4z"/>
		<path class="st2" d="M7.5,20.7c4.4-3.5,13.7-7.3,32.4-2.6c0.2,0,10,3.1,16.4,9.5c0.1,0,0.1,0,0.2-0.1c-6.4-6.3-16.1-9.4-16.3-9.4
			c-15.8-4.1-24.9-2-29.7,0.4c-0.9,0.5-1.7,1-2.4,1.5c-1.5,1.1-2.5,2.3-3.1,3.2C5.6,22.4,6.4,21.6,7.5,20.7z"/>
		<path class="st2" d="M61.8,38.4c0,0.1,0,0.2,0,0.3H62C62,38.6,61.9,38.5,61.8,38.4L61.8,38.4z"/>
		<path class="st2" d="M61,34.4c0,0.1,0,0.1,0.1,0.2C61,34.5,61,34.5,61,34.4z"/>
		<path class="st2" d="M60.8,33.7L60.8,33.7c0,0.2,0.1,0.5,0.1,0.7l0,0c0,0.1,0,0.1,0.1,0.2c0.2,0.4,0.3,0.9,0.4,1.3
			C61.3,35.2,61.1,34.4,60.8,33.7C60.9,33.7,60.8,33.7,60.8,33.7z"/>
		<path class="st2" d="M8.1,20c-1.2,0.9-2.2,1.8-2.8,2.5c-0.5,0.6-0.8,1.2-0.9,1.5c0.2-0.3,0.4-0.5,0.6-0.9
			C5.6,22.3,6.5,21.1,8.1,20z"/>
		<path class="st2" d="M61.8,38.4L61.8,38.4c0.1-0.1,0.1-0.2,0.1-0.3h-0.1C61.8,38.2,61.8,38.3,61.8,38.4z"/>
		<path class="st2" d="M3.9,24.4c0,0.1-0.1,0.1-0.1,0.2h0.1C4,24.6,4,24.5,3.9,24.4L3.9,24.4z"/>
		<path class="st2" d="M61.8,37.8c0,0.1,0,0.2,0,0.3h0.1C61.9,38,61.9,37.9,61.8,37.8L61.8,37.8z"/>
		<path class="st2" d="M61.4,35.9c0.1,0.3,0.1,0.5,0.2,0.8c0-0.5-0.1-1-0.2-1.4c-0.2-0.5-0.3-1.1-0.6-1.6
			C61.1,34.4,61.3,35.2,61.4,35.9z"/>
		<path class="st2" d="M4.3,24c0.2-0.3,0.5-0.9,0.9-1.5c-0.3,0.4-0.6,0.7-0.8,1c-0.2,0.4-0.3,0.7-0.3,0.7H4c0,0.1-0.1,0.1-0.1,0.2H4
			C4.1,24.3,4.2,24.2,4.3,24z"/>
		<path class="st2" d="M4.1,24L4.1,24c0,0.1-0.1,0.1-0.1,0.2h0.1c0,0,0.1-0.3,0.3-0.7C4.3,23.7,4.2,23.8,4.1,24
			C4.2,24,4.2,24,4.1,24z"/>
		<path class="st2" d="M61.8,37.8L61.8,37.8c0.1-0.1,0.1-0.2,0.1-0.3h-0.1C61.8,37.6,61.8,37.7,61.8,37.8z"/>
		<path class="st2" d="M61.8,37.5c0-0.4,0-0.8-0.1-1.2c-0.1-0.3-0.2-0.6-0.2-1c0.1,0.5,0.2,0.9,0.2,1.4C61.7,37,61.7,37.2,61.8,37.5
			z"/>
		<path class="st2" d="M4.2,24C4.2,24,4.1,24,4.2,24L4.2,24L4.2,24z"/>
		<path class="st2" d="M61.8,37.5L61.8,37.5L61.8,37.5c0.1-0.4,0-0.8-0.1-1.2C61.7,36.7,61.7,37.1,61.8,37.5z"/>
		<path class="st2" d="M40.6,18.9c0.1,0,9.1,3,15.3,8.8c0.1,0,0.1,0,0.2-0.1c-6.3-6.1-15.8-9.1-15.9-9.2c-19.6-5.1-29-0.7-33.2,3
			c1-0.8,2.3-1.7,3.8-2.4C15.8,16.7,24.9,14.7,40.6,18.9z"/>
		<path class="st2" d="M3.7,25c0,0.1-0.1,0.2-0.1,0.2h0.1C3.7,25.2,3.8,25.1,3.7,25L3.7,25z"/>
		<path class="st2" d="M61.8,39.3L61.8,39.3c0.1-0.1,0.1-0.2,0.1-0.3h-0.1C61.8,39.1,61.8,39.2,61.8,39.3z"/>
		<path class="st2" d="M61.8,38.7c0,0.1,0,0.2,0,0.3h0.1C61.9,38.9,61.9,38.8,61.8,38.7L61.8,38.7z"/>
		<path class="st2" d="M40.1,18.5c0.1,0,9.6,3,15.9,9.2c0,0,0.1,0,0.2,0c-6.3-6.1-15.6-9.1-15.8-9.1c-15.7-4.1-24.9-2.1-29.8,0.3
			c-1.2,0.6-2.3,1.3-3.1,1.9c-1.4,1.1-2.3,2.2-2.8,3c0.5-0.6,1.2-1.4,2.2-2.2C11.1,17.8,20.5,13.4,40.1,18.5z"/>
		<path class="st2" d="M4,24.8L4,24.8c-0.1,0.1-0.2,0.1-0.2,0.2h0.1C3.9,25,3.9,24.9,4,24.8z"/>
		<path class="st2" d="M61.1,35.3c-0.1-0.5-0.3-1-0.5-1.5h-0.1C60.7,34.3,60.9,34.8,61.1,35.3z"/>
		<path class="st2" d="M61.8,38.7L61.8,38.7c0.1-0.1,0.1-0.2,0.1-0.3h-0.1C61.8,38.5,61.8,38.6,61.8,38.7z"/>
		<path class="st2" d="M7.5,20.7c-1.2,0.9-2,1.7-2.6,2.5c-0.4,0.6-0.7,1.1-0.8,1.3c0.2-0.2,0.3-0.5,0.6-0.8
			C5.3,22.9,6.2,21.8,7.5,20.7z"/>
		<path class="st2" d="M61,34.4L61,34.4c-0.1-0.3-0.2-0.5-0.3-0.7h-0.1c0.2,0.5,0.4,1,0.5,1.5c0.1,0.4,0.3,0.8,0.4,1.3
			c-0.1-0.7-0.2-1.3-0.4-2C61,34.6,61,34.5,61,34.4z"/>
		<path class="st2" d="M3.9,24.6c0,0.1-0.1,0.1-0.1,0.2h0.1C3.9,24.7,4,24.7,3.9,24.6L3.9,24.6z"/>
		<path class="st2" d="M4.2,24.5c0.1-0.2,0.4-0.7,0.8-1.3c-0.3,0.3-0.5,0.6-0.6,0.9C4.2,24.3,4.1,24.5,4.2,24.5L4,24.4
			c0,0.1-0.1,0.1-0.1,0.2H4C4.1,24.6,4.1,24.6,4.2,24.5z"/>
		<path class="st2" d="M61.4,36.6c0.1,0.2,0.1,0.5,0.2,0.7c0-0.5-0.1-0.9-0.2-1.4c-0.1-0.4-0.3-0.9-0.4-1.3
			C61.2,35.3,61.3,35.9,61.4,36.6z"/>
		<path class="st2" d="M61,34.4L61,34.4L61,34.4z"/>
		<path class="st2" d="M61.7,38.1c0,0.1,0,0.2,0,0.3h0.1C61.8,38.3,61.8,38.2,61.7,38.1L61.7,38.1z"/>
		<path class="st2" d="M61.6,36.7c0-0.3-0.1-0.5-0.2-0.8c0.1,0.5,0.1,0.9,0.2,1.4c0,0.3,0.1,0.5,0.1,0.8h0.1c0-0.1,0-0.2,0-0.3h-0.1
			C61.7,37.4,61.7,37.1,61.6,36.7z"/>
		<path class="st2" d="M4.1,24.5c0,0,0.1-0.2,0.2-0.4C4.2,24.2,4.1,24.3,4.1,24.5L4.1,24.5z"/>
		<path class="st2" d="M61.8,37.5L61.8,37.5c0-0.3-0.1-0.5-0.1-0.8c0,0.3,0.1,0.7,0.1,1.1h0.1C61.8,37.7,61.8,37.6,61.8,37.5
			L61.8,37.5z"/>
		<path class="st2" d="M61.8,37.5L61.8,37.5L61.8,37.5z"/>
		<path class="st2" d="M40.7,19.3c0.1,0,8.6,2.9,14.8,8.5c0.1,0,0.1,0,0.2-0.1c-6.2-5.9-15.3-8.8-15.5-8.9
			c-20.6-5.4-30-0.3-33.9,3.4c1.1-1,2.6-2,4.5-2.9C15.9,17,25.2,15.1,40.7,19.3z"/>
		<path class="st2" d="M3.7,25.2c0,0.1-0.1,0.2-0.1,0.2h0.1C3.7,25.4,3.8,25.3,3.7,25.2L3.7,25.2z"/>
		<path class="st2" d="M61.7,39.6L61.7,39.6c0.1-0.1,0.1-0.2,0.1-0.3h-0.1C61.7,39.4,61.7,39.5,61.7,39.6z"/>
		<path class="st2" d="M40.3,18.9c0.1,0,9.2,3,15.5,8.9h0.1C49.7,22,40.7,19,40.6,19c-15.6-4.2-24.8-2.2-29.8,0.2
			C9.2,19.8,8,20.7,7,21.5c-1.3,1.1-2,2.1-2.4,2.8c0.4-0.6,1-1.3,1.9-2C10.3,18.6,19.7,13.5,40.3,18.9z"/>
		<path class="st2" d="M4,25.1L4,25.1c-0.1,0.1-0.2,0.1-0.2,0.2h0.1C3.9,25.2,3.9,25.1,4,25.1z"/>
		<path class="st2" d="M60.3,33.8c0.3,0.7,0.6,1.4,0.9,2.1c-0.2-0.7-0.4-1.5-0.7-2.2C60.4,33.8,60.3,33.8,60.3,33.8z"/>
		<path class="st2" d="M61.7,39c0,0.1,0,0.2,0,0.3h0.1C61.8,39.2,61.8,39.1,61.7,39L61.7,39z"/>
		<path class="st2" d="M60.5,33.8C60.5,33.8,60.4,33.8,60.5,33.8c0.2,0.7,0.5,1.4,0.7,2.2c0.1,0.4,0.2,0.8,0.3,1.3
			c-0.1-0.7-0.2-1.3-0.4-1.9C60.9,34.8,60.7,34.3,60.5,33.8z"/>
		<path class="st2" d="M61.7,39L61.7,39c0.1-0.1,0.1-0.2,0.1-0.3h-0.1C61.7,38.8,61.7,38.9,61.7,39z"/>
		<path class="st2" d="M7,21.5c-1,0.8-1.7,1.6-2.2,2.2c-0.5,0.7-0.7,1.1-0.7,1.2H4C4,25,3.9,25,3.9,25.1H4c0.1-0.2,0.3-0.5,0.5-0.8
			C4.9,23.6,5.7,22.6,7,21.5z"/>
		<path class="st2" d="M61.6,38.4c0,0.1,0,0.2,0,0.3h0.1C61.7,38.6,61.7,38.5,61.6,38.4L61.6,38.4z"/>
		<path class="st2" d="M4.7,23.7c-0.2,0.3-0.4,0.6-0.6,0.8c0,0.1-0.1,0.2-0.1,0.2l0,0v0.1h0.1C4.1,24.9,4.3,24.4,4.7,23.7z"/>
		<path class="st2" d="M61.5,37.2c0,0.2,0.1,0.5,0.1,0.7c0-0.5-0.1-0.9-0.1-1.3c-0.1-0.4-0.2-0.9-0.4-1.3
			C61.2,35.9,61.4,36.5,61.5,37.2z"/>
		<path class="st2" d="M61.6,37.3c0-0.3-0.1-0.5-0.2-0.7c0.1,0.4,0.1,0.9,0.1,1.3c0,0.2,0,0.3,0.1,0.5h0.1c0-0.1,0-0.2,0-0.3h-0.1
			C61.7,37.8,61.6,37.5,61.6,37.3z"/>
		<path class="st2" d="M4.1,24.7c0,0,0-0.1,0.1-0.2C4.1,24.5,4.1,24.6,4.1,24.7L4.1,24.7z"/>
		<path class="st2" d="M61.7,38.1L61.7,38.1c0-0.3,0-0.5-0.1-0.8C61.6,37.5,61.7,37.8,61.7,38.1z"/>
		<path class="st2" d="M61.7,39.9L61.7,39.9c0.1-0.1,0.1-0.2,0.1-0.3h-0.1C61.6,39.7,61.7,39.8,61.7,39.9z"/>
		<path class="st2" d="M40.5,19.3C25,15.1,15.9,17.1,11,19.4c-2.7,1.3-4.4,2.8-5.5,4c1.2-1.2,2.9-2.6,5.6-3.8
			c5.1-2.3,14.3-4.2,29.8,0.1c0.1,0,8.3,2.9,14.3,8.2c0.1,0,0.2,0,0.2-0.1C49.3,22.2,40.6,19.3,40.5,19.3z"/>
		<path class="st2" d="M60,33.9c0.1,0.1,0.1,0.3,0.2,0.4C60.2,34.2,60.1,34,60,33.9C60.1,33.9,60.1,33.9,60,33.9z"/>
		<path class="st2" d="M3.8,25.4c0,0.1-0.1,0.2-0.1,0.2h0.1C3.8,25.6,3.9,25.5,3.8,25.4L3.8,25.4z"/>
		<path class="st2" d="M61.6,39.3c0,0.1,0,0.2,0,0.3h0.1C61.7,39.5,61.7,39.4,61.6,39.3L61.6,39.3z"/>
		<path class="st2" d="M61.2,36.8L61.2,36.8L61.2,36.8z"/>
		<path class="st2" d="M11,19.4c4.9-2.4,14-4.3,29.5-0.1c0.1,0,8.8,2.9,15,8.6h0.1c-6.2-5.6-14.7-8.5-14.8-8.5
			C25.2,15.1,15.9,17,11,19.4c-2,0.9-3.5,1.9-4.6,2.9c-1.1,1.1-1.8,2-2.1,2.6C4.6,24.5,5,24,5.5,23.4C6.6,22.2,8.3,20.7,11,19.4z"/>
		<path class="st2" d="M4,25.3L4,25.3c-0.1,0.1-0.2,0.1-0.2,0.2h0.1C3.9,25.4,3.9,25.4,4,25.3z"/>
		<path class="st2" d="M60.3,34.3c0.4,0.7,0.7,1.5,0.9,2.3c-0.2-1-0.5-1.9-0.9-2.8c0,0-0.1,0-0.2,0C60.1,34,60.2,34.2,60.3,34.3z"/>
		<path class="st2" d="M60.3,33.8L60.3,33.8c0.4,0.9,0.7,1.8,0.9,2.8c0,0,0,0.1,0,0.2c0,0,0,0,0,0.1c0.1,0.3,0.2,0.6,0.2,1
			c-0.1-0.6-0.2-1.2-0.3-1.8C60.9,35.2,60.6,34.5,60.3,33.8z"/>
		<path class="st2" d="M61.6,39.3L61.6,39.3c0.1-0.1,0.1-0.2,0.1-0.3h-0.1C61.6,39.1,61.6,39.2,61.6,39.3z"/>
		<path class="st2" d="M6.4,22.3c-0.8,0.8-1.5,1.5-1.9,2C4.2,24.8,4,25.1,4,25.1H3.9c0,0.1-0.1,0.1-0.1,0.2h0.1
			C4,25.2,4.1,25,4.2,24.8C4.6,24.3,5.3,23.4,6.4,22.3z"/>
		<path class="st2" d="M4.5,24.3c-0.2,0.3-0.4,0.6-0.5,0.8h0.1C4.1,25.1,4.2,24.8,4.5,24.3z"/>
		<path class="st2" d="M61.5,37.2c-0.1-0.4-0.2-0.8-0.3-1.3c0.2,0.6,0.3,1.2,0.3,1.8c0,0.2,0.1,0.5,0.1,0.7
			C61.5,38.1,61.5,37.6,61.5,37.2z"/>
		<path class="st2" d="M61.6,38.7c0,0.1,0,0.2,0,0.3h0.1C61.7,38.9,61.7,38.8,61.6,38.7L61.6,38.7z"/>
		<path class="st2" d="M61.6,37.9c0-0.2-0.1-0.5-0.1-0.7c0,0.4,0.1,0.9,0.1,1.3c0,0,0,0.1,0,0.2h0.1c0-0.1,0-0.2,0-0.3l0,0
			C61.6,38.2,61.6,38.1,61.6,37.9z"/>
		<path class="st2" d="M61.6,38.4L61.6,38.4c0-0.2,0-0.3,0-0.5C61.6,38.1,61.6,38.2,61.6,38.4z"/>
		<path class="st2" d="M3.8,25.6c0,0.1-0.1,0.1-0.1,0.2h0.1C3.8,25.8,3.9,25.7,3.8,25.6L3.8,25.6z"/>
		<path class="st2" d="M60.6,35.5c-0.2-0.5-0.4-1-0.7-1.5c0,0,0,0-0.1,0C60.1,34.4,60.3,34.9,60.6,35.5z"/>
		<path class="st2" d="M17.5,18c5.4-1,12.9-0.9,23.3,2c0,0,0.1,0,0.2,0.1l0,0c0.1,0,1.9,0.7,4.5,2h0.1c0.2,0.1,0.4,0.2,0.6,0.3
			c0.1,0,0.2,0.1,0.3,0.1c0.2,0.1,0.3,0.2,0.5,0.3c0.1,0.1,0.3,0.1,0.4,0.2c0.2,0.1,0.3,0.2,0.5,0.3c0.1,0.1,0.3,0.2,0.4,0.2
			c0.2,0.1,0.4,0.2,0.5,0.3c0.1,0.1,0.2,0.1,0.4,0.2s0.5,0.3,0.7,0.4c0.1,0,0.1,0.1,0.2,0.1c1.6,1,3.2,2.1,4.6,3.4
			c0.1,0,0.2-0.1,0.3-0.1c-6.1-5.4-14.4-8.3-14.5-8.3C17.2,13.1,7.9,20.5,5,24c1.2-1.3,3.1-2.9,6.1-4.3c1.5-0.7,3.4-1.3,5.6-1.7
			c0.2,0,0.3-0.1,0.5-0.1C17.3,18.1,17.4,18,17.5,18z"/>
		<path class="st2" d="M61.6,40.2L61.6,40.2c0.1-0.1,0.1-0.2,0.1-0.3h-0.1C61.6,40,61.6,40.1,61.6,40.2z"/>
		<path class="st2" d="M60,33.9c0,0-0.1,0-0.2,0c0.3,0.5,0.5,1,0.7,1.5c0.3,0.7,0.5,1.3,0.7,2c-0.2-1.1-0.5-2.2-1-3.2
			C60.2,34.2,60.1,34,60,33.9z"/>
		<path class="st2" d="M4,25.5l-0.1-0.1c0,0.1-0.1,0.1-0.1,0.2l0.1,0.1C3.9,25.6,4,25.6,4,25.5z"/>
		<path class="st2" d="M61.5,39.6c0,0.1,0,0.2,0,0.3h0.1C61.6,39.8,61.6,39.7,61.5,39.6L61.5,39.6z"/>
		<path class="st2" d="M40.6,19.7c0.1,0,8.5,2.9,14.5,8.3c0,0,0,0,0.1,0c-6-5.4-14.2-8.2-14.3-8.2c-15.5-4.3-24.8-2.4-29.8-0.1
			c-2.6,1.2-4.4,2.6-5.6,3.8c-0.9,1-1.3,1.8-1.4,2c0.2-0.3,0.6-0.8,1.1-1.3C8,20.7,17.3,13.3,40.6,19.7z"/>
		<path class="st2" d="M5.5,23.4c-0.5,0.5-0.9,1-1.2,1.4C4.1,25.1,4,25.3,4,25.3l0,0c0,0.1-0.1,0.1-0.1,0.2H4c0,0,0-0.1,0.1-0.1
			C4.2,25.2,4.6,24.4,5.5,23.4z"/>
		<path class="st2" d="M61.2,36.6c-0.2-0.8-0.5-1.6-0.9-2.3c0.4,1,0.8,2.1,1,3.2c0.1,0.3,0.1,0.6,0.2,0.9c0-0.5-0.1-1.1-0.2-1.6
			c0,0,0,0,0-0.1C61.2,36.7,61.2,36.7,61.2,36.6z"/>
		<path class="st2" d="M61.5,39.6L61.5,39.6c0.1-0.1,0.1-0.2,0.1-0.3h-0.1C61.5,39.4,61.5,39.5,61.5,39.6z"/>
		<path class="st2" d="M61.2,36.6c0,0,0,0.1,0,0.2C61.2,36.7,61.2,36.6,61.2,36.6z"/>
		<path class="st2" d="M4.3,24.9C4.2,25,4.1,25.2,4,25.3l0,0C4,25.3,4.1,25.1,4.3,24.9z"/>
		<path class="st2" d="M61.5,39c0-0.4,0-0.8-0.1-1.2c-0.1-0.3-0.1-0.7-0.2-1c0.1,0.5,0.2,1,0.2,1.6c0,0.3,0.1,0.6,0.1,0.9h0.1
			C61.6,39.2,61.6,39.1,61.5,39L61.5,39z"/>
		<path class="st2" d="M61.5,38.5c0-0.3-0.1-0.5-0.1-0.7c0,0.4,0.1,0.8,0.1,1.2h0.1c0-0.1,0-0.2,0-0.3l0,0
			C61.6,38.6,61.5,38.6,61.5,38.5z"/>
		<path class="st2" d="M61.6,38.7L61.6,38.7c0,0,0-0.1,0-0.2C61.5,38.6,61.6,38.6,61.6,38.7z"/>
		<path class="st2" d="M60.6,36.1c-0.3-0.7-0.6-1.5-0.9-2.2h-0.1C60,34.7,60.4,35.4,60.6,36.1z"/>
		<path class="st2" d="M61.5,40.5L61.5,40.5c0.1-0.1,0.1-0.2,0.1-0.3h-0.1C61.5,40.3,61.5,40.4,61.5,40.5z"/>
		<path class="st2" d="M41,20.5c0.1,0,7.7,2.7,13.6,7.7c0.1,0,0.2-0.1,0.3-0.1c-1.5-1.3-3-2.4-4.6-3.4c-0.1,0-0.1-0.1-0.2-0.1
			c-0.2-0.1-0.5-0.3-0.7-0.4C49.2,24,49.1,24,49,23.9c-0.2-0.1-0.4-0.2-0.5-0.3c-0.1-0.1-0.3-0.2-0.4-0.2c-0.2-0.1-0.3-0.2-0.5-0.3
			c-0.1-0.1-0.3-0.1-0.4-0.2c-0.2-0.1-0.3-0.2-0.5-0.3c-0.1,0-0.2-0.1-0.3-0.1c-0.2-0.1-0.4-0.2-0.6-0.3h-0.1c-2.2-1.1-4-1.8-4.6-2
			c-10.5-3-18.1-3.1-23.5-2.1c-0.1,0-0.2,0-0.2,0c-0.2,0-0.3,0.1-0.5,0.1c-2.2,0.5-4.1,1.1-5.6,1.8c-3.6,1.7-5.6,3.8-6.6,5
			c1.1-1.3,3.2-3.2,6.7-4.8c0.1,0,0.2-0.1,0.3-0.1C16.7,17.9,25.9,16.2,41,20.5z"/>
		<path class="st2" d="M3.8,25.9C3.7,26,3.7,26,3.7,26l0.1,0.1C3.8,26.1,3.9,26,3.8,25.9L3.8,25.9z"/>
		<path class="st2" d="M49,23.9c-0.2-0.1-0.4-0.2-0.5-0.3C48.6,23.7,48.8,23.8,49,23.9z"/>
		<path class="st2" d="M48,23.4c-0.2-0.1-0.3-0.2-0.5-0.3C47.7,23.2,47.8,23.3,48,23.4z"/>
		<path class="st2" d="M4.7,25c0.9-1.2,2.9-3.4,6.6-5c1.5-0.7,3.3-1.3,5.6-1.8c-2.3,0.5-4.1,1.1-5.6,1.7c-3,1.3-4.9,3-6.1,4.3
			C4.3,25.1,4,25.7,4,25.8l-0.1-0.1c0,0.1-0.1,0.1-0.1,0.2L3.9,26C4.1,25.7,4.3,25.4,4.7,25z"/>
		<path class="st2" d="M50,24.6c-0.2-0.1-0.5-0.3-0.7-0.4C49.6,24.3,49.8,24.4,50,24.6z"/>
		<path class="st2" d="M61.5,39.9c0,0.1,0,0.2,0,0.3h0.1C61.6,40.1,61.6,40,61.5,39.9L61.5,39.9z"/>
		<path class="st2" d="M59.8,33.9L59.8,33.9c0.3,0.7,0.6,1.4,0.8,2.2c0.3,0.6,0.4,1.3,0.6,2c-0.1-0.9-0.3-1.8-0.7-2.6
			C60.3,34.9,60.1,34.4,59.8,33.9z"/>
		<path class="st2" d="M50.2,24.7c1.6,1,3.1,2.1,4.6,3.4l0,0C53.4,26.8,51.8,25.7,50.2,24.7z"/>
		<path class="st2" d="M47.1,22.9c-0.2-0.1-0.3-0.2-0.5-0.3C46.8,22.7,46.9,22.8,47.1,22.9z"/>
		<path class="st2" d="M41,20.1c0.6,0.2,2.3,0.9,4.6,2C43,20.8,41.1,20.2,41,20.1L41,20.1z"/>
		<path class="st2" d="M46.3,22.5c-0.2-0.1-0.4-0.2-0.6-0.3C45.9,22.3,46.1,22.4,46.3,22.5z"/>
		<path class="st2" d="M17.5,18c-0.1,0-0.2,0-0.2,0C17.3,18.1,17.4,18,17.5,18z"/>
		<path class="st2" d="M61.2,38.1c0.1,0.3,0.1,0.6,0.2,0.9c0-0.5-0.1-1-0.2-1.5c-0.2-0.7-0.4-1.3-0.7-2
			C60.9,36.3,61.1,37.2,61.2,38.1z"/>
		<path class="st2" d="M4,25.5L4,25.5c-0.1,0-0.1,0.1-0.1,0.2H4c0,0,0.3-0.7,1.1-1.6c-0.5,0.5-0.8,1-1.1,1.3C4,25.5,4,25.5,4,25.5z"
			/>
		<path class="st2" d="M61.5,39.9L61.5,39.9c0.1-0.1,0.1-0.2,0.1-0.3h-0.1C61.5,39.7,61.5,39.8,61.5,39.9z"/>
		<path class="st2" d="M4.1,25.5C4,25.5,4,25.5,4.1,25.5L4.1,25.5C4,25.5,4,25.5,4.1,25.5z"/>
		<path class="st2" d="M61.5,39.3c0-0.3,0-0.6,0-0.9c0-0.3-0.1-0.6-0.2-0.9c0.1,0.5,0.1,1,0.2,1.5c0,0.2,0.1,0.4,0.1,0.6h0.1
			C61.6,39.5,61.6,39.4,61.5,39.3L61.5,39.3z"/>
		<path class="st2" d="M61.5,39.3c0-0.3-0.1-0.6-0.1-0.9C61.4,38.7,61.5,39,61.5,39.3L61.5,39.3z"/>
		<path class="st2" d="M3.8,26.1c-0.1,0.1-0.1,0.2-0.1,0.2l0.1,0.1c0,0,0.1-0.1,0.1-0.2L3.8,26.1z"/>
		<path class="st2" d="M59.4,34.1c0.6,1,1.1,2.1,1.5,3.2c-0.3-1.1-0.8-2.2-1.3-3.2C59.5,34,59.4,34,59.4,34.1z"/>
		<path class="st2" d="M41.1,20.8c0.1,0,7.3,2.7,13.1,7.5c0.1,0,0.2-0.1,0.3-0.1c-5.8-4.9-13.2-7.6-13.3-7.6
			c-15.1-4.3-24.4-2.7-29.6-0.5c-0.1,0-0.2,0.1-0.3,0.1c-4.2,1.9-6.3,4.4-7,5.4c0.8-1,2.3-2.6,4.9-4.1c0.7-0.4,1.4-0.8,2.2-1.1
			C16.6,18.2,25.9,16.5,41.1,20.8z"/>
		<path class="st2" d="M61.4,40.8L61.4,40.8c0.1-0.1,0.1-0.2,0.1-0.3h-0.1C61.4,40.6,61.4,40.7,61.4,40.8z"/>
		<path class="st2" d="M61.4,40.2c0,0.1,0,0.2,0,0.3h0.1C61.5,40.4,61.5,40.3,61.4,40.2L61.4,40.2z"/>
		<path class="st2" d="M4.3,25.6c0.8-1.1,2.8-3.6,7-5.4c0.1,0,0.2-0.1,0.3-0.1c-0.1,0-0.2,0.1-0.3,0.1c-3.5,1.5-5.6,3.5-6.7,4.8
			c-0.5,0.6-0.7,1-0.7,1H3.8c0,0.1-0.1,0.1-0.1,0.2l0.1,0.1C4,26,4.1,25.9,4.3,25.6z"/>
		<path class="st2" d="M59.6,34C59.6,34,59.5,34,59.6,34c0.5,1,0.9,2.1,1.3,3.3c0.2,0.5,0.3,1,0.4,1.4c-0.1-0.9-0.3-1.8-0.6-2.6
			C60.4,35.4,60,34.7,59.6,34z"/>
		<path class="st2" d="M4,26c0,0,0.2-0.4,0.7-1C4.3,25.4,4.1,25.7,4,26L4,26z"/>
		<path class="st2" d="M61.4,40.2L61.4,40.2c0.1-0.1,0.1-0.2,0.1-0.3h-0.1C61.4,40,61.4,40.1,61.4,40.2z"/>
		<path class="st2" d="M61.2,38.7c0.1,0.3,0.1,0.6,0.1,0.9c0-0.5-0.1-1-0.1-1.5c-0.2-0.7-0.3-1.3-0.6-2C60.9,37,61.1,37.8,61.2,38.7
			z"/>
		<path class="st2" d="M61.4,39.6c0-0.2,0-0.4,0-0.6c0-0.3-0.1-0.6-0.2-0.9C61.3,38.6,61.3,39.1,61.4,39.6c0,0.1,0,0.2,0,0.3h0.1
			C61.5,39.8,61.5,39.7,61.4,39.6L61.4,39.6z"/>
		<path class="st2" d="M61.5,39.6c0-0.2,0-0.4-0.1-0.6C61.4,39.2,61.4,39.4,61.5,39.6L61.5,39.6z"/>
		<path class="st2" d="M41.3,21.2c0.1,0,7,2.6,12.6,7.2c0.1,0,0.2-0.1,0.3-0.1C48.5,23.6,41.5,21,41.4,21
			c-15.3-4.5-24.7-2.8-29.9-0.5c-0.8,0.4-1.6,0.7-2.2,1.1c-3.3,1.9-4.8,4-5.2,4.6c0.5-0.7,1.6-1.9,3.5-3.3c1.1-0.8,2.4-1.6,4-2.3
			C16.8,18.5,26.1,16.8,41.3,21.2z"/>
		<path class="st2" d="M61.4,41.1L61.4,41.1c0.1-0.1,0.1-0.2,0.1-0.3h-0.1C61.3,40.9,61.4,41,61.4,41.1z"/>
		<path class="st2" d="M3.8,26.3c-0.1,0.1-0.1,0.2-0.1,0.2l0.1,0.1c0,0,0.1-0.1,0.1-0.2L3.8,26.3z"/>
		<path class="st2" d="M59.1,34.1c0.8,1.2,1.4,2.4,1.8,3.7c-0.3-1.3-0.9-2.6-1.6-3.8C59.3,34.1,59.2,34.1,59.1,34.1z"/>
		<path class="st2" d="M59.3,34.1c0.7,1.2,1.2,2.5,1.6,3.8c0.2,0.5,0.3,1.1,0.4,1.7c-0.1-0.8-0.2-1.5-0.4-2.3
			C60.5,36.2,60,35.1,59.3,34.1L59.3,34.1z"/>
		<path class="st2" d="M61.3,40.5c0,0.1,0,0.2,0,0.3h0.1C61.4,40.7,61.4,40.6,61.3,40.5L61.3,40.5z"/>
		<path class="st2" d="M4.1,26.2c0.4-0.6,1.9-2.7,5.2-4.6c-2.6,1.5-4.1,3.1-4.9,4C4.1,26,4,26.2,4.1,26.2L4,26.1
			c0,0.1-0.1,0.1-0.1,0.2L4,26.4C4,26.3,4,26.3,4.1,26.2z"/>
		<path class="st2" d="M4,26.2c0,0,0.1-0.2,0.3-0.5C4.1,25.8,4,26,4,26.2L4,26.2z"/>
		<path class="st2" d="M61.2,38.7c-0.1-0.5-0.2-1-0.4-1.4c0.2,0.7,0.3,1.5,0.4,2.3c0,0.3,0.1,0.6,0.1,0.9h0.1c0-0.1,0-0.2,0-0.3
			h-0.1C61.3,39.7,61.3,39.2,61.2,38.7z"/>
		<path class="st2" d="M61.4,39.9c0-0.1,0-0.2,0-0.3c0-0.3-0.1-0.6-0.1-0.9c0.1,0.5,0.1,1,0.1,1.5h0.1C61.4,40.1,61.4,40,61.4,39.9
			L61.4,39.9L61.4,39.9z"/>
		<path class="st2" d="M61.4,39.9c0-0.1,0-0.2,0-0.3C61.4,39.7,61.4,39.8,61.4,39.9L61.4,39.9z"/>
		<path class="st2" d="M6.2,24.3c1.2-1.1,3-2.3,5.5-3.3c5.2-2.2,14.6-3.8,29.7,0.7c0.1,0,6.6,2.5,12.1,6.9c0.1,0,0.2-0.1,0.3-0.1
			c-0.8-0.6-1.6-1.2-2.3-1.8c-4.9-3.4-9.9-5.3-10-5.3c-15.2-4.5-24.7-2.9-29.9-0.6c-1.6,0.7-3,1.5-4,2.2C5,24.9,4,26.6,4,26.6
			l-0.1-0.1c-0.1,0.1-0.1,0.1-0.1,0.2l0.1,0.1C4.1,26.4,4.8,25.4,6.2,24.3z"/>
		<path class="st2" d="M61.3,41.4L61.3,41.4c0.1-0.1,0.1-0.2,0.1-0.3h-0.1C61.3,41.2,61.3,41.3,61.3,41.4z"/>
		<path class="st2" d="M58.9,34.2c0.2,0.3,0.3,0.5,0.5,0.8c0.8,1.3,1.3,2.6,1.6,4c-0.3-1.7-1-3.4-1.9-4.9C59,34.2,59,34.2,58.9,34.2
			z"/>
		<path class="st2" d="M61.3,40.8c0,0.1,0,0.2,0,0.3h0.1C61.3,41,61.3,40.9,61.3,40.8L61.3,40.8z"/>
		<path class="st2" d="M59.1,34.1c0.9,1.5,1.6,3.1,1.9,4.9c0.1,0.4,0.1,0.7,0.2,1.1c0-0.8-0.1-1.5-0.3-2.3
			C60.5,36.5,59.9,35.3,59.1,34.1L59.1,34.1z"/>
		<path class="st2" d="M7.6,23c-1.9,1.3-3,2.6-3.5,3.3C4,26.4,4,26.5,4,26.5l0,0c0,0.1-0.1,0.1-0.1,0.2L4,26.8
			C3.9,26.6,5,24.8,7.6,23z"/>
		<path class="st2" d="M4,26.4c0,0,0-0.1,0.1-0.2C4,26.3,4,26.4,4,26.4L4,26.4z"/>
		<path class="st2" d="M61.2,39.5c-0.1-0.6-0.2-1.1-0.4-1.7c0.2,0.7,0.3,1.5,0.3,2.3c0,0.2,0,0.4,0.1,0.6h0.1c0-0.1,0-0.2,0-0.3
			h-0.1C61.3,40.2,61.3,39.8,61.2,39.5z"/>
		<path class="st2" d="M61.3,40.5L61.3,40.5c0-0.3,0-0.6,0-0.9C61.3,39.8,61.3,40.2,61.3,40.5z"/>
		<path class="st2" d="M58.9,34.2c-0.1,0-0.1,0-0.2,0.1c0.5,0.7,0.9,1.4,1.3,2.2c0.5,1,0.9,2.1,1.1,3.2c-0.2-1.6-0.8-3.2-1.6-4.6
			C59.2,34.7,59.1,34.5,58.9,34.2z"/>
		<path class="st2" d="M61.2,41.7L61.2,41.7c0.1-0.1,0.1-0.2,0.1-0.3h-0.1C61.2,41.5,61.2,41.6,61.2,41.7z"/>
		<path class="st2" d="M5.3,25.4c1.2-1.2,3.3-2.9,6.6-4.2c5.3-2.1,14.7-3.8,29.8,0.8c0.1,0,6.3,2.4,11.7,6.6c0.1,0,0.2-0.1,0.2-0.1
			c-0.7-0.5-1.3-1-1.9-1.4c-4.9-3.4-9.8-5.3-9.9-5.3c-15.1-4.6-24.6-3-29.9-0.8c-2.4,1-4.2,2.2-5.5,3.3c-1.6,1.4-2.3,2.5-2.3,2.5H4
			c-0.1,0.1-0.1,0.1-0.1,0.1L3.8,27C4,26.7,4.5,26.2,5.3,25.4z"/>
		<path class="st2" d="M61.2,41.1c0,0.1,0,0.2,0,0.3h0.1C61.3,41.3,61.3,41.2,61.2,41.1L61.2,41.1z"/>
		<path class="st2" d="M61,39c-0.3-1.4-0.9-2.8-1.6-4c0.8,1.5,1.4,3,1.6,4.6c0.1,0.4,0.1,0.7,0.2,1.1C61.2,40.1,61.1,39.6,61,39z"/>
		<path class="st2" d="M6.2,24.3c-1.4,1.1-2.1,2.1-2.4,2.5h0.1C3.9,26.8,4.6,25.7,6.2,24.3z"/>
		<path class="st2" d="M61.2,40.1c0-0.4-0.1-0.8-0.2-1.1c0.1,0.6,0.1,1.1,0.2,1.7c0,0.1,0,0.2,0,0.3h0.1c0-0.1,0-0.2,0-0.3l0,0
			C61.2,40.5,61.2,40.3,61.2,40.1z"/>
		<path class="st2" d="M61.2,40.8L61.2,40.8c0-0.2,0-0.4,0-0.6C61.2,40.3,61.2,40.5,61.2,40.8z"/>
		<path class="st2" d="M58.5,34.3c0.8,1.1,1.4,2.2,1.9,3.5c0.4,0.9,0.6,1.9,0.8,3c-0.1-1.5-0.5-2.9-1.1-4.3
			c-0.4-0.8-0.8-1.5-1.3-2.2C58.6,34.3,58.5,34.3,58.5,34.3z"/>
		<path class="st2" d="M61.1,42L61.1,42c0.1-0.1,0.1-0.2,0.1-0.3h-0.1C61.1,41.8,61.1,41.8,61.1,42z"/>
		<path class="st2" d="M11.9,21.5c5.3-2.1,14.8-3.7,29.8,0.9c0,0,5,1.9,9.8,5.3c0.5,0.3,1,0.7,1.5,1.1c0.1,0,0.1,0,0.2-0.1
			c-0.5-0.4-1-0.8-1.5-1.1c-4.8-3.4-9.7-5.3-9.8-5.3c-15-4.6-24.6-3.1-30-0.9c-3.2,1.3-5.3,2.9-6.6,4.1c-1,0.9-1.4,1.5-1.4,1.5H3.8
			c-0.1,0.1-0.1,0.1-0.1,0.1l0.1,0.1c0.1-0.1,0.3-0.4,0.7-0.8C5.5,25.3,7.8,23.1,11.9,21.5z"/>
		<path class="st2" d="M5.3,25.4C4.5,26.2,4,26.7,3.8,27h0.1C3.9,27,4.3,26.4,5.3,25.4z"/>
		<path class="st2" d="M61.1,41.3c0-0.6,0-1.2-0.1-1.7c-0.2-1.1-0.6-2.2-1.1-3.2c0.6,1.3,1,2.8,1.1,4.3c0,0.3,0.1,0.6,0.1,0.9h0.1
			C61.2,41.5,61.2,41.4,61.1,41.3L61.1,41.3z"/>
		<path class="st2" d="M61.2,40.7c0-0.4-0.1-0.7-0.2-1.1c0.1,0.6,0.1,1.2,0.1,1.7h0.1c0-0.1,0-0.2,0-0.3l0,0
			C61.2,40.9,61.2,40.8,61.2,40.7z"/>
		<path class="st2" d="M61.2,41.1L61.2,41.1c0-0.1,0-0.2,0-0.3C61.2,40.8,61.2,40.9,61.2,41.1z"/>
		<path class="st2" d="M58.2,34.4c1.1,1.5,1.9,3.1,2.4,4.8c0.2,0.7,0.3,1.4,0.4,2.1c0-1.2-0.3-2.4-0.7-3.5c-0.5-1.2-1.2-2.4-1.9-3.5
			C58.3,34.3,58.3,34.4,58.2,34.4z"/>
		<path class="st2" d="M61.1,42.3L61.1,42.3c0.1-0.1,0.1-0.2,0.1-0.3h-0.1C61.1,42,61.1,42.2,61.1,42.3z"/>
		<path class="st2" d="M12.1,21.7c5.4-2.1,14.9-3.6,29.9,1.1c0,0,4.9,2,9.7,5.3c0.3,0.3,0.7,0.5,1.1,0.8c0,0,0.1,0,0.2-0.1
			c-0.4-0.3-0.8-0.6-1.1-0.8c-4.8-3.4-9.6-5.3-9.7-5.3c-15-4.7-24.6-3.2-30-1.1c-4,1.6-6.4,3.7-7.5,4.9c-0.4,0.5-0.6,0.8-0.6,0.8
			l0,0C4,27.4,4,27.4,4,27.4l0.1,0.1c0,0,0,0,0-0.1C4.2,26.9,6.6,23.8,12.1,21.7z"/>
		<path class="st2" d="M61.1,41.7c0-0.3,0-0.6,0-0.9c-0.1-1-0.4-2-0.8-3c0.4,1.1,0.7,2.3,0.7,3.5c0,0.2,0,0.4,0,0.7h0.1
			C61.1,41.8,61.1,41.7,61.1,41.7L61.1,41.7z"/>
		<path class="st2" d="M4.5,26.5c-0.3,0.3-0.5,0.6-0.7,0.8l0,0C3.9,27.2,4.1,26.9,4.5,26.5z"/>
		<path class="st2" d="M61.1,41.7c0-0.3,0-0.6-0.1-0.9C61.1,41,61.1,41.3,61.1,41.7L61.1,41.7z"/>
		<path class="st2" d="M60.6,39.2c-0.5-1.7-1.4-3.3-2.5-4.8H58c1.4,1.8,2.5,3.9,2.8,6.2c0.1,0.7,0.2,1.3,0.2,1.9h0.1
			c0-0.1,0-0.2,0-0.3H61C61,41.2,60.9,40.2,60.6,39.2z"/>
		<path class="st2" d="M51.7,28.4C47,25,42.2,23.1,42.1,23c-6.6-2-12.7-3.1-18.1-3.1c0,0,0,0-0.1,0c-4.4,0-8.3,0.7-11.8,2
			c-5.1,1.9-7.6,4.8-8.2,5.5v0.1l0,0c-0.1,0.1-0.1,0.1-0.1,0.1l0.1,0.1c0,0,2.4-3.4,8.3-5.7c5.4-2.1,15-3.5,29.9,1.2
			C42.1,23.2,47,25.2,51.7,28.4c0.2,0.3,0.4,0.4,0.6,0.6h0.1C52.2,28.8,52,28.6,51.7,28.4z"/>
		<path class="st2" d="M3.9,27.4L3.9,27.4L3.9,27.4C3.9,27.5,3.9,27.4,3.9,27.4z"/>
		<path class="st2" d="M61,42c0-0.2,0-0.4,0-0.7c-0.1-0.7-0.2-1.4-0.4-2.1c0.3,1,0.4,2,0.4,3.1h0.1C61.1,42.2,61.1,42.1,61,42L61,42
			z"/>
		<path class="st2" d="M61.1,42c0-0.2,0-0.5,0-0.7C61,41.5,61.1,41.7,61.1,42L61.1,42z"/>
		<path class="st2" d="M60.8,40.6c-0.3-1.9-1.2-3.8-2.6-5.6c-0.1-0.2-0.3-0.3-0.4-0.5h-0.1c1.7,2.2,3,4.7,3.1,7.4c0,0.3,0,0.6,0,0.9
			H61c0-0.1,0-0.2,0-0.3l0,0C61,41.9,60.9,41.3,60.8,40.6z"/>
		<path class="st2" d="M51.8,28.9c-4.7-3.4-9.5-5.4-9.5-5.4c-6.5-2.1-12.6-3.2-18.1-3.3c-0.1,0-0.2,0-0.3,0c-4.3,0-8.2,0.6-11.6,1.9
			c-6,2.2-8.5,5.6-8.5,5.7h0.1c0,0,2.5-3.4,8.5-5.6c5.5-2,15.2-3.5,30,1.3C42.3,23.6,47.1,25.6,51.8,28.9c0,0.1,0.1,0.2,0.2,0.3h0.1
			C52,29,51.9,29,51.8,28.9z"/>
		<path class="st2" d="M61,42.5L61,42.5c0-0.6,0-1.3-0.1-1.9C60.9,41.3,61,41.9,61,42.5z"/>
		<path class="st2" d="M42.5,23.9c-6.5-2.1-12.6-3.3-18.1-3.3c-0.1,0-0.3,0-0.5,0c-4.2,0-8.1,0.6-11.5,1.9c-6,2.2-8.6,5.6-8.6,5.6
			l0,0c0,0,2.6-3.4,8.6-5.6C18,20.5,27.7,19.1,42.5,23.9c0,0.1,4.7,2.1,9.2,5.4c0,0,0,0,0.1,0C47.2,25.9,42.5,23.9,42.5,23.9z"/>
		<path class="st2" d="M60.9,42c-0.2-2.2-1.1-4.4-2.7-6.6c-0.2-0.3-0.4-0.5-0.6-0.8c0,0,0,0-0.1,0c2,2.5,3.5,5.4,3.4,8.5H61
			c0-0.1,0-0.2,0-0.3l0,0C60.9,42.5,60.9,42.3,60.9,42z"/>
		<path class="st2" d="M60.9,42.8L60.9,42.8c0-0.3,0-0.6,0-0.9C60.9,42.3,60.9,42.5,60.9,42.8z"/>
		<path class="st2" d="M60.8,43.5L60.8,43.5c0.1-2.5-0.8-5.1-2.6-7.6c-0.3-0.4-0.6-0.8-0.9-1.2l0,0C59.4,37.2,61,40.2,60.8,43.5z"/>
		<path class="st2" d="M42.6,24.3C36.1,22.1,30,21,24.5,20.9c-0.2,0-0.4,0-0.6,0c-4.1,0-8,0.6-11.4,1.8c-3.2,1.1-5.4,2.6-6.7,3.6
			c-1.4,1.1-2.1,2-2.1,2l0,0c0,0,0.7-0.9,2.1-2c1.3-1,3.5-2.5,6.7-3.6C18.1,20.8,27.9,19.4,42.6,24.3c0,0.1,4.4,2,8.8,5.1l0,0
			C47,26.2,42.7,24.3,42.6,24.3z"/>
		<path class="st2" d="M42.8,24.7c-6.5-2.2-12.5-3.4-18-3.5c-0.3,0-0.6,0-0.9,0c-4.1,0-7.9,0.6-11.2,1.8c-6.1,2.1-8.9,5.5-8.9,5.5
			l0,0c0,0,0.7-0.9,2.1-1.9c1.3-1,3.6-2.4,6.8-3.5C18.3,21.1,28.1,19.8,42.8,24.7c0,0,4.1,1.8,8.3,4.8l0,0
			C46.8,26.6,42.8,24.8,42.8,24.7z"/>
		<path class="st2" d="M60.8,43.7L60.8,43.7c0.1-2.5-0.8-5-2.6-7.5c-0.4-0.5-0.8-1-1.2-1.5l0,0C59.2,37.3,60.9,40.4,60.8,43.7z"/>
	</g>
</g>
<g>
	<path class="st4" d="M120.4,42.8v-5.3h-3.3v-2.3h15.5v2.3h-3.3v5.3h-2.7v-5.3H123v5.3H120.4z M126.4,25.2c0.9,0,1.8,0.2,2.4,0.3
		c0.8,0.2,1.2,0.5,1.7,0.9c0.5,0.5,0.8,0.9,1.1,1.4c0.2,0.5,0.3,1.1,0.3,1.7c0,0.6-0.2,1.2-0.3,1.7c-0.2,0.5-0.6,0.9-1.1,1.4
		c-0.5,0.3-1.1,0.6-1.7,0.9c-0.8,0.2-1.5,0.3-2.4,0.3h-3.2c-0.9,0-1.8-0.2-2.4-0.3c-0.6-0.2-1.2-0.5-1.7-0.9
		c-0.5-0.3-0.8-0.9-1.1-1.4c-0.3-0.5-0.3-1.1-0.3-1.7c0-0.6,0.2-1.2,0.3-1.7c0.2-0.5,0.6-1.1,1.1-1.4c0.5-0.3,1.1-0.8,1.7-0.9
		c0.6-0.2,1.5-0.3,2.4-0.3C123.2,25.2,126.4,25.2,126.4,25.2z M126.4,31.7c1.1,0,1.8-0.2,2.3-0.6s0.8-0.9,0.8-1.5s-0.2-1.2-0.8-1.5
		c-0.5-0.5-1.2-0.6-2.3-0.6h-3.2c-1.1,0-1.8,0.2-2.3,0.6c-0.5,0.5-0.8,0.9-0.8,1.5c0,0.6,0.2,1.2,0.8,1.5c0.5,0.5,1.2,0.6,2.3,0.6
		H126.4z"/>
	<path class="st4" d="M139.9,25.2c0.8,0,1.4,0.2,1.8,0.3c0.6,0.2,1.1,0.5,1.4,0.9c0.5,0.3,0.8,0.8,0.9,1.4c0.2,0.5,0.3,1.1,0.3,1.7
		v0.6c0,0.6-0.2,1.2-0.3,1.7c-0.2,0.5-0.5,0.9-0.9,1.4c-0.5,0.3-0.9,0.8-1.4,0.9c-0.6,0.2-1.2,0.3-1.8,0.3c-0.8,0-1.4-0.2-2-0.3
		s-1.1-0.5-1.4-0.9c-0.5-0.3-0.8-0.8-0.9-1.4c-0.2-0.5-0.3-1.1-0.3-1.7v-0.6c0-0.6,0.2-1.2,0.3-1.7c0.2-0.5,0.5-0.9,0.9-1.4
		c0.5-0.3,0.9-0.6,1.4-0.9C138.5,25.3,139.1,25.2,139.9,25.2z M145.9,35.5c0.8,0,1.5,0.2,2.1,0.3c0.6,0.2,1.1,0.5,1.5,0.8
		c0.5,0.3,0.8,0.8,0.9,1.2s0.3,0.9,0.3,1.5s-0.2,1.1-0.3,1.5c-0.2,0.5-0.5,0.8-0.9,1.2c-0.5,0.3-0.9,0.6-1.5,0.8
		c-0.6,0.2-1.4,0.3-2.1,0.3h-4.6c-0.8,0-1.5-0.2-2.1-0.3c-0.6-0.2-1.1-0.5-1.5-0.8c-0.5-0.3-0.6-0.8-0.9-1.2
		c-0.2-0.5-0.3-0.9-0.3-1.5s0.2-1.1,0.3-1.5c0.2-0.5,0.5-0.8,0.9-1.2c0.5-0.3,0.9-0.6,1.5-0.8c0.6-0.2,1.4-0.3,2.1-0.3H145.9z
		 M141.8,29.4c0-0.6-0.2-1.1-0.6-1.5c-0.3-0.5-0.9-0.6-1.5-0.6c-0.6,0-1.2,0.2-1.5,0.6s-0.5,0.9-0.5,1.5v0.6c0,0.6,0.2,1.1,0.5,1.5
		c0.3,0.5,0.9,0.6,1.5,0.6c0.6,0,1.1-0.2,1.5-0.6c0.3-0.5,0.6-0.9,0.6-1.5V29.4z M146.1,40.5c0.8,0,1.2-0.2,1.5-0.5
		c0.3-0.3,0.5-0.6,0.5-1.1c0-0.5-0.2-0.8-0.5-1.1c-0.3-0.3-0.8-0.5-1.5-0.5h-5c-0.8,0-1.2,0.2-1.5,0.5c-0.3,0.3-0.5,0.6-0.5,1.1
		c0,0.5,0.2,0.8,0.5,1.1c0.3,0.3,0.8,0.5,1.5,0.5H146.1z M150.2,25.2v9.7h-2.4v-2.1h-2.6v-2.1h2.6v-1.5h-2.6v-2.3h2.6v-1.7
		C147.8,25.2,150.2,25.2,150.2,25.2z"/>
	<path class="st4" d="M157.5,41.1c-0.2,0-0.5,0-0.6,0c-0.2,0-0.3,0-0.5-0.2c-0.2,0-0.3-0.2-0.3-0.2s-0.3-0.2-0.5-0.3l-1.1-1.1
		c-0.2-0.2-0.3-0.3-0.3-0.5c0-0.2-0.2-0.3-0.2-0.3c0-0.2,0-0.3-0.2-0.5c0-0.2,0-0.3,0-0.6V26.7c0-0.5,0.3-0.8,0.8-0.8h7.6
		c0.5,0,0.8,0.3,0.8,0.8v13.8c0,0.5-0.3,0.8-0.8,0.8L157.5,41.1L157.5,41.1z M160.5,38.9V27.9h-3.9v9.3c0,0.2,0,0.2,0,0.3
		s0.2,0.2,0.2,0.3l0.8,0.8c0.2,0.2,0.2,0.2,0.3,0.2c0,0,0.2,0,0.3,0L160.5,38.9L160.5,38.9z M168.6,25.2v17.3H166V25.2H168.6z"/>
	<path class="st4" d="M175.4,39.8v0.6v0.2l0,0h0.2h11.4v2h-12.3c-0.3,0-0.6,0-0.8-0.2c-0.2,0-0.3-0.2-0.5-0.5l-0.3-0.3
		c-0.2-0.2-0.3-0.3-0.5-0.6c0-0.2-0.2-0.5-0.2-0.8v-1.8c0-0.5,0.3-0.6,0.8-0.6h10.3c0.2,0,0.2,0,0.2-0.2v-0.8h-11.2v-2h5.6v-1.1
		h-6.5v-2h15.5v2h-6.4v1.1h4.9c0.5,0,0.8,0.3,0.8,0.8v2.6c0,0.5-0.2,0.8-0.3,1.1c-0.3,0.3-0.6,0.5-1.1,0.5H175.4L175.4,39.8z
		 M186.2,31.4c-1.1-0.3-2-0.8-3-1.2c-0.9-0.5-2-0.9-2.9-1.4c-0.2-0.2-0.3-0.3-0.5-0.5c0,0.2-0.2,0.3-0.5,0.5c-1.1,0.5-2,0.9-2.9,1.4
		s-2,0.8-3,1.2l-0.9-2c0.9-0.3,1.8-0.6,2.6-1.1c0.9-0.3,1.7-0.8,2.6-1.1c0.3-0.2,0.5-0.3,0.6-0.5c0.2-0.2,0.2-0.5,0.2-0.8V25h2.6
		v1.1c0,0.3,0,0.6,0.2,0.8c0.2,0.2,0.3,0.3,0.6,0.5c0.9,0.5,1.7,0.8,2.6,1.1c0.9,0.3,1.7,0.6,2.7,1.1L186.2,31.4z"/>
	<path class="st4" d="M195.4,30.2v3.5h5.5V36h-11.2v-2.3h3.2v-3.5H195.4z M199.7,29.8c0,0.3,0,0.6,0,0.9c0,0.2,0,0.5-0.2,0.6
		c0,0.2-0.2,0.5-0.2,0.6c-0.2,0.3-0.3,0.6-0.5,0.9l-2.3-0.5c0.2-0.3,0.3-0.5,0.3-0.8c0-0.2,0.2-0.3,0.2-0.6c0-0.2,0-0.3,0-0.6
		c0-0.2,0-0.5,0-0.8v-2h-6.7v-2.3h8.7c0.5,0,0.8,0.3,0.8,0.8L199.7,29.8L199.7,29.8z M204.8,40.5v2.3h-11.1c-0.5,0-0.8,0-0.9-0.2
		c-0.2-0.2-0.5-0.3-0.6-0.5l-0.5-0.5c-0.2-0.2-0.2-0.2-0.3-0.3c0-0.2-0.2-0.2-0.2-0.3c0-0.2,0-0.3,0-0.5c0-0.2,0-0.3,0-0.6v-3h2.6
		v2.6c0,0.2,0,0.3,0.2,0.3l0.2,0.3c0.2,0,0.2,0.2,0.3,0.2C194.5,40.5,204.8,40.5,204.8,40.5z M204.5,25.2v4.7h2.3V32h-2.3v6.1h-2.6
		V25.3L204.5,25.2L204.5,25.2z"/>
</g>
<g>
	<path class="st4" d="M123.9,55.9h-1.2v-5.3l-1,2.9h-1.2l-1.1-2.9v5.3h-1.2v-6.7c0-0.2,0.1-0.3,0.3-0.3h1.4l1.2,3.4l1.1-3.4h1.4
		c0.2,0,0.3,0.1,0.3,0.3L123.9,55.9L123.9,55.9z"/>
	<path class="st4" d="M126.2,51v2.8c0,0.3,0.1,0.7,0.3,0.9c0.2,0.2,0.3,0.3,0.7,0.3c0.3,0,0.5-0.1,0.7-0.3c0.2-0.3,0.3-0.5,0.3-0.9
		v-2.9h1.2v4.9h-1.2v-0.4c-0.1,0.2-0.3,0.3-0.5,0.4c-0.2,0.1-0.4,0.2-0.8,0.2c-0.3,0-0.5,0-0.8-0.2c-0.3-0.1-0.4-0.3-0.6-0.4
		c-0.2-0.2-0.3-0.4-0.3-0.7c-0.1-0.3-0.2-0.6-0.2-0.9v-3L126.2,51L126.2,51z"/>
	<path class="st4" d="M131.3,54.5c0.1,0.4,0.3,0.7,0.9,0.7c0.2,0,0.3,0,0.4-0.1c0.1,0,0.2-0.1,0.3-0.1c0.1-0.1,0.1-0.1,0.1-0.2
		c0-0.1,0-0.1,0-0.2c0-0.1,0-0.2-0.1-0.2c0-0.1-0.1-0.1-0.2-0.2c-0.1-0.1-0.3-0.1-0.4-0.2c-0.2-0.1-0.4-0.2-0.7-0.2
		c-0.5-0.1-0.9-0.3-1.1-0.5c-0.3-0.3-0.3-0.5-0.3-0.9c0-0.2,0-0.4,0.1-0.6s0.2-0.3,0.3-0.4c0.2-0.2,0.3-0.3,0.6-0.3s0.5-0.1,0.9-0.1
		c0.6,0,1,0.2,1.4,0.4c0.3,0.3,0.5,0.7,0.6,1.1h-1.2c0-0.2-0.1-0.3-0.3-0.4c-0.2-0.1-0.3-0.2-0.6-0.2s-0.4,0.1-0.5,0.2
		s-0.2,0.3-0.2,0.3c0,0.1,0,0.2,0.1,0.2c0,0.1,0.1,0.1,0.2,0.2c0.1,0.1,0.2,0.1,0.3,0.2c0.2,0.1,0.3,0.1,0.6,0.2
		c0.3,0.1,0.6,0.2,0.8,0.3s0.3,0.3,0.5,0.3c0.1,0.2,0.3,0.3,0.3,0.4c0.1,0.2,0.1,0.3,0.1,0.5c0,0.2,0,0.4-0.1,0.6s-0.2,0.3-0.3,0.5
		s-0.3,0.3-0.6,0.3c-0.3,0.1-0.5,0.1-0.9,0.1c-0.3,0-0.6,0-0.9-0.1c-0.3-0.1-0.5-0.2-0.7-0.3c-0.2-0.2-0.3-0.3-0.4-0.5
		s-0.2-0.4-0.2-0.7L131.3,54.5L131.3,54.5z"/>
	<path class="st4" d="M136.1,53.9c0,0.4,0.1,0.7,0.3,0.9c0.2,0.3,0.4,0.3,0.8,0.3c0.3,0,0.5-0.1,0.6-0.2s0.3-0.3,0.3-0.5h1.2
		c0,0.3-0.1,0.4-0.3,0.7s-0.3,0.3-0.4,0.5c-0.2,0.2-0.4,0.3-0.6,0.3c-0.3,0.1-0.5,0.1-0.8,0.1c-0.3,0-0.7-0.1-0.9-0.2
		c-0.3-0.1-0.5-0.3-0.7-0.4c-0.2-0.2-0.3-0.4-0.4-0.7c-0.1-0.3-0.2-0.6-0.2-0.9v-0.7c0-0.3,0.1-0.6,0.2-0.9c0.1-0.3,0.3-0.5,0.4-0.7
		c0.2-0.2,0.4-0.3,0.7-0.4c0.3-0.1,0.6-0.2,0.9-0.2c0.3,0,0.6,0.1,0.9,0.2c0.3,0.1,0.5,0.3,0.7,0.5c0.2,0.2,0.3,0.4,0.4,0.8
		c0.1,0.3,0.2,0.6,0.2,0.9v0.7L136.1,53.9L136.1,53.9z M137.1,51.9c-0.3,0-0.5,0.1-0.7,0.3c-0.2,0.2-0.3,0.4-0.3,0.8h2
		c0-0.2,0-0.3-0.1-0.4s-0.1-0.3-0.2-0.3c-0.1-0.1-0.2-0.2-0.3-0.3C137.4,51.9,137.3,51.9,137.1,51.9z"/>
	<path class="st4" d="M141.3,51v2.8c0,0.3,0.1,0.7,0.3,0.9c0.2,0.2,0.3,0.3,0.7,0.3s0.5-0.1,0.7-0.3c0.2-0.3,0.3-0.5,0.3-0.9v-2.9
		h1.2v4.9h-1.2v-0.4c-0.1,0.2-0.3,0.3-0.5,0.4c-0.2,0.1-0.4,0.2-0.8,0.2c-0.3,0-0.5,0-0.8-0.2c-0.3-0.1-0.4-0.3-0.6-0.4
		c-0.2-0.2-0.3-0.4-0.3-0.7c-0.1-0.3-0.2-0.6-0.2-0.9v-3L141.3,51L141.3,51z"/>
	<path class="st4" d="M148.2,52.9c0-0.3-0.1-0.6-0.2-0.8c-0.1-0.2-0.3-0.3-0.5-0.3c-0.1,0-0.3,0-0.3,0.1c-0.1,0.1-0.2,0.2-0.3,0.3
		c-0.1,0.1-0.2,0.3-0.2,0.4c0,0.2-0.1,0.3-0.1,0.5v2.7h-1.2V51h1.2v0.4c0.1-0.2,0.3-0.3,0.4-0.4s0.4-0.2,0.8-0.2s0.6,0.1,0.8,0.3
		s0.3,0.3,0.4,0.5c0.2-0.2,0.3-0.3,0.5-0.5c0.3-0.2,0.5-0.3,0.9-0.3c0.3,0,0.5,0,0.8,0.2c0.2,0.1,0.4,0.2,0.5,0.3
		c0.2,0.2,0.3,0.3,0.3,0.6c0.1,0.3,0.1,0.4,0.1,0.8V56h-1.2v-3c0-0.3-0.1-0.5-0.2-0.7c-0.1-0.2-0.3-0.3-0.5-0.3
		c-0.2,0-0.3,0-0.3,0.1c-0.1,0.1-0.2,0.2-0.3,0.3s-0.2,0.3-0.2,0.3c0,0.2-0.1,0.3-0.1,0.4V56h-1.1V52.9L148.2,52.9z"/>
	<path class="st4" d="M159.3,53.9c0,0.3,0,0.6-0.2,0.9c-0.1,0.3-0.3,0.5-0.4,0.7c-0.2,0.2-0.4,0.3-0.7,0.4c-0.3,0.1-0.6,0.2-0.9,0.2
		s-0.7-0.1-0.9-0.2c-0.3-0.1-0.5-0.3-0.7-0.4c-0.2-0.2-0.3-0.4-0.4-0.7c-0.1-0.3-0.2-0.6-0.2-0.9v-0.9c0-0.3,0-0.6,0.2-0.9
		c0.1-0.3,0.3-0.5,0.4-0.7c0.2-0.2,0.4-0.3,0.7-0.4s0.6-0.2,0.9-0.2c0.3,0,0.7,0.1,0.9,0.2c0.3,0.1,0.5,0.3,0.7,0.4
		c0.2,0.2,0.3,0.4,0.4,0.7c0.1,0.3,0.2,0.6,0.2,0.9V53.9z M158.1,53c0-0.3-0.1-0.7-0.3-0.9c-0.2-0.2-0.4-0.3-0.7-0.3
		s-0.5,0.1-0.7,0.3c-0.2,0.2-0.3,0.5-0.3,0.9v0.9c0,0.3,0.1,0.7,0.3,0.9c0.2,0.2,0.4,0.3,0.7,0.3s0.5-0.1,0.7-0.3
		c0.2-0.2,0.3-0.5,0.3-0.9V53z"/>
	<path class="st4" d="M159.9,51h0.9v-0.6c0-0.6,0.2-1,0.4-1.3c0.3-0.3,0.8-0.4,1.4-0.4c0.2,0,0.4,0,0.6,0s0.4,0,0.6,0v0.9h-1
		c-0.3,0-0.5,0.1-0.6,0.2c-0.1,0.1-0.2,0.3-0.2,0.5v0.6h1.7v1H162v4h-1.2v-4h-0.9V51z"/>
	<path class="st4" d="M169.7,53.2v2.7h-1.2v-2.7l-2-4.2h1.2l1.1,2.5l0.2,0.6l0.3-0.6l1.2-2.5h1.2L169.7,53.2z"/>
	<path class="st4" d="M176,53.9c0,0.3,0,0.6-0.2,0.9c-0.1,0.3-0.3,0.5-0.4,0.7c-0.2,0.2-0.4,0.3-0.7,0.4c-0.3,0.1-0.6,0.2-0.9,0.2
		c-0.3,0-0.7-0.1-0.9-0.2c-0.3-0.1-0.5-0.3-0.7-0.4c-0.2-0.2-0.3-0.4-0.4-0.7c-0.1-0.3-0.2-0.6-0.2-0.9v-0.9c0-0.3,0-0.6,0.2-0.9
		c0.1-0.3,0.3-0.5,0.4-0.7c0.2-0.2,0.4-0.3,0.7-0.4s0.6-0.2,0.9-0.2c0.3,0,0.7,0.1,0.9,0.2c0.3,0.1,0.5,0.3,0.7,0.4
		c0.2,0.2,0.3,0.4,0.4,0.7c0.1,0.3,0.2,0.6,0.2,0.9V53.9z M174.8,53c0-0.3-0.1-0.7-0.3-0.9c-0.2-0.2-0.4-0.3-0.7-0.3
		s-0.5,0.1-0.7,0.3c-0.2,0.2-0.3,0.5-0.3,0.9v0.9c0,0.3,0.1,0.7,0.3,0.9c0.2,0.2,0.4,0.3,0.7,0.3s0.5-0.1,0.7-0.3
		c0.2-0.2,0.3-0.5,0.3-0.9V53z"/>
	<path class="st4" d="M178,51v2.8c0,0.3,0.1,0.7,0.3,0.9c0.2,0.2,0.3,0.3,0.7,0.3c0.3,0,0.5-0.1,0.7-0.3c0.2-0.3,0.3-0.5,0.3-0.9
		v-2.9h1.2v4.9h-1.2v-0.4c-0.1,0.2-0.3,0.3-0.5,0.4c-0.2,0.1-0.4,0.2-0.8,0.2c-0.3,0-0.5,0-0.8-0.2c-0.3-0.1-0.4-0.3-0.6-0.4
		c-0.2-0.2-0.3-0.4-0.3-0.7c-0.1-0.3-0.2-0.6-0.2-0.9v-3L178,51L178,51z"/>
	<path class="st4" d="M185.1,53.2v2.7h-1.2v-2.7l-2-4.2h1.2l1.1,2.5l0.2,0.6l0.3-0.6l1.2-2.5h1.2L185.1,53.2z"/>
	<path class="st4" d="M191.3,53.9c0,0.3,0,0.6-0.2,0.9c-0.1,0.3-0.3,0.5-0.4,0.7c-0.2,0.2-0.4,0.3-0.7,0.4c-0.3,0.1-0.6,0.2-0.9,0.2
		c-0.3,0-0.7-0.1-0.9-0.2c-0.3-0.1-0.5-0.3-0.7-0.4c-0.2-0.2-0.3-0.4-0.4-0.7c-0.1-0.3-0.2-0.6-0.2-0.9v-0.9c0-0.3,0-0.6,0.2-0.9
		c0.1-0.3,0.3-0.5,0.4-0.7c0.2-0.2,0.4-0.3,0.7-0.4s0.6-0.2,0.9-0.2c0.3,0,0.7,0.1,0.9,0.2c0.3,0.1,0.5,0.3,0.7,0.4
		c0.2,0.2,0.3,0.4,0.4,0.7c0.1,0.3,0.2,0.6,0.2,0.9V53.9z M190.1,53c0-0.3-0.1-0.7-0.3-0.9c-0.2-0.2-0.4-0.3-0.7-0.3
		s-0.5,0.1-0.7,0.3c-0.2,0.2-0.3,0.5-0.3,0.9v0.9c0,0.3,0.1,0.7,0.3,0.9c0.2,0.2,0.4,0.3,0.7,0.3s0.5-0.1,0.7-0.3
		c0.2-0.2,0.3-0.5,0.3-0.9V53z"/>
	<path class="st4" d="M193.4,51v2.8c0,0.3,0.1,0.7,0.3,0.9c0.2,0.2,0.3,0.3,0.7,0.3c0.3,0,0.5-0.1,0.7-0.3c0.2-0.3,0.3-0.5,0.3-0.9
		v-2.9h1.2v4.9h-1.2v-0.4c-0.1,0.2-0.3,0.3-0.5,0.4c-0.2,0.1-0.4,0.2-0.8,0.2c-0.3,0-0.5,0-0.8-0.2c-0.3-0.1-0.4-0.3-0.6-0.4
		c-0.2-0.2-0.3-0.4-0.3-0.7c-0.1-0.3-0.2-0.6-0.2-0.9v-3L193.4,51L193.4,51z"/>
	<path class="st4" d="M200.4,55.9v-2.8c0-0.3-0.1-0.7-0.3-0.9c-0.2-0.2-0.3-0.3-0.7-0.3c-0.3,0-0.5,0.1-0.7,0.3
		c-0.2,0.3-0.3,0.5-0.3,0.9v2.8h-1.2V51h1.2v0.3c0.1-0.2,0.3-0.3,0.5-0.3c0.2-0.1,0.4-0.2,0.8-0.2c0.5,0,0.9,0.2,1.3,0.5
		c0.3,0.3,0.4,0.9,0.4,1.5v2.9L200.4,55.9L200.4,55.9L200.4,55.9z"/>
	<path class="st4" d="M205.6,55.1c-0.1,0.2-0.3,0.3-0.4,0.4s-0.4,0.2-0.8,0.2c-0.3,0-0.5-0.1-0.8-0.2c-0.3-0.1-0.4-0.3-0.6-0.4
		s-0.3-0.4-0.3-0.7s-0.2-0.6-0.2-0.9v-0.4c0-0.3,0-0.6,0.2-0.9c0.1-0.3,0.2-0.5,0.3-0.7c0.2-0.2,0.3-0.3,0.6-0.4
		c0.3-0.1,0.5-0.2,0.8-0.2c0.3,0,0.6,0.1,0.8,0.2c0.2,0.1,0.3,0.3,0.4,0.4v-0.4h1.2v4.5c0,0.3-0.1,0.5-0.2,0.8
		c-0.1,0.3-0.3,0.4-0.4,0.6c-0.2,0.2-0.4,0.3-0.7,0.4s-0.6,0.2-0.9,0.2h-1.4v-0.9h1.4c0.3,0,0.5-0.1,0.8-0.3
		c0.2-0.2,0.3-0.3,0.3-0.7L205.6,55.1L205.6,55.1z M205.6,53.1c0-0.3-0.1-0.7-0.3-0.9c-0.2-0.3-0.4-0.3-0.7-0.3s-0.5,0.1-0.7,0.3
		c-0.2,0.2-0.3,0.5-0.3,0.9v0.5c0,0.3,0.1,0.7,0.3,0.9s0.4,0.3,0.7,0.3c0.2,0,0.3,0,0.3-0.1c0.1-0.1,0.2-0.2,0.3-0.3
		s0.2-0.3,0.2-0.3c0-0.2,0.1-0.3,0.1-0.5L205.6,53.1L205.6,53.1z"/>
</g>
</svg>
