<?xml version="1.0" encoding="utf-8"?>
<!-- Generator: Adobe Illustrator 26.0.1, SVG Export Plug-In . SVG Version: 6.00 Build 0)  -->
<svg version="1.1" id="Layer_1" xmlns="http://www.w3.org/2000/svg" xmlns:xlink="http://www.w3.org/1999/xlink" x="0px" y="0px"
	 viewBox="0 0 35 35" style="enable-background:new 0 0 35 35;" xml:space="preserve">
<style type="text/css">
	.st0{fill:#FFFFFF;}
</style>
<g>
	<path class="st0" d="M32.51,18.2L18.52,6.6c-0.29-0.26-0.65-0.4-1.02-0.4c-0.37,0-0.74,0.13-1.02,0.4L2.49,18.2
		c-0.64,0.53-0.73,1.47-0.2,2.11c0.53,0.64,1.47,0.73,2.11,0.2L17.5,9.65l13.1,10.86c0.64,0.53,1.58,0.44,2.11-0.2
		S33.15,18.73,32.51,18.2z"/>
	<path class="st0" d="M26.92,26.05l-8.78-7.28c-0.18-0.17-0.41-0.25-0.64-0.25c-0.23,0-0.46,0.08-0.64,0.25l-8.78,7.28
		c-0.4,0.33-0.46,0.93-0.12,1.33c0.33,0.4,0.93,0.46,1.33,0.12l8.22-6.81l8.22,6.81c0.4,0.33,0.99,0.28,1.33-0.12
		C27.38,26.98,27.32,26.38,26.92,26.05z"/>
</g>
</svg>
