<?xml version="1.0" encoding="utf-8"?>
<!-- Generator: Adobe Illustrator 26.0.1, SVG Export Plug-In . SVG Version: 6.00 Build 0)  -->
<svg version="1.1" id="Layer_1" xmlns="http://www.w3.org/2000/svg" xmlns:xlink="http://www.w3.org/1999/xlink" x="0px" y="0px"
	 viewBox="0 0 750 250" style="enable-background:new 0 0 750 250;" xml:space="preserve">
<style type="text/css">
	.st0{fill:#D3D2D2;}
	.st1{fill:#5C597A;}
	.st2{fill:none;}
</style>
<g>
	<g>
		<polygon class="st0" points="287.52,82.16 253.5,89.5 259.31,61.76 		"/>
	</g>
	<g>
		<polygon class="st0" points="295.37,69.51 278.56,52.23 292.66,45.55 		"/>
	</g>
	<g>
		<polygon class="st1" points="287.52,76.16 253.5,83.5 259.31,55.76 		"/>
	</g>
	<g>
		<polygon class="st1" points="295.37,63.51 278.56,46.23 292.66,39.55 		"/>
	</g>
	<g>
		<path class="st1" d="M345.8,162.48h-24v-20.72h24V162.48z M323.8,160.48h20v-16.72h-20V160.48z"/>
	</g>
	<g>
		<path class="st1" d="M381.58,162.48h-24v-20.72h24V162.48z M359.58,160.48h20v-16.72h-20V160.48z"/>
	</g>
	<g>
		<path class="st1" d="M417.36,162.48h-24v-20.72h24V162.48z M395.36,160.48h20v-16.72h-20V160.48z"/>
	</g>
	<g>
		<path class="st1" d="M345.8,199.67h-24v-20.72h24V199.67z M323.8,197.67h20v-16.72h-20V197.67z"/>
	</g>
	<g>
		<path class="st1" d="M381.58,199.67h-24v-20.72h24V199.67z M359.58,197.67h20v-16.72h-20V197.67z"/>
	</g>
	<g>
		<path class="st1" d="M438.56,220.69c-1.65,0-3.28-0.62-4.52-1.81l-12.15-11.67c-2.61-2.51-2.7-6.67-0.19-9.29
			c1.21-1.26,2.84-1.98,4.6-2.01c1.75-0.04,3.42,0.61,4.68,1.82l7.56,7.25l22.38-22.4c1.23-1.24,2.88-1.92,4.64-1.92
			s3.41,0.68,4.64,1.92l0,0c2.56,2.56,2.56,6.73,0,9.29l-26.79,26.82c-0.51,0.51-1.11,0.92-1.83,1.27
			C440.62,220.45,439.58,220.69,438.56,220.69z M426.43,197.91c-0.03,0-0.07,0-0.1,0c-1.22,0.03-2.36,0.52-3.2,1.4
			c-1.74,1.82-1.68,4.71,0.13,6.46l12.15,11.67c1.4,1.34,3.51,1.63,5.26,0.73c0.55-0.26,0.96-0.54,1.31-0.89l26.8-26.82
			c1.78-1.78,1.78-4.68,0-6.46c-0.86-0.86-2-1.33-3.23-1.33c-1.22,0-2.37,0.47-3.23,1.33l-23.77,23.78l-8.97-8.61
			C428.73,198.36,427.62,197.91,426.43,197.91z"/>
	</g>
	<path class="st2" d="M444.66,242.55c11.34,0,21.63-4.54,29.17-11.9h-58.34C423.03,238.01,433.32,242.55,444.66,242.55z"/>
	<path class="st2" d="M486.5,200.68c0-11.64-4.77-22.18-12.46-29.78v59.55C481.73,222.86,486.5,212.32,486.5,200.68z"/>
	<path class="st2" d="M319.47,100.42h2.34c2.07,0,3.75-1.68,3.75-3.75V85.72v-2.5V72.27c0-2.07-1.68-3.75-3.75-3.75h-2.34
		c-2.07,0-3.75,1.68-3.75,3.75v10.95v2.5v10.95C315.72,98.74,317.41,100.42,319.47,100.42z"/>
	<path class="st2" d="M455.58,102.42h-2.34c-3.17,0-5.75-2.58-5.75-5.75V85.72H327.56v10.95c0,3.17-2.58,5.75-5.75,5.75h-2.34
		c-3.17,0-5.75-2.58-5.75-5.75V85.72h-9.96v31.81h167.78V85.72h-10.22v10.95C461.32,99.85,458.74,102.42,455.58,102.42z"/>
	<path class="st1" d="M461.32,83.23V72.28c0-3.17-2.58-5.75-5.75-5.75h-2.34c-3.17,0-5.75,2.58-5.75,5.75v10.95H327.56V72.28
		c0-3.17-2.58-5.75-5.75-5.75h-2.34c-3.17,0-5.75,2.58-5.75,5.75v10.95h-12.46v78.25h2.49v-41.95h167.78v7.92h2.49V83.22h-12.7
		V83.23z M449.48,83.23V72.28c0-2.07,1.68-3.75,3.75-3.75h2.34c2.07,0,3.75,1.68,3.75,3.75v10.95v2.5v10.95
		c0,2.07-1.68,3.75-3.75,3.75h-2.34c-2.07,0-3.75-1.68-3.75-3.75V85.73V83.23z M315.72,85.72v-2.5V72.27c0-2.07,1.68-3.75,3.75-3.75
		h2.34c2.07,0,3.75,1.68,3.75,3.75v10.95v2.5v10.95c0,2.07-1.68,3.75-3.75,3.75h-2.34c-2.07,0-3.75-1.68-3.75-3.75V85.72z
		 M471.54,117.54H303.76V85.73h9.96v10.95c0,3.17,2.58,5.75,5.75,5.75h2.34c3.17,0,5.75-2.58,5.75-5.75V85.73h119.92v10.95
		c0,3.17,2.58,5.75,5.75,5.75h2.34c3.17,0,5.75-2.58,5.75-5.75V85.73h10.22L471.54,117.54L471.54,117.54z"/>
	<path class="st2" d="M431.15,143.76v15.19c4.26-1.39,8.8-2.14,13.52-2.14c2.2,0,4.37,0.17,6.48,0.49v-13.54L431.15,143.76
		L431.15,143.76z"/>
	<path class="st2" d="M431.15,158.95c4.26-1.39,8.8-2.14,13.52-2.14c2.2,0,4.37,0.17,6.48,0.49v-13.54h-20V158.95z"/>
	<path class="st2" d="M395.36,197.67h5.57c0.41-5.98,2.01-11.63,4.59-16.72h-10.15v16.72H395.36z"/>
	<path class="st1" d="M474.04,168.15v-32.17h-2.49v30.09c-5.3-4.13-11.57-7.07-18.4-8.42v-15.89h-24v17.9
		c-9.56,3.63-17.52,10.52-22.54,19.29h-13.24v20.72h7.48c-0.01,0.34-0.02,0.67-0.02,1.01c0,3.41,0.4,6.73,1.14,9.91l1.95-0.42
		c-0.71-3.05-1.1-6.23-1.1-9.49c0-0.34,0.01-0.67,0.02-1.01c0.02-0.67,0.04-1.34,0.09-2c0.43-6.01,2.13-11.68,4.84-16.72
		c0.36-0.68,0.75-1.34,1.15-2c4.69-7.69,11.78-13.75,20.22-17.14c1.25-0.5,2.53-0.94,3.83-1.32c3.71-1.08,7.63-1.67,11.68-1.67
		c2.21,0,4.37,0.18,6.48,0.51c0.67,0.11,1.34,0.23,2,0.36c6.9,1.43,13.19,4.56,18.4,8.94c0.86,0.72,1.69,1.48,2.49,2.27
		c7.69,7.6,12.46,18.14,12.46,29.78s-4.77,22.18-12.46,29.78v0.2h-0.21c-7.54,7.35-17.83,11.9-29.17,11.9
		c-11.34,0-21.63-4.54-29.17-11.9c-0.82-0.8-1.61-1.63-2.36-2.5c-2.95-3.39-5.37-7.25-7.12-11.46l-1.98,0.43
		c1.62,4.01,3.82,7.72,6.49,11.04H303.76v-55.32h-2.49v57.82h111.42c8,8.55,19.37,13.9,31.97,13.9c24.17,0,43.84-19.68,43.84-43.87
		C488.5,187.79,482.91,176.18,474.04,168.15z M400.93,197.67h-5.57v-16.72h10.15C402.95,186.03,401.34,191.69,400.93,197.67z
		 M451.14,157.3c-2.12-0.32-4.28-0.49-6.48-0.49c-4.72,0-9.26,0.76-13.52,2.14v-15.19h20V157.3z"/>
	<path class="st0" d="M474.04,230.65v-0.2c-0.07,0.07-0.14,0.13-0.21,0.2H474.04z"/>
</g>
<g>
	<g>
		<path class="st1" d="M84.94,134.36H44.33v-8.6h40.61V134.36z M47.33,131.34h34.62v-2.55H47.33V131.34z"/>
	</g>
	<g>
		<path class="st1" d="M143.62,134.36H103v-8.6h40.61L143.62,134.36L143.62,134.36z M106,131.34h34.62v-2.55H106V131.34z"/>
	</g>
	<g>
		<path class="st1" d="M202.29,134.36h-40.61v-8.6h40.61V134.36z M164.68,131.34h34.62v-2.55h-34.62V131.34z"/>
	</g>
	<g>
		<path class="st1" d="M84.94,224.24H44.33v-8.6h40.61V224.24z M47.33,221.22h34.62v-2.55H47.33V221.22z"/>
	</g>
	<g>
		<path class="st1" d="M143.62,224.24H103v-8.6h40.61L143.62,224.24L143.62,224.24z M106,221.22h34.62v-2.55H106V221.22z"/>
	</g>
	<g>
		<path class="st1" d="M202.29,224.24h-40.61v-8.6h40.61V224.24z M164.68,221.22h34.62v-2.55h-34.62V221.22z"/>
	</g>
	<g>
		<path class="st1" d="M212.97,230.3H33.66v-9.09h179.31V230.3z M36.65,227.28h173.32v-3.05H36.65V227.28z"/>
	</g>
	<g>
		<path class="st1" d="M224.62,237.67H22v-10.4h202.62V237.67z M25,234.65h196.63v-4.35H25V234.65z"/>
	</g>
	<g>
		<path class="st1" d="M224.62,128.79H22v-7.93l101.31-79.48l101.31,79.48V128.79z M25,125.76h196.63v-3.42l-98.31-77.13L25,122.34
			V125.76z"/>
	</g>
	<g>
		<path class="st1" d="M204.62,121.86H42v-6.79l81.31-63.79l81.31,63.79V121.86z M45,118.84h156.62v-2.29l-78.31-61.44L45,116.55
			V118.84z"/>
	</g>
	<g>
		<polygon class="st0" points="205.32,82.77 202.25,40.67 234.27,52.31 		"/>
	</g>
	<g>
		<polygon class="st0" points="219.05,94.31 242.4,77.02 248,95.08 		"/>
	</g>
	<g>
		<polygon class="st1" points="202.82,76.54 199.75,34.45 231.77,46.08 		"/>
	</g>
	<g>
		<polygon class="st1" points="216.56,88.09 239.9,70.8 245.5,88.86 		"/>
	</g>
	<g>
		<polygon class="st1" points="46.42,131.34 46.42,145.9 49.41,145.9 49.41,134.37 79.86,134.37 79.86,215.64 49.41,215.64 
			49.41,153.77 46.42,153.77 46.42,218.66 82.85,218.66 82.85,131.34 		"/>
	</g>
	<g>
		<polygon class="st1" points="105.09,131.34 105.09,189.86 108.09,189.86 108.09,134.37 138.53,134.37 138.53,215.64 
			108.09,215.64 108.09,197.74 105.09,197.74 105.09,218.66 141.53,218.66 141.53,131.34 		"/>
	</g>
	<g>
		<polygon class="st1" points="163.77,131.34 163.77,156.96 166.77,156.96 166.77,134.37 197.21,134.37 197.21,215.64 
			166.77,215.64 166.77,164.84 163.77,164.84 163.77,218.66 200.2,218.66 200.2,131.34 		"/>
	</g>
</g>
<g>
	<rect x="707.19" y="106.63" class="st2" width="3.68" height="30.37"/>
	<path class="st2" d="M664.49,88.39c5.52-6.04,8.31-11.83,8.06-16.75c-0.16-3.22-1.57-6.05-4.19-8.4c-2.5-2.24-5.29-3.35-8.27-3.35
		c-5.1,0-10.79,3.25-16.65,9.66c-8.63,9.43-15.09,22.8-14.71,30.43c0.1,2.08,0.71,3.63,1.79,4.6c0.02,0.02,0.04,0.03,0.06,0.05
		h10.66C648.73,101.94,657.98,95.51,664.49,88.39z"/>
	<path class="st2" d="M626.2,99.98c0.38-7.63-6.08-21-14.71-30.43c-9.28-10.15-18.13-12.39-24.92-6.31
		c-2.62,2.35-4.03,5.17-4.19,8.4c-0.24,4.92,2.54,10.72,8.06,16.75c6.52,7.12,15.77,13.56,23.24,16.24h10.66
		c0.02-0.02,0.04-0.03,0.06-0.05C625.49,103.61,626.1,102.06,626.2,99.98z"/>
	<path class="st2" d="M627.47,103.58c-0.15,0.37-0.34,0.72-0.54,1.05h1.09C627.81,104.3,627.63,103.96,627.47,103.58z"/>
	<path class="st1" d="M707.19,104.63h-60.87c6.78-3.3,14.06-8.78,19.66-14.89c5.97-6.53,8.86-12.65,8.58-18.2
		c-0.18-3.72-1.86-7.11-4.85-9.79c-3.61-3.24-13.53-9.08-27.73,6.45c-6.98,7.63-12.57,17.83-14.51,25.79
		c-1.93-7.96-7.53-18.16-14.51-25.79c-14.2-15.53-24.12-9.68-27.73-6.45c-2.99,2.68-4.67,6.06-4.85,9.79
		c-0.28,5.55,2.61,11.67,8.58,18.2c5.59,6.12,12.88,11.59,19.66,14.89h-60.36h-7.4V139h7.4v97.11h158.92V139h5.68v-34.37H707.19z
		 M643.45,69.55c5.86-6.41,11.55-9.66,16.65-9.66c2.98,0,5.76,1.11,8.27,3.35c2.62,2.35,4.03,5.17,4.19,8.4
		c0.24,4.92-2.54,10.72-8.06,16.75c-6.51,7.12-15.77,13.56-23.23,16.24H630.6c-0.02-0.02-0.04-0.03-0.06-0.05
		c-1.09-0.97-1.69-2.52-1.79-4.6C628.36,92.35,634.82,78.98,643.45,69.55z M627.47,103.58c0.15,0.37,0.34,0.72,0.54,1.05h-1.09
		C627.13,104.3,627.32,103.96,627.47,103.58z M590.45,88.39c-5.52-6.04-8.31-11.83-8.06-16.75c0.16-3.22,1.57-6.05,4.19-8.4
		c6.78-6.08,15.63-3.84,24.92,6.31c8.63,9.43,15.09,22.8,14.71,30.43c-0.1,2.08-0.71,3.63-1.79,4.6c-0.02,0.02-0.04,0.03-0.06,0.05
		H613.7C606.22,101.94,596.96,95.51,590.45,88.39z M710.86,137h-3.68h-2h-49.15v2h49.15v95.11H645.5v-28.86h-2v28.86h-34.2v-67.96
		h-2v67.96h-57.04V139h46.51v-2h-46.51h-2h-5.4v-30.37h5.4h2h57.04v42.83h2v-42.83h4.16H625h4.94h11.54h2.03v82.13h2v-82.13h59.68h2
		h3.68V137H710.86z"/>
	<g>
		<polygon class="st0" points="674.12,56.05 704.88,46.62 687.62,27.11 		"/>
	</g>
	<g>
		<polygon class="st0" points="662.06,49.49 667.78,28.16 653.38,29.16 		"/>
	</g>
	<g>
		<polygon class="st1" points="671.12,51.05 701.88,41.62 684.62,22.11 		"/>
	</g>
	<g>
		<polygon class="st1" points="659.06,44.49 664.78,23.16 650.38,24.16 		"/>
	</g>
</g>
</svg>
