<?xml version="1.0" encoding="utf-8"?>
<!-- Generator: Adobe Illustrator 26.0.1, SVG Export Plug-In . SVG Version: 6.00 Build 0)  -->
<svg version="1.1" id="Layer_1" xmlns="http://www.w3.org/2000/svg" xmlns:xlink="http://www.w3.org/1999/xlink" x="0px" y="0px"
	 viewBox="0 0 750 250" style="enable-background:new 0 0 750 250;" xml:space="preserve">
<style type="text/css">
	.st0{fill:#D3D2D2;}
	.st1{fill:none;}
</style>
<g>
	<g>
		<polygon class="st0" points="287.52,83.11 253.5,90.46 259.31,62.71 		"/>
	</g>
	<g>
		<polygon class="st0" points="295.37,70.46 278.56,53.19 292.66,46.5 		"/>
	</g>
	<g>
		<path class="st0" d="M345.8,163.43h-24v-20.72h24V163.43z M323.8,161.43h20v-16.72h-20V161.43z"/>
	</g>
	<g>
		<path class="st0" d="M381.58,163.43h-24v-20.72h24V163.43z M359.58,161.43h20v-16.72h-20V161.43z"/>
	</g>
	<g>
		<path class="st0" d="M417.36,163.43h-24v-20.72h24V163.43z M395.36,161.43h20v-16.72h-20V161.43z"/>
	</g>
	<g>
		<path class="st0" d="M345.8,200.62h-24V179.9h24V200.62z M323.8,198.62h20V181.9h-20V198.62z"/>
	</g>
	<g>
		<path class="st0" d="M381.58,200.62h-24V179.9h24V200.62z M359.58,198.62h20V181.9h-20V198.62z"/>
	</g>
	<g>
		<path class="st0" d="M438.56,221.64c-1.65,0-3.28-0.62-4.52-1.81l-12.15-11.67c-2.61-2.51-2.7-6.67-0.19-9.29
			c1.21-1.26,2.84-1.98,4.6-2.01c1.75-0.04,3.42,0.61,4.68,1.82l7.56,7.25l22.38-22.4c1.23-1.24,2.88-1.92,4.64-1.92
			s3.41,0.68,4.64,1.92l0,0c2.56,2.56,2.56,6.73,0,9.29l-26.79,26.82c-0.51,0.51-1.11,0.92-1.83,1.27
			C440.62,221.4,439.58,221.64,438.56,221.64z M426.43,198.86c-0.03,0-0.07,0-0.1,0c-1.22,0.03-2.36,0.52-3.2,1.4
			c-1.74,1.82-1.68,4.71,0.13,6.46l12.15,11.67c1.4,1.34,3.51,1.63,5.26,0.73c0.55-0.26,0.96-0.54,1.31-0.89l26.8-26.82
			c1.78-1.78,1.78-4.68,0-6.46c-0.86-0.86-2-1.33-3.23-1.33c-1.22,0-2.37,0.47-3.23,1.33l-23.77,23.78l-8.97-8.61
			C428.73,199.31,427.62,198.86,426.43,198.86z"/>
	</g>
	<path class="st1" d="M444.66,243.5c11.34,0,21.63-4.54,29.17-11.9h-58.34C423.03,238.96,433.32,243.5,444.66,243.5z"/>
	<path class="st1" d="M486.5,201.63c0-11.64-4.77-22.18-12.46-29.78v59.55C481.73,223.81,486.5,213.27,486.5,201.63z"/>
	<path class="st1" d="M319.47,101.37h2.34c2.07,0,3.75-1.68,3.75-3.75V86.67v-2.5V73.22c0-2.07-1.68-3.75-3.75-3.75h-2.34
		c-2.07,0-3.75,1.68-3.75,3.75v10.95v2.5v10.95C315.72,99.69,317.41,101.37,319.47,101.37z"/>
	<path class="st1" d="M455.58,103.37h-2.34c-3.17,0-5.75-2.58-5.75-5.75V86.67H327.56v10.95c0,3.17-2.58,5.75-5.75,5.75h-2.34
		c-3.17,0-5.75-2.58-5.75-5.75V86.67h-9.96v31.81h167.78V86.67h-10.22v10.95C461.32,100.8,458.74,103.37,455.58,103.37z"/>
	<path class="st0" d="M461.32,84.18V73.22c0-3.17-2.58-5.75-5.75-5.75h-2.34c-3.17,0-5.75,2.58-5.75,5.75v10.95H327.56V73.22
		c0-3.17-2.58-5.75-5.75-5.75h-2.34c-3.17,0-5.75,2.58-5.75,5.75v10.95h-12.46v78.25h2.49v-41.95h167.78v7.92h2.49V84.18H461.32z
		 M449.48,84.18V73.22c0-2.07,1.68-3.75,3.75-3.75h2.34c2.07,0,3.75,1.68,3.75,3.75v10.95v2.5v10.95c0,2.07-1.68,3.75-3.75,3.75
		h-2.34c-2.07,0-3.75-1.68-3.75-3.75V86.67V84.18z M315.72,86.67v-2.5V73.22c0-2.07,1.68-3.75,3.75-3.75h2.34
		c2.07,0,3.75,1.68,3.75,3.75v10.95v2.5v10.95c0,2.07-1.68,3.75-3.75,3.75h-2.34c-2.07,0-3.75-1.68-3.75-3.75V86.67z M471.54,118.49
		H303.76V86.67h9.96v10.95c0,3.17,2.58,5.75,5.75,5.75h2.34c3.17,0,5.75-2.58,5.75-5.75V86.67h119.92v10.95
		c0,3.17,2.58,5.75,5.75,5.75h2.34c3.17,0,5.75-2.58,5.75-5.75V86.67h10.22L471.54,118.49L471.54,118.49z"/>
	<path class="st1" d="M431.15,144.71v15.19c4.26-1.39,8.8-2.14,13.52-2.14c2.2,0,4.37,0.17,6.48,0.49v-13.54L431.15,144.71
		L431.15,144.71z"/>
	<path class="st1" d="M431.15,159.9c4.26-1.39,8.8-2.14,13.52-2.14c2.2,0,4.37,0.17,6.48,0.49v-13.54h-20V159.9z"/>
	<path class="st1" d="M395.36,198.62h5.57c0.41-5.98,2.01-11.63,4.59-16.72h-10.15v16.72H395.36z"/>
	<path class="st0" d="M474.04,169.1v-32.17h-2.49v30.09c-5.3-4.13-11.57-7.07-18.4-8.42v-15.89h-24v17.9
		c-9.56,3.63-17.52,10.52-22.54,19.29h-13.24v20.72h7.48c-0.01,0.34-0.02,0.67-0.02,1.01c0,3.41,0.4,6.73,1.14,9.91l1.95-0.42
		c-0.71-3.05-1.1-6.23-1.1-9.49c0-0.34,0.01-0.67,0.02-1.01c0.02-0.67,0.04-1.34,0.09-2c0.43-6.01,2.13-11.68,4.84-16.72
		c0.36-0.68,0.75-1.34,1.15-2c4.69-7.69,11.78-13.75,20.22-17.14c1.25-0.5,2.53-0.94,3.83-1.32c3.71-1.08,7.63-1.67,11.68-1.67
		c2.21,0,4.37,0.18,6.48,0.51c0.67,0.11,1.34,0.23,2,0.36c6.9,1.43,13.19,4.56,18.4,8.94c0.86,0.72,1.69,1.48,2.49,2.27
		c7.69,7.6,12.46,18.14,12.46,29.78s-4.77,22.18-12.46,29.78v0.2h-0.21c-7.54,7.35-17.83,11.9-29.17,11.9
		c-11.34,0-21.63-4.54-29.17-11.9c-0.82-0.8-1.61-1.63-2.36-2.5c-2.95-3.39-5.37-7.25-7.12-11.46l-1.98,0.43
		c1.62,4.01,3.82,7.72,6.49,11.04H303.76V173.8h-2.49v57.82h111.42c8,8.55,19.37,13.9,31.97,13.9c24.17,0,43.84-19.68,43.84-43.87
		C488.5,188.74,482.91,177.13,474.04,169.1z M400.93,198.62h-5.57V181.9h10.15C402.95,186.99,401.34,192.64,400.93,198.62z
		 M451.14,158.25c-2.12-0.32-4.28-0.49-6.48-0.49c-4.72,0-9.26,0.76-13.52,2.14v-15.19h20V158.25z"/>
	<path class="st0" d="M474.04,231.6v-0.2c-0.07,0.07-0.14,0.13-0.21,0.2H474.04z"/>
</g>
<g>
	<g>
		<path class="st0" d="M84.94,135.19H44.33v-8.6h40.61V135.19z M47.33,132.16h34.62v-2.55H47.33V132.16z"/>
	</g>
	<g>
		<path class="st0" d="M143.62,135.19H103v-8.6h40.61L143.62,135.19L143.62,135.19z M106,132.16h34.62v-2.55H106V132.16z"/>
	</g>
	<g>
		<path class="st0" d="M202.29,135.19h-40.61v-8.6h40.61V135.19z M164.68,132.16h34.62v-2.55h-34.62V132.16z"/>
	</g>
	<g>
		<path class="st0" d="M84.94,225.06H44.33v-8.6h40.61V225.06z M47.33,222.04h34.62v-2.55H47.33V222.04z"/>
	</g>
	<g>
		<path class="st0" d="M143.62,225.06H103v-8.6h40.61L143.62,225.06L143.62,225.06z M106,222.04h34.62v-2.55H106V222.04z"/>
	</g>
	<g>
		<path class="st0" d="M202.29,225.06h-40.61v-8.6h40.61V225.06z M164.68,222.04h34.62v-2.55h-34.62V222.04z"/>
	</g>
	<g>
		<path class="st0" d="M212.97,231.13H33.66v-9.09h179.31V231.13z M36.65,228.1h173.32v-3.05H36.65V228.1z"/>
	</g>
	<g>
		<path class="st0" d="M224.62,238.5H22v-10.4h202.62V238.5z M25,235.48h196.63v-4.35H25V235.48z"/>
	</g>
	<g>
		<path class="st0" d="M224.62,129.61H22v-7.93L123.31,42.2l101.31,79.48V129.61z M25,126.59h196.63v-3.42l-98.31-77.13L25,123.16
			V126.59z"/>
	</g>
	<g>
		<path class="st0" d="M204.62,122.69H42v-6.79l81.31-63.79l81.31,63.79V122.69z M45,119.66h156.62v-2.29l-78.31-61.44L45,117.38
			V119.66z"/>
	</g>
	<g>
		<polygon class="st0" points="205.32,83.59 202.25,41.5 234.27,53.13 		"/>
	</g>
	<g>
		<polygon class="st0" points="219.05,95.14 242.4,77.85 248,95.91 		"/>
	</g>
	<g>
		<polygon class="st0" points="46.42,132.17 46.42,146.72 49.41,146.72 49.41,135.19 79.86,135.19 79.86,216.46 49.41,216.46 
			49.41,154.6 46.42,154.6 46.42,219.49 82.85,219.49 82.85,132.17 		"/>
	</g>
	<g>
		<polygon class="st0" points="105.09,132.17 105.09,190.69 108.09,190.69 108.09,135.19 138.53,135.19 138.53,216.46 
			108.09,216.46 108.09,198.56 105.09,198.56 105.09,219.49 141.53,219.49 141.53,132.17 		"/>
	</g>
	<g>
		<polygon class="st0" points="163.77,132.17 163.77,157.79 166.77,157.79 166.77,135.19 197.21,135.19 197.21,216.46 
			166.77,216.46 166.77,165.66 163.77,165.66 163.77,219.49 200.2,219.49 200.2,132.17 		"/>
	</g>
</g>
<g>
	<rect x="707.32" y="107.42" class="st1" width="3.68" height="30.37"/>
	<path class="st1" d="M664.63,89.18c5.52-6.04,8.31-11.83,8.06-16.75c-0.16-3.22-1.57-6.05-4.19-8.4c-2.5-2.24-5.29-3.35-8.27-3.35
		c-5.1,0-10.79,3.25-16.65,9.66c-8.63,9.43-15.09,22.8-14.71,30.43c0.1,2.08,0.71,3.63,1.79,4.6c0.02,0.02,0.04,0.03,0.06,0.05
		h10.66C648.86,102.74,658.12,96.3,664.63,89.18z"/>
	<path class="st1" d="M626.34,100.77c0.38-7.63-6.08-21-14.71-30.43c-9.28-10.15-18.13-12.39-24.92-6.31
		c-2.62,2.35-4.03,5.17-4.19,8.4c-0.24,4.92,2.54,10.72,8.06,16.75c6.52,7.12,15.77,13.56,23.24,16.24h10.66
		c0.02-0.02,0.04-0.03,0.06-0.05C625.63,104.4,626.23,102.85,626.34,100.77z"/>
	<path class="st1" d="M627.61,104.38c-0.15,0.37-0.34,0.72-0.54,1.05h1.09C627.95,105.1,627.76,104.75,627.61,104.38z"/>
	<path class="st0" d="M707.32,105.42h-60.87c6.78-3.3,14.06-8.78,19.66-14.89c5.97-6.53,8.86-12.65,8.58-18.2
		c-0.18-3.72-1.86-7.11-4.85-9.79c-3.61-3.24-13.53-9.08-27.73,6.45c-6.98,7.63-12.57,17.83-14.51,25.79
		c-1.93-7.96-7.53-18.16-14.51-25.79c-14.2-15.53-24.12-9.68-27.73-6.45c-2.99,2.68-4.67,6.06-4.85,9.79
		c-0.28,5.55,2.61,11.67,8.58,18.2c5.59,6.12,12.88,11.59,19.66,14.89H548.4H541v34.37h7.4v97.11h158.92v-97.11H713v-34.37H707.32z
		 M643.59,70.34c5.86-6.41,11.55-9.66,16.65-9.66c2.98,0,5.76,1.11,8.27,3.35c2.62,2.35,4.03,5.17,4.19,8.4
		c0.24,4.92-2.54,10.72-8.06,16.75c-6.51,7.12-15.77,13.56-23.23,16.24h-10.66c-0.02-0.02-0.04-0.03-0.06-0.05
		c-1.09-0.97-1.69-2.52-1.79-4.6C628.5,93.14,634.96,79.78,643.59,70.34z M627.61,104.38c0.15,0.37,0.34,0.72,0.54,1.05h-1.09
		C627.27,105.1,627.45,104.75,627.61,104.38z M590.58,89.18c-5.52-6.04-8.31-11.83-8.06-16.75c0.16-3.22,1.57-6.05,4.19-8.4
		c6.78-6.08,15.63-3.84,24.92,6.31c8.63,9.43,15.09,22.8,14.71,30.43c-0.1,2.08-0.71,3.63-1.79,4.6c-0.02,0.02-0.04,0.03-0.06,0.05
		h-10.66C606.36,102.74,597.1,96.31,590.58,89.18z M711,137.79h-3.68h-2h-49.15v2h49.15v95.11h-59.68v-28.86h-2v28.86h-34.2v-67.96
		h-2v67.96H550.4v-95.11h46.51v-2H550.4h-2H543v-30.37h5.4h2h57.04v42.83h2v-42.83h4.16h11.54h4.94h11.54h2.03v82.13h2v-82.13h59.68
		h2H711V137.79z"/>
	<g>
		<polygon class="st0" points="674.26,56.84 705.01,47.42 687.75,27.9 		"/>
	</g>
	<g>
		<polygon class="st0" points="662.2,50.28 667.92,28.95 653.52,29.95 		"/>
	</g>
</g>
</svg>
