<?xml version="1.0" encoding="utf-8"?>
<!-- Generator: Adobe Illustrator 26.0.1, SVG Export Plug-In . SVG Version: 6.00 Build 0)  -->
<svg version="1.1" id="Layer_1" xmlns="http://www.w3.org/2000/svg" xmlns:xlink="http://www.w3.org/1999/xlink" x="0px" y="0px"
	 viewBox="0 0 60 30" style="enable-background:new 0 0 60 30;" xml:space="preserve">
<style type="text/css">
	.st0{fill:#FFFFFF;}
	.st1{fill:#D3D3D3;}
</style>
<path class="st0" d="M38.62,15.46c-0.02-0.03-0.03-0.06-0.05-0.09c-0.01-0.03-0.02-0.06-0.03-0.09c-0.01-0.03-0.02-0.06-0.03-0.09
	c-0.01-0.03-0.01-0.06-0.01-0.09c0-0.03-0.01-0.06-0.01-0.09c0-0.03,0.01-0.06,0.01-0.09c0-0.03,0-0.06,0.01-0.09
	c0.01-0.03,0.02-0.06,0.03-0.09c0.01-0.03,0.02-0.06,0.03-0.09s0.03-0.06,0.05-0.09c0.02-0.03,0.03-0.06,0.05-0.08
	c0.02-0.03,0.04-0.05,0.06-0.08c0.02-0.02,0.04-0.05,0.06-0.07L49.8,3.29c0.39-0.39,1.02-0.39,1.41-0.01s0.39,1.01,0.01,1.39
	L40.89,15l10.32,10.32c0.39,0.39,0.38,1.01-0.01,1.39c-0.19,0.19-0.45,0.28-0.7,0.28c-0.26,0-0.51-0.1-0.71-0.29L38.79,15.69
	c-0.02-0.02-0.04-0.05-0.06-0.07c-0.02-0.03-0.05-0.05-0.06-0.08C38.65,15.51,38.63,15.48,38.62,15.46z"/>
<path class="st1" d="M8.62,15.46c-0.02-0.03-0.03-0.06-0.05-0.09c-0.01-0.03-0.02-0.06-0.03-0.09c-0.01-0.03-0.02-0.06-0.03-0.09
	c-0.01-0.03-0.01-0.06-0.01-0.09c0-0.03-0.01-0.06-0.01-0.09c0-0.03,0.01-0.06,0.01-0.09c0-0.03,0-0.06,0.01-0.09
	c0.01-0.03,0.02-0.06,0.03-0.09c0.01-0.03,0.02-0.06,0.03-0.09c0.01-0.03,0.03-0.06,0.05-0.09c0.02-0.03,0.03-0.06,0.05-0.08
	c0.02-0.03,0.04-0.05,0.06-0.08c0.02-0.02,0.04-0.05,0.06-0.07L19.8,3.29c0.39-0.39,1.02-0.39,1.41-0.01s0.39,1.01,0.01,1.39
	L10.89,15l10.32,10.32c0.39,0.39,0.38,1.01-0.01,1.39c-0.19,0.19-0.45,0.28-0.7,0.28c-0.26,0-0.51-0.1-0.71-0.29L8.79,15.69
	c-0.02-0.02-0.04-0.05-0.06-0.07c-0.02-0.03-0.05-0.05-0.06-0.08C8.65,15.51,8.63,15.48,8.62,15.46z"/>
</svg>
