<svg xmlns="http://www.w3.org/2000/svg" width="79.1" height="80.032" viewBox="0 0 79.1 80.032">
  <g id="icon02" transform="translate(-976.125 -1481.218)">
    <path id="패스_580" data-name="패스 580" d="M7738.125,1505.125h14.5v-5.5l5-13.625,5.5,13.625v5.5h9.125s-10-7.25,4.375-20c13.625,13.125,4.5,20,4.5,20h11l9.625-18.625,13.125,6.25L7801.75,1519h13.125l-9.75,43.25h-67Z" transform="translate(-6761 -2)" fill="none" stroke="#fff" stroke-width="2"/>
    <line id="선_74" data-name="선 74" x2="11" transform="translate(991.5 1497.5)" fill="none" stroke="#fff" stroke-width="2"/>
    <path id="패스_581" data-name="패스 581" d="M7802.25,1519H7748.5l-10,42.917" transform="translate(-6761 -2)" fill="none" stroke="#fff" stroke-width="2"/>
    <line id="선_77" data-name="선 77" y2="15" transform="translate(1010.5 1502.5)" fill="none" stroke="#fff" stroke-width="2"/>
    <line id="선_78" data-name="선 78" y2="15" transform="translate(1020.5 1502.5)" fill="none" stroke="#fff" stroke-width="2"/>
    <path id="패스_582" data-name="패스 582" d="M7752.5,1505.75v12.917" transform="translate(-6760.9 -2)" fill="none" stroke="#fff" stroke-width="2"/>
    <path id="패스_583" data-name="패스 583" d="M7752.5,1505.75v12.917" transform="translate(-6750.4 -2)" fill="none" stroke="#fff" stroke-width="2"/>
    <path id="패스_584" data-name="패스 584" d="M7752.5,1505.75v14.968" transform="matrix(0.891, 0.454, -0.454, 0.891, -5193.1, -3357.542)" fill="none" stroke="#fff" stroke-width="2"/>
    <line id="선_79" data-name="선 79" x2="14" transform="translate(1008.5 1503.1)" fill="none" stroke="#fff" stroke-width="2"/>
    <rect id="사각형_159" data-name="사각형 159" width="4" height="10" rx="2" transform="translate(1040.67 1497.232) rotate(-60)" fill="#fff"/>
    <rect id="사각형_160" data-name="사각형 160" width="4" height="10" rx="2" transform="translate(1035.92 1505.696) rotate(-60)" fill="#fff"/>
    <g id="사각형_161" data-name="사각형 161" transform="translate(1016 1541)" fill="none" stroke="#fff" stroke-width="2">
      <rect width="18" height="10" stroke="none"/>
      <rect x="1" y="1" width="16" height="8" fill="none"/>
    </g>
  </g>
</svg>
