<svg xmlns="http://www.w3.org/2000/svg" width="86.689" height="106.553" viewBox="0 0 86.689 106.553">
  <g id="icon03" transform="translate(-1161.417 -1453.787)">
    <g id="패스_585" data-name="패스 585" transform="translate(1205 1475.074) rotate(45)" fill="none">
      <path d="M0,0,35.506-15.123,20.383,20.383-14.981,35.365Z" stroke="none"/>
      <path d="M 31.71931838989258 -11.33596801757812 L 1.526607513427734 1.523635864257812 L -11.21291732788086 31.59626770019531 L 18.85971450805664 18.85674285888672 L 31.71931838989258 -11.33596801757812 M 35.50596237182617 -15.12261199951172 L 20.38335227966309 20.38334846496582 L -14.98139762878418 35.36474990844727 L 1.9073486328125e-06 -1.9073486328125e-06 L 35.50596237182617 -15.12261199951172 Z" stroke="none" fill="#fff"/>
    </g>
    <path id="패스_586" data-name="패스 586" d="M7945.167,1496.5v19.25s19.917,16.083,40.75,0V1496.5" transform="translate(-6761 -2)" fill="none" stroke="#fff" stroke-width="2"/>
    <path id="패스_587" data-name="패스 587" d="M7966.1,1487.167l28.567,10.917v5.833" transform="translate(-6761 -2)" fill="none" stroke="#fff" stroke-width="2"/>
    <g id="타원_22" data-name="타원 22" transform="translate(1229 1501)" fill="none" stroke="#fff" stroke-width="2">
      <circle cx="4.5" cy="4.5" r="4.5" stroke="none"/>
      <circle cx="4.5" cy="4.5" r="3.5" fill="none"/>
    </g>
    <g id="패스_588" data-name="패스 588" transform="translate(1229 1508)" fill="none">
      <path d="M3,0H7l3,15H0Z" stroke="none"/>
      <path d="M 4.63960599899292 2 L 2.439606189727783 13 L 7.560394287109375 13 L 5.36039400100708 2 L 4.63960599899292 2 M 3 0 L 7 0 L 10 15 L 0 15 L 3 0 Z" stroke="none" fill="#fff"/>
    </g>
    <path id="패스_589" data-name="패스 589" d="M7992.833,1515.917H7986" transform="translate(-6761 -2)" fill="none" stroke="#fff" stroke-width="2"/>
    <path id="패스_590" data-name="패스 590" d="M7945.167,1515.917h-7.917s-8.667.25-8.75,9.667c0,8.8,8.75,9.5,8.75,9.5h68s2.833.249,2.833,2.75-2,2.667-2.833,2.75-68,0-68,0-8.75-.676-8.75,8.333c.667,7.167,8.75,6.833,8.75,6.833h68s3.083.5,2.833,3.417c-.5,1.917-2.833,2.167-2.833,2.167h-68s-13.833.417-13.833-12.417S7934.5,1534.5,7934.5,1534.5" transform="translate(-6761 -2)" fill="none" stroke="#fff" stroke-width="2"/>
    <path id="패스_591" data-name="패스 591" d="M7992.917,1521.25h-16.25" transform="translate(-6762.167 -2)" fill="none" stroke="#fff" stroke-width="2"/>
    <path id="패스_592" data-name="패스 592" d="M7956.5,1521.25h-18.25s-4.167.658-4.167,4.25a4.062,4.062,0,0,0,4.167,4.083h55.917s5.167,1.167,1.833,5.083h0" transform="translate(-6761 -2)" fill="none" stroke="#fff" stroke-width="2"/>
    <path id="패스_593" data-name="패스 593" d="M7994.5,1524.417v5.167" transform="translate(-6761 -2)" fill="none" stroke="#fff" stroke-width="2"/>
    <line id="선_81" data-name="선 81" y2="15" transform="translate(1244.5 1538.5)" fill="none" stroke="#fff" stroke-width="2"/>
    <line id="선_82" data-name="선 82" x2="26" transform="translate(1218.5 1544.5)" fill="none" stroke="#fff" stroke-width="2"/>
    <line id="선_83" data-name="선 83" x2="37" transform="translate(1175.5 1548.5)" fill="none" stroke="#fff" stroke-width="2"/>
  </g>
</svg>
