<svg xmlns="http://www.w3.org/2000/svg" width="96" height="74" viewBox="0 0 96 74">
  <g id="icon" transform="translate(-685 -1768.6)">
    <g id="패스_576" data-name="패스 576" transform="translate(707.362 1818.6)" fill="none">
      <path d="M6.327,1h8.4L8.4,24H0Z" stroke="none"/>
      <path d="M 7.850673198699951 3 L 2.624417304992676 22 L 6.878390789031982 22 L 12.10464668273926 3 L 7.850673198699951 3 M 6.326521873474121 1 L 14.7290620803833 1 L 8.402542114257812 24 L 1.9073486328125e-06 24 L 6.326521873474121 1 Z" stroke="none" fill="#fff"/>
    </g>
    <g id="패스_577" data-name="패스 577" transform="translate(742.886 1818.6)" fill="none">
      <path d="M8.4,1H0L6.327,24h8.4Z" stroke="none"/>
      <path d="M 2.624417304992676 3 L 7.850673198699951 22 L 12.10464668273926 22 L 6.878390789031982 3 L 2.624417304992676 3 M 1.9073486328125e-06 1 L 8.402542114257812 1 L 14.7290620803833 24 L 6.326521873474121 24 L 1.9073486328125e-06 1 Z" stroke="none" fill="#fff"/>
    </g>
    <g id="사각형_150" data-name="사각형 150" transform="translate(685 1768.6)" fill="none" stroke="#fff" stroke-width="2">
      <rect width="96" height="53" stroke="none"/>
      <rect x="1" y="1" width="94" height="51" fill="none"/>
    </g>
    <g id="타원_21" data-name="타원 21" transform="translate(709 1777.6)" fill="none" stroke="#fff" stroke-width="2">
      <ellipse cx="6" cy="6.5" rx="6" ry="6.5" stroke="none"/>
      <ellipse cx="6" cy="6.5" rx="5" ry="5.5" fill="none"/>
    </g>
    <path id="패스_574" data-name="패스 574" d="M7458.913,1832.736c5.143-2.815,19.657-10.9,19.657-10.9s18.355,11.34,24,14.941" transform="translate(-6772.746 -25.802)" fill="none" stroke="#fff" stroke-linejoin="round" stroke-width="2"/>
    <path id="패스_575" data-name="패스 575" d="M7513.173,1845.026l44.561-27.36L7578.9,1829.6" transform="translate(-6799.173 -24.26)" fill="none" stroke="#fff" stroke-width="2"/>
    <g id="패스_578" data-name="패스 578" transform="translate(760.273 1798.791)" fill="none">
      <path d="M1.47,1.465H3.982A1.436,1.436,0,0,1,5.418,2.9l-.752,26.53A1.436,1.436,0,0,1,3.23,30.867H2.154A1.436,1.436,0,0,1,.718,29.431L.034,2.9A1.436,1.436,0,0,1,1.47,1.465Z" stroke="none"/>
      <path d="M 2.049523591995239 3.465330123901367 L 2.693093299865723 28.44499778747559 L 3.401291131973267 3.465330123901367 L 2.049523591995239 3.465330123901367 M 1.46999716758728 1.465330123901367 L 3.982417106628418 1.465330123901367 C 4.775327205657959 1.465330123901367 5.418097496032715 2.108100891113281 5.418097496032715 2.9010009765625 L 4.665937423706055 29.43131065368652 C 4.665937423706055 30.22421073913574 4.023167133331299 30.86699104309082 3.230267286300659 30.86699104309082 L 2.153507232666016 30.86699104309082 C 1.360607147216797 30.86699104309082 0.7178373336791992 30.22421073913574 0.7178373336791992 29.43131065368652 L 0.0343174934387207 2.9010009765625 C 0.0343174934387207 2.108100891113281 0.6770873069763184 1.465330123901367 1.46999716758728 1.465330123901367 Z" stroke="none" fill="#fff"/>
    </g>
    <g id="패스_573" data-name="패스 573" transform="translate(758.202 1811.434)" fill="none">
      <path d="M4.8-27s4.8,6.073,4.8,8.722a4.8,4.8,0,0,1-4.8,4.8,4.8,4.8,0,0,1-4.8-4.8C0-20.927,4.8-27,4.8-27Z" stroke="none"/>
      <path d="M 4.797215938568115 -23.61819648742676 C 4.558789253234863 -23.27373695373535 4.309234619140625 -22.90349578857422 4.060835838317871 -22.51981544494629 C 2.023426055908203 -19.37282562255859 1.999995708465576 -18.32101631164551 1.999995708465576 -18.27778625488281 C 1.999995708465576 -16.73539543151855 3.254826068878174 -15.48057556152344 4.797215938568115 -15.48057556152344 C 6.339606285095215 -15.48057556152344 7.594435691833496 -16.73539543151855 7.594435691833496 -18.27778625488281 C 7.594435691833496 -18.32101631164551 7.571005821228027 -19.37282562255859 5.533596038818359 -22.51981544494629 C 5.285197257995605 -22.90349578857422 5.035642623901367 -23.27373695373535 4.797215938568115 -23.61819648742676 M 4.797215938568115 -26.99999618530273 C 4.797215938568115 -26.99999618530273 9.594435691833496 -20.92721557617188 9.594435691833496 -18.27778625488281 C 9.594435691833496 -15.62836647033691 7.446645736694336 -13.48057556152344 4.797215938568115 -13.48057556152344 C 2.147786140441895 -13.48057556152344 -3.814697265625e-06 -15.62836647033691 -3.814697265625e-06 -18.27778625488281 C -3.814697265625e-06 -20.92721557617188 4.797215938568115 -26.99999618530273 4.797215938568115 -26.99999618530273 Z" stroke="none" fill="#fff"/>
    </g>
    <g id="사각형_152" data-name="사각형 152" transform="translate(757.666 1797.132)" fill="none" stroke="#fff" stroke-width="2">
      <rect width="10.666" height="5.063" rx="2.532" stroke="none"/>
      <rect x="1" y="1" width="8.666" height="3.063" rx="1.532" fill="none"/>
    </g>
    <path id="패스_579" data-name="패스 579" d="M7591.331,1817.823s1.141-1.873,3.984-.281,3.094-.469,3.094-.469" transform="translate(-6831.924 -25.144)" fill="none" stroke="#fff" stroke-width="2"/>
  </g>
</svg>
