<svg xmlns="http://www.w3.org/2000/svg" width="21.12" height="23.997" viewBox="0 0 21.12 23.997">
  <g id="icon" transform="translate(-49 -89)">
    <g id="패스_571" data-name="패스 571" transform="translate(53.038 89)" fill="none">
      <path d="M6.522,0a6.628,6.628,0,0,1,6.522,6.73,6.628,6.628,0,0,1-6.522,6.73A6.628,6.628,0,0,1,0,6.73,6.628,6.628,0,0,1,6.522,0Z" stroke="none"/>
      <path d="M 6.522205829620361 1 C 3.477246284484863 1 0.9999961853027344 3.570359230041504 0.9999961853027344 6.729759693145752 C 0.9999961853027344 9.88916015625 3.477246284484863 12.4595193862915 6.522205829620361 12.4595193862915 C 9.567165374755859 12.4595193862915 12.04441547393799 9.88916015625 12.04441547393799 6.729759693145752 C 12.04441547393799 3.570359230041504 9.567165374755859 1 6.522205829620361 1 M 6.522205829620361 0 C 10.12431526184082 0 13.04441547393799 3.013019561767578 13.04441547393799 6.729759693145752 C 13.04441547393799 10.44649982452393 10.12431526184082 13.4595193862915 6.522205829620361 13.4595193862915 C 2.920095443725586 13.4595193862915 -3.814697265625e-06 10.44649982452393 -3.814697265625e-06 6.729759693145752 C -3.814697265625e-06 3.013019561767578 2.920095443725586 0 6.522205829620361 0 Z" stroke="none" fill="#707070"/>
    </g>
    <g id="패스_572" data-name="패스 572" transform="translate(49 102.234)" fill="none">
      <path d="M7.92,0H13.2c4.374,0,7.92,2.241,7.92,5.006V8.343c0,2.765-5.877,2.405-10.251,2.405h0C6.5,10.748,0,11.108,0,8.343V5.006C0,2.241,3.546,0,7.92,0Z" stroke="none"/>
      <path d="M 7.920050621032715 0.9999971389770508 C 5.991240501403809 0.9999971389770508 4.192081451416016 1.465767860412598 2.854009628295898 2.311507225036621 C 1.658430099487305 3.067187309265137 1 4.024087429046631 1 5.005937576293945 L 1 8.343227386474609 C 1 8.479317665100098 1.022871017456055 8.641497611999512 1.295909881591797 8.844287872314453 C 1.502870559692383 8.997997283935547 1.922109603881836 9.219097137451172 2.744020462036133 9.399547576904297 C 4.205680847167969 9.720438003540039 6.203740119934082 9.763707160949707 7.965480804443359 9.763707160949707 C 8.479190826416016 9.763707160949707 8.99259090423584 9.75966739654541 9.489090919494629 9.755767822265625 C 9.971210479736328 9.751967430114746 10.42659091949463 9.748387336730957 10.86944007873535 9.748387336730957 C 11.31730079650879 9.748387336730957 11.76919078826904 9.75202751159668 12.24762058258057 9.755887985229492 C 12.72471046447754 9.759727478027344 13.21804046630859 9.763707160949707 13.7052001953125 9.763707160949707 C 15.36448097229004 9.763707160949707 17.24048042297363 9.720907211303711 18.57374000549316 9.403427124023438 C 19.30438041687012 9.229447364807129 19.67236137390137 9.018177032470703 19.8524112701416 8.871577262878418 C 20.0745906829834 8.690657615661621 20.12012100219727 8.52951717376709 20.12012100219727 8.343227386474609 L 20.12012100219727 5.005937576293945 C 20.12012100219727 4.024087429046631 19.46169090270996 3.067187309265137 18.26610946655273 2.311507225036621 C 16.92803955078125 1.465767860412598 15.12889099121094 0.9999971389770508 13.20008087158203 0.9999971389770508 L 7.920050621032715 0.9999971389770508 M 7.920050621032715 -2.86102294921875e-06 L 13.20008087158203 -2.86102294921875e-06 C 17.57419967651367 -2.86102294921875e-06 21.12012100219727 2.241237640380859 21.12012100219727 5.005937576293945 L 21.12012100219727 8.343227386474609 C 21.12012100219727 11.10793781280518 15.24356460571289 10.74838733673096 10.86944007873535 10.74838733673096 C 6.495320320129395 10.74838733673096 0 11.10793685913086 0 8.343227386474609 L 0 5.005937576293945 C 0 2.241237640380859 3.545921325683594 -2.86102294921875e-06 7.920050621032715 -2.86102294921875e-06 Z" stroke="none" fill="#707070"/>
    </g>
  </g>
</svg>
