<svg xmlns="http://www.w3.org/2000/svg" width="30" height="30" viewBox="0 0 30 30">
  <g id="calendar_icon" transform="translate(-614 -772)">
    <g id="사각형_54" data-name="사각형 54" transform="translate(614 772)" fill="#fff" stroke="#707070" stroke-width="2">
      <rect width="30" height="30" rx="4" stroke="none"/>
      <rect x="1" y="1" width="28" height="28" rx="3" fill="none"/>
    </g>
    <g id="사각형_55" data-name="사각형 55" transform="translate(614 780)" fill="#fff" stroke="#707070" stroke-width="1">
      <rect width="30" height="2" stroke="none"/>
      <rect x="0.5" y="0.5" width="29" height="1" fill="none"/>
    </g>
    <g id="사각형_61" data-name="사각형 61" transform="translate(618 785)" fill="#fff" stroke="#707070" stroke-width="1">
      <rect width="7" height="5" rx="2.5" stroke="none"/>
      <rect x="0.5" y="0.5" width="6" height="4" rx="2" fill="none"/>
    </g>
    <g id="사각형_66" data-name="사각형 66" transform="translate(618 792)" fill="#fff" stroke="#707070" stroke-width="1">
      <rect width="7" height="5" rx="2.5" stroke="none"/>
      <rect x="0.5" y="0.5" width="6" height="4" rx="2" fill="none"/>
    </g>
    <g id="사각형_62" data-name="사각형 62" transform="translate(626 785)" fill="#fff" stroke="#707070" stroke-width="1">
      <rect width="6" height="5" rx="2.5" stroke="none"/>
      <rect x="0.5" y="0.5" width="5" height="4" rx="2" fill="none"/>
    </g>
    <g id="사각형_65" data-name="사각형 65" transform="translate(626 792)" fill="#fff" stroke="#707070" stroke-width="1">
      <rect width="6" height="5" rx="2.5" stroke="none"/>
      <rect x="0.5" y="0.5" width="5" height="4" rx="2" fill="none"/>
    </g>
    <g id="사각형_63" data-name="사각형 63" transform="translate(633 785)" fill="#fff" stroke="#707070" stroke-width="1">
      <rect width="7" height="5" rx="2.5" stroke="none"/>
      <rect x="0.5" y="0.5" width="6" height="4" rx="2" fill="none"/>
    </g>
    <g id="사각형_64" data-name="사각형 64" transform="translate(633 792)" fill="#fff" stroke="#707070" stroke-width="1">
      <rect width="7" height="5" rx="2.5" stroke="none"/>
      <rect x="0.5" y="0.5" width="6" height="4" rx="2" fill="none"/>
    </g>
  </g>
</svg>
