<svg xmlns="http://www.w3.org/2000/svg" width="24.888" height="25.388" viewBox="0 0 24.888 25.388">
  <g id="합치기_2" data-name="합치기 2" transform="translate(6772.999 2812.999)" fill="#fff">
    <path d="M -6750.93896484375 -2789.025390625 L -6757.0830078125 -2795.1689453125 L -6757.6396484375 -2795.725830078125 L -6758.3115234375 -2795.31494140625 C -6759.71923828125 -2794.454345703125 -6761.33984375 -2793.99951171875 -6762.99951171875 -2793.99951171875 C -6767.9619140625 -2793.99951171875 -6771.9990234375 -2798.036865234375 -6771.9990234375 -2802.999267578125 C -6771.9990234375 -2807.9619140625 -6767.9619140625 -2811.999267578125 -6762.99951171875 -2811.999267578125 C -6758.037109375 -2811.999267578125 -6753.99951171875 -2807.9619140625 -6753.99951171875 -2802.999267578125 C -6753.99951171875 -2801.109619140625 -6754.578125 -2799.301513671875 -6755.67333984375 -2797.7705078125 L -6756.16650390625 -2797.0810546875 L -6755.56689453125 -2796.481689453125 L -6749.52490234375 -2790.439453125 L -6750.93896484375 -2789.025390625 Z" stroke="none"/>
    <path d="M -6754.73388671875 -2794.234375 L -6757.47265625 -2796.97314453125 L -6756.48681640625 -2798.35205078125 C -6755.513671875 -2799.712646484375 -6754.99951171875 -2801.319580078125 -6754.99951171875 -2802.999267578125 C -6754.99951171875 -2807.410400390625 -6758.58837890625 -2810.999267578125 -6762.99951171875 -2810.999267578125 C -6767.41064453125 -2810.999267578125 -6770.9990234375 -2807.410400390625 -6770.9990234375 -2802.999267578125 C -6770.9990234375 -2798.588134765625 -6767.41064453125 -2794.99951171875 -6762.99951171875 -2794.99951171875 C -6761.5244140625 -2794.99951171875 -6760.08349609375 -2795.403564453125 -6758.83349609375 -2796.168212890625 L -6757.48974609375 -2796.989990234375 L -6754.73388671875 -2794.234375 M -6750.93896484375 -2787.611083984375 L -6757.7900390625 -2794.4619140625 C -6759.30712890625 -2793.5341796875 -6761.0908203125 -2792.99951171875 -6762.99951171875 -2792.99951171875 C -6768.5234375 -2792.99951171875 -6772.9990234375 -2797.476806640625 -6772.9990234375 -2802.999267578125 C -6772.9990234375 -2808.523681640625 -6768.5234375 -2812.999267578125 -6762.99951171875 -2812.999267578125 C -6757.4765625 -2812.999267578125 -6752.99951171875 -2808.523681640625 -6752.99951171875 -2802.999267578125 C -6752.99951171875 -2800.832275390625 -6753.6884765625 -2798.82666015625 -6754.85986328125 -2797.188720703125 L -6748.11083984375 -2790.439453125 L -6750.93896484375 -2787.611083984375 Z" stroke="none" fill="#707070"/>
  </g>
</svg>
