<svg xmlns="http://www.w3.org/2000/svg" width="30" height="25.001" viewBox="0 0 30 25.001">
  <g id="art_save_icon_out" transform="translate(6769.049 15509.077)" fill="none">
    <path d="M-6757.743-15485.047a18.415,18.415,0,0,1-7.8-6.5c-4.416-6.254-4.7-13.613-.639-16.434,2.521-1.75,6.126-1.342,9.724.822a16.315,16.315,0,0,1,2.283,1.676c4.081-3.492,8.942-4.607,12.143-2.385,4.151,2.885,3.942,10.289-.474,16.543-3.221,4.563-7.79,7.252-11.636,7.252A6.755,6.755,0,0,1-6757.743-15485.047Z" stroke="none"/>
    <path d="M -6754.1396484375 -15486.076171875 C -6752.59130859375 -15486.076171875 -6750.8603515625 -15486.63671875 -6749.1328125 -15487.6962890625 C -6747.26708984375 -15488.8408203125 -6745.53955078125 -15490.4951171875 -6744.13720703125 -15492.4814453125 C -6742.92529296875 -15494.1982421875 -6742.01806640625 -15496.0869140625 -6741.513671875 -15497.943359375 C -6741.04248046875 -15499.67578125 -6740.9267578125 -15501.34765625 -6741.17919921875 -15502.779296875 C -6741.3681640625 -15503.8525390625 -6741.8671875 -15505.3232421875 -6743.17041015625 -15506.228515625 C -6743.92626953125 -15506.7529296875 -6744.84619140625 -15507.01953125 -6745.90380859375 -15507.01953125 C -6748.0654296875 -15507.01953125 -6750.60498046875 -15505.9072265625 -6752.8720703125 -15503.966796875 L -6754.18310546875 -15502.8447265625 L -6755.48486328125 -15503.9775390625 C -6756.14599609375 -15504.552734375 -6756.8193359375 -15505.046875 -6757.486328125 -15505.4482421875 C -6759.2578125 -15506.513671875 -6760.98828125 -15507.0771484375 -6762.49072265625 -15507.0771484375 C -6763.478515625 -15507.0771484375 -6764.3359375 -15506.830078125 -6765.0390625 -15506.341796875 C -6766.267578125 -15505.48828125 -6766.74072265625 -15504.0888671875 -6766.92138671875 -15503.064453125 C -6767.17236328125 -15501.642578125 -6767.05126953125 -15499.96875 -6766.5712890625 -15498.224609375 C -6766.05615234375 -15496.3525390625 -6765.134765625 -15494.443359375 -6763.9072265625 -15492.705078125 C -6761.9921875 -15489.9951171875 -6759.5361328125 -15487.93359375 -6756.990234375 -15486.8994140625 L -6756.83349609375 -15486.8359375 L -6756.68994140625 -15486.7470703125 C -6755.970703125 -15486.3017578125 -6755.11279296875 -15486.076171875 -6754.1396484375 -15486.076171875 M -6754.1396484375 -15484.076171875 C -6755.45263671875 -15484.076171875 -6756.6796875 -15484.388671875 -6757.74267578125 -15485.046875 C -6760.517578125 -15486.173828125 -6763.3349609375 -15488.4296875 -6765.54052734375 -15491.55078125 C -6769.9560546875 -15497.8046875 -6770.2421875 -15505.1640625 -6766.1796875 -15507.984375 C -6763.65966796875 -15509.734375 -6760.05322265625 -15509.3271484375 -6756.45556640625 -15507.162109375 C -6755.70166015625 -15506.708984375 -6754.93115234375 -15506.146484375 -6754.17236328125 -15505.486328125 C -6750.091796875 -15508.9775390625 -6745.23046875 -15510.0947265625 -6742.02978515625 -15507.87109375 C -6737.87841796875 -15504.986328125 -6738.087890625 -15497.58203125 -6742.50341796875 -15491.328125 C -6745.724609375 -15486.765625 -6750.29296875 -15484.076171875 -6754.1396484375 -15484.076171875 Z" stroke="none" fill="#fff"/>
  </g>
</svg>
